if (_typeface_js && _typeface_js.loadFace) _typeface_js.loadFace({"glyphs":{"0":{"ha":951,"x_min":34,"x_max":920,"o":"m 466 0 q 398 12 441 17 q 341 8 356 8 q 344 17 341 14 q 335 22 335 17 q 338 32 341 24 q 321 37 331 32 l 319 43 q 308 49 315 46 q 295 54 302 52 q 292 65 292 57 q 284 62 290 62 q 256 72 267 74 q 235 71 245 71 q 206 92 218 89 q 178 97 194 94 q 176 93 176 94 q 176 92 176 92 q 172 101 173 97 q 170 114 170 106 q 164 115 168 114 q 161 117 161 117 q 168 127 168 118 q 157 126 161 127 q 151 125 153 125 q 156 136 156 131 q 145 139 148 139 q 134 168 138 164 q 138 185 140 176 q 132 202 137 195 q 121 216 127 210 q 111 225 115 222 l 111 241 q 94 244 102 244 q 108 253 100 245 q 99 257 102 256 q 96 258 96 258 q 99 262 96 260 q 91 285 91 271 q 80 293 87 286 q 91 296 83 293 q 83 297 85 296 q 77 298 80 298 q 88 301 85 301 q 90 307 88 304 q 91 313 91 310 l 85 313 q 87 317 85 315 q 88 322 88 319 q 66 334 66 336 q 71 353 74 343 q 54 355 60 355 l 54 361 l 66 361 q 63 370 63 364 q 56 367 59 370 q 59 373 56 370 q 63 382 62 376 q 51 387 56 382 q 63 393 56 387 q 59 401 59 399 q 47 396 54 396 q 54 410 47 400 q 34 415 39 410 q 47 436 47 416 q 63 444 60 437 q 51 447 58 447 q 58 453 54 450 q 66 461 62 456 q 62 463 63 461 q 62 464 62 464 q 64 465 62 464 q 68 469 66 467 q 59 472 62 469 q 72 497 62 481 q 83 521 83 513 q 78 522 80 521 q 77 524 77 524 q 83 526 77 526 q 74 553 83 549 q 75 555 74 553 q 80 561 77 558 q 62 570 73 562 q 88 572 74 570 q 96 581 88 578 q 92 589 94 586 q 91 591 91 591 q 74 606 77 593 q 80 607 77 606 q 88 608 83 608 q 83 615 88 610 q 96 627 91 627 q 80 643 85 635 q 62 640 64 643 q 116 669 88 657 q 116 682 113 677 q 119 694 119 686 q 104 700 111 694 q 116 705 111 705 q 102 743 109 736 q 105 745 102 743 q 113 746 108 746 q 116 757 113 754 q 117 758 116 757 q 121 760 119 760 q 122 767 121 762 q 125 777 123 771 q 134 779 128 779 q 148 789 137 786 q 141 790 145 789 q 137 794 137 791 q 142 798 140 794 l 142 811 q 156 814 145 814 l 156 828 q 134 838 137 836 q 131 846 131 840 q 148 839 138 839 q 170 848 161 848 q 176 873 170 864 q 168 882 168 873 q 180 905 170 892 q 178 911 178 907 q 182 920 178 913 q 176 936 168 928 q 191 953 185 945 q 188 960 191 957 q 210 965 198 960 l 205 968 q 224 977 224 971 l 218 982 l 227 982 l 227 993 l 264 993 q 266 999 264 996 q 267 1004 267 1002 q 281 1004 278 1002 q 275 1010 275 1006 q 282 1008 278 1010 q 290 1007 287 1007 l 290 1002 q 313 1017 306 1003 q 332 1019 321 1019 q 331 1026 332 1022 q 330 1036 330 1031 q 341 1031 335 1036 l 347 1036 q 338 1039 344 1039 q 361 1047 349 1039 q 368 1042 361 1042 l 368 1050 q 384 1059 377 1050 q 401 1055 392 1059 l 401 1047 q 410 1047 402 1047 q 429 1048 418 1047 q 441 1050 439 1048 q 441 1034 438 1039 q 444 1044 441 1042 q 452 1036 449 1044 q 470 1034 455 1028 q 481 1042 477 1040 q 523 1028 490 1022 q 552 1013 519 1028 q 555 1028 552 1019 q 591 1012 566 1017 q 642 999 617 1007 q 631 996 634 999 q 646 997 631 993 q 666 987 665 1002 q 680 985 669 985 q 681 972 680 977 q 699 965 682 968 q 706 953 694 957 q 723 962 715 962 q 716 952 720 957 q 711 942 711 947 q 720 947 716 946 q 722 942 720 945 q 723 939 723 939 q 736 936 728 939 l 736 933 l 726 933 l 726 925 q 734 918 726 925 q 759 897 742 911 q 785 877 777 884 q 793 871 793 871 q 785 868 788 871 q 791 824 802 851 q 816 786 780 796 q 826 772 820 779 q 848 762 831 765 l 848 754 q 862 743 873 743 q 874 737 852 737 q 873 736 873 737 q 873 734 873 734 q 856 729 861 733 q 870 724 853 732 q 861 716 867 724 q 850 702 854 708 q 845 694 845 696 q 866 673 850 686 q 907 660 882 660 l 907 648 q 899 643 905 648 q 910 632 899 640 q 905 618 920 624 q 913 608 911 611 q 897 543 867 597 l 885 543 q 882 512 885 528 q 876 480 878 496 q 874 447 874 464 q 882 418 874 432 q 891 412 882 414 q 878 355 882 385 q 845 301 873 325 q 853 296 848 301 q 848 289 850 293 q 845 285 845 285 q 855 279 850 282 q 867 277 859 277 l 862 271 l 867 265 q 861 261 865 264 q 853 256 857 258 l 882 256 q 856 201 840 241 q 831 179 841 195 q 820 168 850 154 q 810 149 816 163 q 747 110 793 149 q 691 62 698 69 q 688 46 688 54 q 675 45 682 46 q 658 43 667 45 l 658 37 q 643 36 649 37 q 631 35 637 35 q 630 30 631 32 q 629 28 629 28 q 544 11 580 20 q 469 5 509 3 q 466 0 466 3 m 449 244 q 492 248 456 250 q 506 262 505 260 l 517 262 q 527 285 517 265 q 541 290 531 285 q 535 313 544 302 l 541 318 q 532 325 532 318 q 565 332 557 330 q 580 336 572 334 q 583 353 580 353 q 604 361 587 353 q 599 370 601 367 q 597 372 597 372 q 609 375 601 375 q 604 390 609 380 q 617 404 612 396 q 609 415 616 408 l 614 421 q 601 444 613 431 q 605 496 609 461 q 601 546 601 530 q 595 547 597 546 q 592 549 592 549 q 578 587 606 554 q 557 613 564 604 q 549 624 551 623 q 544 637 549 637 q 530 637 538 637 q 535 660 530 650 q 526 697 512 672 l 515 697 q 500 711 513 704 q 503 717 500 717 q 451 723 473 720 q 406 724 430 726 q 398 711 404 717 q 387 697 392 705 q 392 692 392 697 l 387 689 q 404 677 389 679 q 394 664 398 671 q 387 652 389 657 l 401 637 q 396 628 399 635 q 385 610 392 621 q 370 586 373 589 q 353 557 372 578 q 353 521 334 538 q 347 513 347 518 q 359 510 355 510 q 352 498 353 504 q 364 510 359 509 l 364 501 q 359 412 328 467 q 370 415 361 415 l 370 387 q 389 364 374 386 q 373 345 381 355 q 384 329 376 336 q 389 307 392 322 l 398 307 q 405 286 404 293 q 427 271 406 279 q 430 253 427 264 q 444 261 437 260 q 449 244 444 254 z "},"1":{"ha":777,"x_min":45,"x_max":728,"o":"m 489 3 q 453 16 475 9 q 431 28 431 23 q 420 55 420 33 q 412 83 409 56 q 418 115 414 109 q 412 126 410 121 q 414 140 414 132 q 428 158 420 142 q 421 164 421 158 q 430 175 429 171 l 425 175 q 428 196 425 183 q 429 218 431 210 q 435 220 433 218 q 432 233 435 228 q 427 243 429 239 q 426 254 425 248 q 434 265 427 260 q 430 269 431 268 q 429 269 429 269 q 437 277 437 272 q 424 292 435 279 q 425 309 427 294 q 423 324 423 324 q 432 363 446 341 q 426 404 418 385 q 424 424 425 420 q 434 441 423 429 l 433 477 q 428 483 429 477 q 441 496 429 487 q 438 520 444 512 q 427 537 432 528 q 432 540 429 540 q 422 566 431 546 q 425 578 426 568 q 421 579 421 578 q 421 581 421 581 l 423 581 q 427 597 423 587 l 418 597 q 431 610 430 603 q 433 626 432 618 q 429 629 431 629 q 430 631 429 629 q 433 635 431 632 q 429 643 429 635 q 412 650 418 646 q 402 660 406 654 q 377 657 387 659 q 363 654 368 655 q 336 635 358 652 q 307 633 327 644 q 281 623 288 623 l 223 623 q 200 612 206 615 q 188 608 194 608 q 133 606 164 615 q 79 597 98 597 q 70 607 75 606 q 63 611 65 608 q 65 612 63 611 q 69 614 67 614 q 65 634 68 626 q 62 654 62 643 q 64 655 62 654 q 68 660 66 657 q 50 668 62 668 q 52 720 59 671 q 47 756 50 743 q 45 771 45 770 q 50 772 50 771 q 63 777 50 774 q 60 783 60 780 l 70 795 q 85 801 79 798 q 96 806 91 804 q 107 812 102 809 q 121 820 112 816 q 115 823 117 820 q 139 828 126 825 q 165 840 151 831 q 184 852 165 846 q 198 874 206 859 q 209 902 204 882 q 233 911 228 909 q 246 917 239 914 q 247 920 246 917 q 248 926 248 923 l 257 926 q 260 942 257 932 q 254 948 254 942 q 269 945 260 948 q 292 948 278 942 q 307 962 302 962 q 308 966 306 966 q 328 991 313 968 q 342 1023 342 1015 q 371 1030 355 1023 q 400 1043 388 1038 l 400 1048 q 452 1059 413 1048 l 457 1054 q 468 1055 465 1054 q 477 1059 471 1057 q 498 1051 477 1053 q 515 1048 509 1050 q 524 1046 522 1047 q 534 1051 527 1046 l 534 1048 q 579 1053 552 1048 q 633 1057 606 1057 q 641 1062 637 1062 q 650 1065 646 1062 l 650 1059 q 662 1047 655 1054 q 669 1026 668 1040 q 671 1025 669 1026 q 677 1023 673 1023 q 675 1004 667 1018 q 685 975 684 990 q 704 951 696 966 q 710 948 708 951 q 705 927 709 934 q 701 903 701 920 q 711 882 707 885 q 716 877 714 880 q 714 826 711 874 q 725 768 718 777 q 721 753 724 766 q 713 717 718 740 q 709 654 703 669 q 714 629 710 635 q 710 625 712 626 q 708 623 708 623 q 713 591 709 612 q 728 597 720 597 q 713 581 722 589 q 718 564 705 572 q 710 559 716 562 q 696 554 704 557 q 697 536 696 543 q 711 512 699 528 l 707 512 q 699 500 703 503 q 701 488 695 496 q 699 484 700 486 q 698 483 698 483 q 699 458 702 471 q 700 456 699 458 q 702 455 701 455 q 695 424 686 444 q 694 395 705 406 q 701 384 699 388 q 695 372 697 380 q 694 355 694 364 q 696 337 694 345 q 702 324 698 328 q 689 311 700 319 q 693 310 691 311 q 698 309 696 309 l 691 309 q 686 293 688 300 q 677 269 684 286 q 682 261 680 265 q 688 254 684 257 q 672 180 680 240 q 680 121 665 123 q 677 109 677 118 l 673 106 q 683 83 675 91 q 676 80 678 83 q 681 60 683 70 q 674 60 678 60 q 665 58 670 59 q 631 33 665 48 q 588 12 600 22 q 567 9 579 10 q 536 6 554 7 q 509 4 521 5 q 489 3 497 3 z "},"2":{"ha":951,"x_min":53,"x_max":936,"o":"m 543 -7 q 515 16 517 12 q 478 22 513 22 q 453 28 471 28 q 439 7 446 14 q 437 11 439 7 q 436 21 436 16 l 431 16 q 436 13 433 16 q 431 12 433 13 q 429 10 429 10 q 436 -1 431 3 q 380 8 404 1 q 325 18 355 16 q 315 22 318 22 q 298 16 307 16 q 285 16 290 16 l 285 10 q 304 7 293 10 l 304 1 q 241 10 260 7 q 237 13 239 10 q 236 16 236 16 q 195 22 211 16 q 163 28 179 28 q 157 21 157 22 q 165 13 159 14 q 113 14 136 18 q 65 10 89 10 q 64 16 65 13 q 62 21 62 18 q 54 31 54 21 q 74 102 77 39 q 72 151 73 134 q 71 172 71 168 q 83 167 79 164 q 75 172 79 170 q 71 178 71 175 q 74 189 71 186 q 66 197 65 192 q 68 201 68 201 l 62 207 q 86 237 87 207 q 71 256 71 245 q 73 257 71 256 q 74 261 74 258 q 68 270 74 264 q 93 314 97 275 q 77 368 89 353 q 94 372 83 368 l 92 378 q 83 380 89 380 q 92 387 92 383 q 100 392 92 389 l 97 397 q 106 403 102 401 q 100 408 100 403 q 124 413 111 411 q 151 422 136 414 q 154 435 154 431 q 163 428 154 428 q 165 430 163 428 q 171 435 168 432 q 188 427 182 429 q 217 429 193 425 q 224 443 221 439 q 231 448 227 446 q 241 450 235 449 q 260 454 248 450 q 265 463 268 463 q 288 470 275 464 q 312 486 300 477 q 333 505 323 494 q 347 525 343 515 q 361 528 353 525 q 363 524 361 525 q 364 522 364 522 q 376 541 371 532 q 385 557 380 550 q 408 563 401 560 q 439 568 415 566 l 439 582 l 461 582 q 518 620 469 608 q 538 636 526 631 q 558 650 550 642 q 547 660 553 659 q 557 656 550 660 q 575 656 564 653 q 572 660 572 659 q 589 675 583 660 q 595 701 595 690 q 553 717 575 711 l 553 725 q 543 732 546 725 q 538 742 541 739 q 455 746 496 742 q 382 736 415 750 q 382 738 382 736 q 385 742 382 739 q 338 728 361 736 q 304 705 315 720 q 246 682 286 705 q 214 665 227 671 q 199 659 201 660 l 199 665 q 204 668 200 665 q 214 674 208 671 q 201 681 211 682 q 191 680 191 680 l 191 668 q 192 667 191 668 q 196 665 193 665 q 140 653 165 659 q 89 656 114 648 q 92 657 89 656 q 97 659 94 659 l 97 663 q 83 663 92 661 q 94 671 87 664 q 72 722 82 696 q 54 764 62 747 q 57 765 53 764 q 68 767 61 766 q 71 782 71 778 q 97 789 87 786 q 111 794 106 792 q 117 798 115 796 q 122 802 119 799 q 201 875 131 828 q 293 949 274 922 q 302 943 296 949 q 332 969 317 958 q 355 1007 347 981 q 379 1017 364 1010 q 401 1032 393 1024 q 446 1047 418 1032 q 489 1038 475 1061 q 537 1032 510 1038 q 595 1027 564 1027 q 639 998 611 1019 q 686 981 669 975 q 719 956 700 961 q 768 946 738 950 q 764 943 766 943 q 762 943 762 943 q 786 915 777 926 q 803 881 795 904 q 826 868 819 872 q 846 844 833 864 q 863 842 854 842 q 880 818 865 833 q 897 787 895 802 q 900 786 897 787 q 905 785 903 785 q 905 754 905 764 q 930 728 905 745 q 924 699 922 715 q 917 665 925 682 q 936 659 917 661 q 930 638 933 650 q 936 608 928 625 q 924 604 928 606 q 920 603 920 603 q 922 582 920 591 q 911 574 920 582 q 873 521 901 555 q 828 494 847 486 q 794 484 811 486 q 762 474 777 482 l 762 463 q 752 458 760 461 q 732 449 745 454 l 732 435 q 711 429 718 435 l 714 428 l 692 428 q 666 413 681 418 q 637 403 652 407 q 609 393 623 399 q 586 378 595 388 q 544 362 564 372 q 507 346 524 351 q 505 323 505 343 q 461 313 472 340 q 451 289 456 299 q 441 270 446 278 q 410 261 418 270 q 421 261 412 261 q 441 256 429 261 l 448 261 q 473 252 450 254 q 513 256 498 250 l 513 254 q 535 256 524 254 q 564 258 547 258 q 572 256 567 256 l 572 267 q 583 258 575 267 q 593 262 587 262 q 605 260 599 261 q 618 260 611 260 q 635 267 627 260 q 640 258 635 264 q 672 264 664 264 q 667 262 669 264 q 664 261 664 261 q 709 267 671 254 q 713 260 709 264 q 720 256 717 256 l 729 256 q 771 241 736 242 l 771 232 q 783 225 771 232 q 806 221 795 218 q 838 207 808 210 q 844 195 838 195 q 860 180 852 195 l 854 175 q 863 171 860 172 q 865 170 865 170 q 869 122 860 161 q 880 67 880 87 q 854 54 865 58 q 833 45 843 50 q 831 46 831 45 q 831 47 831 47 q 657 1 741 41 q 635 28 644 12 q 584 15 603 28 q 543 -7 564 1 z "},"3":{"ha":925,"x_min":14,"x_max":895,"o":"m 512 0 q 515 11 512 8 q 452 19 483 11 q 395 28 420 28 q 380 35 387 28 l 393 35 q 376 52 389 46 q 361 60 363 57 q 312 94 332 97 q 268 126 312 107 q 233 142 245 136 q 216 149 220 147 q 201 163 210 165 q 187 160 193 160 q 166 183 187 176 q 144 193 147 189 q 141 203 141 201 q 117 199 133 199 l 117 211 l 98 211 q 75 227 81 225 q 56 228 68 228 q 59 245 58 239 q 60 253 60 252 q 31 256 45 256 l 27 261 q 41 262 32 262 q 36 273 41 268 q 14 271 24 273 q 36 321 41 290 q 51 379 31 351 q 44 383 45 379 q 43 390 43 387 q 65 407 58 406 q 68 418 65 410 q 82 415 68 418 q 101 421 96 412 q 147 415 118 410 q 150 419 147 415 q 155 427 153 424 q 236 395 159 416 q 323 375 309 372 q 330 364 326 370 q 338 355 333 358 q 359 351 349 355 q 380 339 369 346 q 404 326 391 332 q 431 318 416 319 q 437 310 431 315 l 446 310 q 448 315 446 315 q 460 311 448 307 q 483 315 472 315 q 486 307 483 310 q 493 307 490 307 q 500 309 496 307 q 512 313 504 310 q 537 319 521 315 q 540 336 537 328 l 551 336 q 559 360 557 347 q 562 386 561 374 q 564 409 564 399 q 569 424 565 419 q 534 449 548 441 q 509 478 521 456 l 503 478 q 435 489 479 496 q 398 484 414 486 q 372 478 383 481 q 339 468 361 467 q 307 469 318 469 q 292 515 281 501 q 318 555 302 532 q 316 576 318 572 q 315 586 315 581 q 321 599 321 589 q 321 612 321 610 q 325 614 321 612 q 336 615 329 615 q 333 629 336 621 q 358 640 342 639 l 350 648 q 377 654 358 648 q 407 654 395 660 q 458 664 414 661 q 517 660 503 667 q 532 663 521 660 q 543 672 543 667 q 569 669 561 672 q 573 685 569 677 q 581 700 577 692 q 568 723 572 714 q 562 743 564 732 q 551 746 554 746 q 476 787 528 791 q 398 791 423 783 q 352 784 374 786 q 312 774 329 782 q 216 746 264 741 q 133 734 172 751 q 62 750 64 732 q 60 773 61 760 q 60 806 60 786 q 50 810 54 806 q 43 817 45 814 q 48 836 43 827 q 55 843 56 831 q 48 857 54 854 l 54 860 q 58 888 54 879 q 62 911 62 897 q 81 925 77 921 q 75 926 79 925 q 71 930 71 928 q 84 939 76 939 q 102 945 93 939 q 133 965 102 956 q 161 975 149 971 q 182 982 174 979 q 183 985 182 982 q 184 990 184 987 q 202 989 193 990 q 227 993 212 987 q 247 1004 229 1007 q 312 1047 261 1031 q 395 1044 363 1064 q 419 1053 412 1053 q 450 1059 426 1053 q 467 1031 456 1040 l 480 1031 q 483 1044 483 1039 q 532 1031 508 1044 q 589 1042 557 1017 l 600 1042 l 600 1050 q 623 1047 615 1050 q 622 1036 622 1046 q 631 1019 637 1036 q 631 987 625 1004 q 656 982 647 987 l 656 977 q 673 971 662 971 q 679 947 673 957 q 703 945 688 947 q 711 925 703 939 q 728 897 719 911 q 736 900 730 900 q 736 885 736 893 q 751 871 736 876 q 760 873 757 871 q 770 876 762 876 q 773 871 770 873 l 785 871 q 789 865 785 868 q 795 863 793 863 q 793 859 793 860 q 793 857 793 857 q 805 853 797 854 q 822 851 814 851 q 829 817 817 836 q 868 791 842 798 q 876 736 868 765 q 873 677 884 708 q 852 672 865 677 q 851 668 852 669 q 850 667 850 667 q 818 632 825 660 q 793 600 812 607 q 791 593 793 597 q 790 589 790 589 q 768 581 779 585 q 745 574 757 576 q 743 543 724 567 q 754 541 751 543 l 754 534 q 773 524 762 525 q 770 515 770 521 q 790 493 770 500 q 791 484 790 489 q 797 475 793 478 q 811 472 802 475 l 811 450 q 827 453 819 450 q 833 447 827 447 q 837 449 833 447 q 847 450 842 450 q 859 390 830 427 q 876 339 890 355 q 879 294 876 315 q 884 253 882 273 q 892 250 887 250 q 890 245 890 248 q 890 244 890 244 q 895 241 890 241 q 876 228 880 232 l 876 216 q 884 214 882 216 q 876 212 879 214 q 871 211 873 211 q 862 182 863 191 q 863 178 862 179 q 865 176 865 176 q 850 168 858 170 q 854 154 851 167 q 844 151 847 154 q 836 114 844 136 q 821 109 827 111 q 811 103 815 106 q 809 97 811 100 q 808 94 808 94 q 760 74 773 94 q 725 46 744 53 q 675 41 700 56 q 626 35 652 28 q 608 28 614 32 q 594 25 602 25 q 589 17 589 20 q 583 29 583 26 q 546 11 559 20 q 512 0 532 3 z "},"4":{"ha":925,"x_min":19,"x_max":902,"o":"m 652 0 q 636 11 644 8 q 620 17 627 14 q 606 23 612 20 q 595 37 600 26 l 601 40 q 587 82 601 68 q 595 111 593 87 q 597 128 597 122 q 598 134 598 134 q 604 168 601 151 q 595 199 606 184 q 598 222 595 211 q 590 228 595 222 q 583 255 590 244 q 573 271 576 265 q 581 273 578 271 q 584 297 583 288 q 587 310 586 306 q 556 325 574 318 q 520 336 538 332 q 484 342 501 340 q 455 342 467 343 q 401 344 434 343 q 321 343 368 345 q 246 338 277 342 q 199 328 215 335 q 197 319 197 325 q 165 322 183 322 q 159 316 162 319 q 157 313 157 313 q 114 315 134 313 q 83 307 94 318 q 53 309 58 307 q 40 315 48 310 q 38 335 45 322 q 31 350 31 347 l 37 355 q 28 375 28 370 l 23 375 q 23 390 20 382 q 34 393 26 393 q 37 410 34 401 q 34 432 19 421 q 26 436 27 436 q 28 437 26 436 q 34 439 31 439 q 36 441 34 439 q 37 447 37 444 q 28 453 28 449 l 43 453 q 50 478 43 464 q 45 479 48 478 q 43 484 43 481 l 60 484 q 62 485 60 484 q 63 489 63 486 q 66 481 66 486 q 72 489 75 482 q 129 564 112 521 q 138 579 137 572 q 145 591 140 586 q 129 612 138 597 q 137 618 134 618 q 129 621 134 621 q 144 650 137 646 q 174 660 151 654 q 179 670 176 663 q 186 689 182 677 q 177 692 180 689 l 177 694 q 195 699 186 694 q 214 703 205 703 q 216 711 216 705 q 231 717 222 711 q 226 738 223 734 q 245 746 229 741 q 211 803 247 798 q 223 808 216 808 q 219 811 222 808 q 216 817 216 814 q 245 864 231 835 q 254 911 260 896 q 262 905 254 905 q 281 945 281 921 q 291 963 288 953 q 300 982 294 974 q 294 983 297 982 q 291 985 291 985 q 297 1012 291 1002 q 291 1036 302 1022 q 312 1046 297 1039 q 336 1053 328 1053 l 338 1050 q 340 1053 338 1050 q 345 1059 342 1055 q 389 1053 351 1053 l 450 1053 l 455 1059 q 473 1047 456 1053 l 473 1042 l 484 1042 q 486 1035 484 1039 q 487 1031 487 1031 q 547 1021 501 1023 q 587 1019 570 1019 q 615 1019 604 1019 q 629 1010 621 1014 q 623 987 623 1000 q 626 983 623 985 q 630 982 629 982 q 613 965 623 979 q 612 939 604 950 l 621 939 q 601 908 593 916 q 564 848 576 879 q 555 846 558 848 q 547 828 548 835 l 541 822 q 544 821 541 822 q 552 819 547 819 q 545 811 547 814 q 544 808 544 808 q 555 800 551 802 q 522 757 540 791 q 506 726 512 739 q 495 703 500 713 q 495 681 488 692 l 490 675 q 501 640 498 646 q 504 632 504 635 q 484 640 492 635 q 483 632 484 635 q 481 627 481 629 q 458 622 466 624 q 447 619 450 621 q 427 600 441 618 q 435 583 435 589 q 540 583 456 576 q 629 618 623 589 q 631 621 629 618 q 635 627 633 624 q 661 676 625 660 q 720 684 694 694 q 723 685 720 684 q 732 689 726 686 q 795 677 743 681 q 841 675 822 676 q 871 675 861 675 q 871 662 870 671 q 875 644 871 653 q 885 628 879 635 q 899 621 891 621 l 891 612 q 891 583 892 610 q 887 534 875 570 q 902 481 901 498 q 882 433 886 461 q 861 379 878 404 q 863 350 859 358 q 891 322 866 342 q 883 284 888 307 q 878 239 878 261 q 864 233 869 239 q 857 220 859 228 q 852 203 854 212 q 848 187 851 195 q 842 184 846 187 q 847 145 846 151 q 851 131 848 139 l 857 134 l 857 125 q 837 122 837 125 q 854 103 846 114 q 851 94 854 97 l 857 92 q 855 85 857 89 q 854 82 854 82 q 863 79 857 79 q 866 71 863 74 q 854 68 857 71 q 857 48 854 60 q 883 35 861 37 q 888 20 883 29 q 871 17 880 20 q 870 11 871 14 q 869 8 869 8 q 817 4 846 5 q 756 1 789 3 q 698 0 724 0 q 652 0 672 0 z "},"5":{"ha":925,"x_min":27,"x_max":909,"o":"m 349 0 q 320 9 328 8 q 298 20 312 11 q 292 15 295 17 q 290 14 290 14 q 266 29 283 29 q 243 29 250 29 q 173 54 212 43 q 81 62 108 25 q 64 62 70 64 q 27 97 39 90 q 38 106 34 104 q 33 111 33 106 q 38 114 35 111 q 47 119 41 117 q 42 136 38 127 q 47 151 47 144 q 48 151 47 151 q 52 154 50 151 q 52 171 45 160 q 48 172 50 171 q 47 174 47 174 q 50 194 55 179 q 44 214 44 208 q 50 236 50 214 q 90 282 80 243 q 121 292 116 290 q 130 296 127 293 q 140 289 136 293 q 152 285 144 285 q 230 281 187 285 q 326 271 273 278 q 328 277 328 273 q 365 269 345 271 q 406 279 385 268 q 399 288 399 279 q 486 304 430 297 q 513 370 520 323 q 464 394 488 379 q 434 427 439 410 q 388 432 406 435 q 352 432 369 429 q 295 449 345 439 q 235 458 247 458 l 230 464 q 189 469 209 464 q 152 483 169 475 q 118 496 134 490 q 90 504 102 503 q 81 521 90 518 q 73 524 73 524 q 79 550 79 541 q 70 555 70 551 q 84 564 77 557 q 74 572 79 567 q 67 583 70 578 l 70 589 q 67 595 67 591 q 68 595 67 595 q 73 597 70 595 q 67 603 70 600 q 64 610 64 606 q 79 612 76 610 q 84 635 79 629 q 81 657 79 647 q 55 677 58 665 q 67 681 59 677 q 64 689 66 684 q 59 703 62 694 q 67 714 76 693 q 70 715 67 714 q 79 720 73 717 q 76 724 76 722 q 83 760 84 734 q 62 783 81 786 q 66 786 62 783 q 73 791 70 789 q 68 793 70 791 q 67 794 67 794 q 76 800 73 800 q 69 802 73 800 q 64 806 64 803 q 79 808 70 806 q 80 811 79 808 q 81 817 81 814 q 67 831 75 829 q 73 840 67 836 q 58 879 55 867 q 62 920 62 889 q 57 930 59 925 q 52 939 55 935 q 38 936 47 939 q 44 955 38 947 q 41 974 50 962 q 55 985 51 983 q 52 992 54 989 q 50 999 51 996 q 64 996 56 999 q 63 999 64 996 q 62 1007 62 1002 q 66 1004 63 1006 q 76 999 70 1002 q 79 1000 76 999 q 84 1002 81 1002 q 87 1019 84 1011 q 95 1017 90 1017 q 94 1033 95 1025 q 92 1050 92 1042 q 94 1051 92 1050 q 95 1055 95 1053 q 106 1042 106 1047 l 124 1042 q 130 1050 124 1050 l 130 1042 q 138 1055 136 1043 q 140 1053 138 1055 q 144 1044 141 1050 q 215 1054 176 1053 q 295 1059 255 1055 q 349 1043 315 1044 q 406 1050 382 1042 q 408 1044 406 1047 q 409 1042 409 1042 q 420 1053 413 1042 l 420 1042 q 454 1039 442 1042 q 456 1042 454 1042 q 475 1040 459 1042 q 499 1047 491 1039 l 499 1042 q 513 1044 508 1044 l 508 1042 q 523 1050 516 1042 q 524 1047 523 1050 q 528 1039 526 1044 q 543 1044 534 1042 q 565 1050 552 1047 q 563 1044 565 1047 q 562 1042 562 1042 q 568 1039 568 1042 q 596 1046 583 1042 q 633 1047 610 1050 l 635 1042 q 640 1043 637 1042 q 648 1044 642 1044 q 654 1059 648 1048 q 687 1031 671 1040 q 693 1032 690 1031 q 702 1034 696 1034 q 711 1025 708 1025 q 713 1036 711 1034 q 738 1028 730 1031 q 768 1039 747 1025 q 759 1028 760 1032 q 774 1023 768 1022 q 787 1028 781 1025 q 798 1034 792 1031 q 810 1036 804 1038 q 825 1042 817 1043 q 827 1050 825 1047 q 844 1042 836 1042 q 836 1036 841 1042 l 861 1036 l 861 1028 q 877 1021 867 1025 q 906 1014 887 1017 q 894 999 903 1007 q 884 977 884 990 q 895 979 890 977 q 909 985 901 982 q 887 946 898 968 q 876 903 876 925 q 884 900 882 903 q 873 888 873 896 q 877 886 873 888 q 884 885 882 885 q 876 857 865 876 q 878 860 876 860 q 890 833 878 847 q 866 819 878 832 q 870 811 866 811 q 863 814 867 814 q 849 790 855 800 q 852 762 844 779 q 806 769 827 760 q 768 786 784 779 q 722 800 727 786 q 661 803 690 800 q 605 811 633 806 q 551 808 573 800 q 450 818 534 832 q 382 806 408 811 q 347 800 356 802 q 333 769 337 783 q 326 734 328 754 q 309 705 311 715 q 317 703 315 705 q 337 700 320 700 q 332 681 316 686 q 357 665 351 673 q 372 669 368 669 q 382 652 381 653 q 399 650 391 652 q 414 648 406 648 q 417 637 414 640 q 531 615 469 628 q 665 583 593 602 q 662 578 662 583 q 675 570 663 572 q 665 561 669 562 q 669 555 665 558 q 675 553 673 553 q 667 550 670 553 q 670 541 667 543 q 690 529 673 538 q 727 513 690 513 q 753 493 732 498 l 753 475 q 764 472 762 475 l 759 467 q 770 469 762 467 q 792 447 779 456 l 798 453 q 808 439 798 447 q 836 435 819 432 q 842 408 836 427 q 863 382 849 390 q 861 372 861 379 q 862 371 861 372 q 866 370 863 370 q 862 368 863 370 q 861 367 861 367 q 863 361 861 364 q 867 358 866 358 q 863 353 866 355 q 861 350 861 350 q 863 340 861 350 q 866 322 866 330 l 882 322 q 870 318 874 318 l 876 313 q 870 310 870 313 l 870 304 q 876 301 873 304 q 861 271 862 294 q 855 269 858 271 q 852 268 852 268 q 848 258 852 261 q 852 241 844 256 q 851 236 852 239 q 849 233 849 233 q 851 218 852 231 q 849 199 849 205 q 816 199 842 200 q 817 196 816 199 q 821 187 819 193 q 804 182 813 187 q 779 157 805 171 l 779 142 q 776 146 776 144 q 763 136 768 139 q 757 131 759 134 q 754 123 755 127 q 751 111 753 119 q 762 109 753 109 q 746 100 756 103 q 732 94 735 97 q 727 89 732 89 q 728 82 727 85 q 730 79 730 79 q 699 81 708 82 q 673 77 690 79 l 679 71 q 657 62 667 65 q 640 57 648 60 l 640 54 q 612 49 623 52 q 594 41 601 46 q 581 28 587 36 q 568 11 576 21 q 481 5 523 3 q 399 17 439 8 q 374 7 391 8 q 352 5 357 5 q 349 0 349 3 z "},"6":{"ha":951,"x_min":47,"x_max":929,"o":"m 427 0 q 381 10 407 4 q 324 22 356 16 q 249 65 262 36 q 243 52 243 56 q 236 72 243 68 q 229 85 229 77 q 196 87 216 87 q 187 100 191 94 q 181 109 184 106 l 181 114 q 162 119 170 117 q 151 122 155 121 l 151 131 q 144 132 147 131 q 142 134 142 134 q 139 144 144 136 l 135 144 q 121 185 127 168 q 113 214 115 203 q 107 216 110 214 q 109 218 107 216 q 110 222 110 220 q 103 231 102 225 q 104 236 104 236 l 96 236 q 90 268 90 249 q 85 269 87 268 q 82 271 82 271 l 82 279 q 75 282 79 282 q 71 310 73 298 q 70 328 70 321 l 64 328 l 64 336 l 79 336 q 73 358 61 350 q 68 359 70 358 q 67 361 67 361 q 75 367 73 367 q 70 379 70 376 l 64 379 q 56 406 58 396 q 53 424 53 415 l 58 424 q 50 447 57 440 q 58 441 50 441 q 56 463 57 454 q 56 475 56 471 l 47 475 l 47 481 l 53 481 l 53 507 l 50 507 q 53 514 50 510 q 58 524 56 518 q 56 525 56 524 q 56 526 56 526 l 58 529 l 58 538 q 65 539 61 538 q 75 541 70 541 q 70 575 70 558 q 94 603 86 585 q 90 654 83 618 q 95 687 94 673 q 96 711 96 701 q 90 714 90 711 l 96 714 q 98 734 96 722 q 99 757 99 746 l 107 757 q 108 781 107 771 q 110 798 109 790 l 115 798 q 114 800 115 798 q 113 806 113 803 q 130 814 121 811 q 131 871 127 864 q 159 911 135 878 q 167 905 161 911 q 178 918 172 914 q 186 930 184 922 q 196 933 196 930 l 186 933 l 189 939 l 193 939 q 195 945 193 942 q 196 950 196 947 q 199 945 197 949 q 204 936 201 942 q 209 935 204 936 q 218 933 213 933 q 221 947 218 945 l 235 947 l 235 960 q 245 967 241 960 q 261 979 250 974 q 264 996 261 987 q 269 999 266 997 q 278 1004 273 1002 q 275 1013 275 1007 q 316 1022 295 1013 q 363 1036 338 1031 q 366 1031 366 1036 q 372 1031 367 1031 q 387 1034 376 1032 q 408 1044 406 1036 q 438 1057 424 1053 q 477 1053 452 1061 q 482 1059 477 1059 l 482 1047 q 497 1040 486 1047 q 517 1034 509 1034 l 517 1039 q 525 1038 519 1039 q 536 1036 531 1036 q 534 1044 530 1044 q 539 1031 539 1035 l 546 1031 q 549 1033 546 1031 q 557 1039 551 1035 q 571 1031 564 1032 q 574 1036 571 1036 l 574 1031 q 575 1032 574 1031 q 579 1034 576 1034 q 582 1028 582 1031 q 631 1020 603 1028 q 688 1017 660 1013 l 688 1014 q 727 1004 707 1007 q 777 1002 747 1002 q 788 987 787 994 l 796 987 l 796 982 q 812 977 802 977 l 812 968 l 845 957 l 833 957 l 833 947 q 821 933 824 946 q 823 932 821 933 q 827 930 824 930 q 819 926 821 928 q 816 925 816 925 q 820 899 816 908 q 807 882 824 890 q 802 863 802 872 q 819 860 819 863 l 810 860 q 807 840 807 851 q 782 794 788 833 q 754 785 759 786 q 750 782 750 783 q 674 806 701 806 q 660 810 670 808 q 640 814 650 812 q 620 818 629 817 q 606 819 610 819 l 603 814 q 560 825 581 825 q 546 822 551 822 q 543 821 543 822 q 543 819 543 819 q 528 821 536 819 q 514 822 519 822 q 513 825 514 822 q 511 831 511 828 q 477 831 492 823 q 443 825 460 828 q 412 822 427 822 l 408 819 q 378 825 388 819 q 363 810 372 825 q 357 789 355 794 q 346 764 349 782 q 343 734 343 746 l 338 734 q 332 677 332 707 l 327 677 q 330 655 327 669 q 340 629 332 640 q 326 604 327 608 q 324 591 324 600 q 330 589 330 591 l 324 589 q 327 578 324 586 q 328 576 327 578 q 332 575 330 575 l 332 570 l 332 575 q 327 574 330 575 q 324 572 324 572 q 326 556 324 564 q 327 541 327 549 q 328 539 327 541 q 332 538 330 538 q 328 536 330 538 q 327 534 327 534 q 352 524 328 530 q 353 525 352 524 q 355 529 355 526 l 372 529 q 381 541 379 536 q 387 534 382 534 l 387 549 q 393 546 392 549 q 412 549 395 543 l 412 553 q 412 551 412 553 q 414 550 412 550 q 417 570 414 561 q 437 567 425 567 q 435 572 435 570 q 457 589 454 581 q 460 612 460 597 q 479 607 469 608 q 489 606 489 606 q 484 603 484 606 q 486 602 484 603 q 494 600 489 600 q 503 606 500 606 q 530 600 511 603 q 568 597 549 597 l 568 591 q 571 603 571 595 q 595 593 579 595 q 628 589 611 591 q 636 595 629 595 q 642 586 637 586 q 645 597 642 597 l 645 586 q 648 585 645 586 q 653 583 650 583 q 656 578 656 583 q 659 582 659 581 q 660 583 660 583 q 742 581 692 575 q 747 589 745 591 l 747 583 q 761 579 755 581 q 793 578 767 578 l 796 581 l 796 578 q 803 574 802 578 q 819 561 804 570 q 833 558 825 561 l 833 550 q 859 546 850 546 l 859 538 l 867 538 l 867 529 l 876 529 l 876 524 l 884 524 l 884 507 l 890 507 q 907 436 896 486 l 916 436 q 929 353 899 404 l 921 353 q 916 313 921 336 q 899 313 909 314 q 893 272 896 296 q 873 241 890 248 q 874 236 873 239 q 876 231 876 233 q 859 208 860 224 l 853 208 q 856 201 856 205 q 846 190 850 193 q 842 179 842 187 l 833 179 q 828 148 831 164 q 824 117 825 132 q 753 71 770 109 q 738 69 745 71 q 725 68 731 68 q 718 53 720 60 q 714 43 717 46 q 696 46 709 46 l 696 40 q 670 28 682 32 q 648 20 657 25 q 533 11 589 17 q 427 0 477 5 m 477 222 q 517 228 494 225 q 560 236 539 231 q 579 251 574 244 q 593 262 585 258 q 613 276 608 262 q 631 285 617 290 q 643 308 631 296 q 660 330 656 319 q 668 334 663 334 q 624 383 668 395 q 583 376 602 379 q 549 370 564 372 q 536 370 541 370 q 528 370 532 370 q 517 371 524 370 q 498 375 510 372 q 469 358 486 367 q 444 358 452 350 q 395 364 416 358 q 392 355 392 361 q 391 357 392 355 q 389 361 389 358 l 389 347 q 357 322 368 338 q 370 301 355 322 q 389 271 366 290 q 412 253 401 261 q 429 236 422 244 q 450 233 437 233 q 477 222 463 233 z "},"7":{"ha":925,"x_min":14,"x_max":895,"o":"m 362 -9 q 358 -8 362 -9 q 353 -2 353 -7 q 294 1 302 -2 l 294 9 q 278 15 288 9 q 279 20 278 20 q 270 22 274 22 l 270 28 l 279 28 q 267 52 275 39 q 256 73 258 64 l 253 73 q 288 93 288 88 q 274 105 288 97 l 274 113 q 262 116 271 116 q 274 122 264 116 q 262 127 269 127 q 271 160 279 135 q 266 191 266 182 q 273 206 254 195 q 294 226 294 216 q 288 227 291 226 q 286 229 286 229 q 291 240 286 234 q 274 257 277 253 q 263 270 271 261 l 266 273 l 307 283 q 302 285 304 283 q 300 286 300 286 q 307 292 304 292 q 292 293 307 292 q 276 298 276 295 q 284 321 284 307 q 277 323 279 321 q 272 325 275 325 q 279 328 276 325 q 276 338 279 336 q 269 341 272 338 q 290 344 277 344 q 281 361 292 352 q 293 367 287 367 q 284 379 284 370 q 319 401 290 389 l 310 401 q 310 410 279 395 q 295 431 304 427 q 313 443 288 437 q 319 459 313 450 q 310 471 317 463 l 321 471 q 332 479 326 473 q 327 482 330 481 q 321 486 324 484 q 323 492 323 489 q 323 499 323 496 q 326 505 324 503 q 335 503 328 506 l 335 509 q 340 506 340 509 q 343 527 338 519 q 349 540 349 534 q 349 538 349 540 q 351 537 349 537 q 358 538 358 537 q 370 543 358 540 q 358 555 370 548 q 371 559 376 555 q 392 552 368 562 l 392 564 q 395 565 392 564 q 400 569 397 566 q 397 580 400 572 q 400 582 397 580 q 406 583 403 583 q 401 585 403 583 q 400 586 400 586 q 412 592 406 589 q 424 597 417 595 q 421 604 421 600 q 432 615 429 607 q 434 614 432 615 q 438 612 435 612 q 444 632 438 623 l 438 632 q 446 655 446 651 q 448 656 446 655 q 454 661 449 658 q 460 676 449 669 l 460 739 q 446 745 454 742 q 427 751 438 747 l 424 747 q 356 758 414 763 q 255 745 271 752 l 255 730 q 247 733 252 733 l 239 751 l 222 751 q 208 746 218 745 q 192 750 198 747 q 184 753 186 753 l 179 751 q 141 753 150 773 q 136 762 136 759 l 125 762 q 122 753 122 759 q 22 785 73 785 q 27 791 22 788 q 33 800 33 794 l 24 800 q 31 805 24 805 q 23 807 27 805 q 19 808 19 808 q 56 836 45 818 q 51 852 51 842 l 56 857 q 41 863 43 857 q 43 865 41 863 q 48 866 45 866 q 31 883 36 873 q 32 884 31 883 q 36 886 33 886 q 31 906 24 897 l 24 912 q 26 915 24 912 q 27 921 27 918 q 19 926 24 921 q 27 932 22 926 q 26 964 22 949 q 31 992 31 979 q 14 1001 22 992 q 20 1009 18 1006 q 24 1013 22 1012 q 32 1016 27 1015 q 45 1037 37 1017 q 47 1040 45 1037 q 48 1046 48 1043 q 68 1037 56 1037 q 108 1027 85 1043 q 112 1029 108 1027 q 119 1034 117 1031 q 127 1029 125 1031 q 138 1027 130 1027 l 141 1029 q 155 1027 142 1027 q 153 1037 153 1033 q 162 1031 158 1037 l 168 1034 l 168 1040 q 186 1031 178 1033 q 202 1028 194 1029 q 220 1027 211 1027 q 247 1027 232 1027 q 272 1040 261 1040 q 262 1034 267 1037 q 255 1029 258 1031 q 256 1023 255 1027 q 258 1017 258 1019 q 269 1015 264 1017 q 281 1014 275 1014 q 284 1025 284 1017 q 287 1026 284 1025 q 293 1027 290 1027 q 296 1031 293 1029 q 309 1025 298 1029 q 307 1031 307 1027 q 341 1027 329 1031 q 346 1029 341 1027 q 353 1034 350 1031 q 391 1031 359 1029 q 420 1034 407 1033 q 443 1037 433 1036 l 504 1021 q 529 1023 512 1021 q 569 1027 545 1024 q 563 1043 566 1036 q 559 1059 559 1050 q 621 1042 591 1050 q 691 1030 651 1034 q 703 1021 699 1023 q 704 1023 703 1021 q 711 1024 705 1024 l 711 1034 q 730 1039 720 1039 q 745 1036 730 1036 q 776 1039 762 1036 q 777 1032 776 1036 q 779 1024 779 1027 q 808 1030 793 1024 q 821 1039 818 1040 q 847 1036 823 1036 q 846 1038 847 1036 q 844 1042 844 1039 q 848 1044 844 1042 q 854 1050 852 1047 q 859 1030 854 1036 q 873 1024 863 1030 q 868 1023 871 1024 q 865 1021 865 1021 l 884 1021 q 895 1006 876 1006 q 857 935 873 981 q 865 909 858 932 q 859 915 859 909 q 864 876 859 898 q 847 838 868 854 q 844 808 844 825 q 859 779 844 791 q 847 780 848 779 q 850 756 852 763 q 843 752 847 753 q 839 751 839 751 q 832 729 839 742 q 827 707 825 715 l 817 707 q 808 679 811 697 q 798 656 817 662 q 790 632 782 652 q 793 631 790 632 q 800 629 795 629 q 786 616 793 625 q 774 598 780 607 q 762 582 768 589 q 748 574 755 574 q 757 543 741 566 q 722 544 739 547 l 722 540 q 700 517 697 528 q 686 497 701 507 q 666 452 686 475 q 642 433 647 441 q 630 422 637 425 q 627 413 629 419 q 622 399 625 407 q 595 349 601 391 q 578 286 583 311 q 570 281 573 281 q 569 264 570 273 q 584 246 568 256 q 573 243 576 246 l 554 215 l 557 212 q 552 198 553 208 q 553 176 551 189 q 557 153 554 164 q 560 134 560 142 q 546 126 543 131 q 549 108 549 122 q 566 105 556 102 q 560 102 563 102 q 557 80 560 81 q 555 56 557 67 q 555 28 553 45 q 545 20 551 26 l 545 15 q 536 12 542 14 q 524 9 531 11 q 521 4 521 9 l 513 4 q 481 -3 503 -6 q 437 -2 459 -2 q 393 -2 415 -2 q 379 -7 387 -5 q 362 -9 372 -10 z "},"8":{"ha":951,"x_min":28,"x_max":908,"o":"m 614 0 q 619 17 623 9 q 595 14 603 17 q 593 15 595 14 q 591 20 591 17 q 553 17 558 14 q 545 21 550 18 q 529 28 539 24 q 526 20 524 28 q 500 25 511 28 q 475 22 489 22 q 413 23 446 14 q 358 32 380 32 q 364 28 358 28 q 351 31 355 28 q 340 37 346 35 q 310 31 315 32 q 301 29 304 29 q 269 49 290 46 q 233 52 248 52 q 229 60 229 52 q 207 62 221 62 q 201 74 207 68 q 155 94 161 74 q 107 125 114 104 q 93 127 98 127 q 98 134 98 129 q 90 136 96 136 q 87 142 87 139 q 74 144 85 144 q 60 168 77 151 q 49 180 53 176 q 45 184 45 184 q 49 199 45 196 q 41 214 53 203 l 47 220 q 50 244 33 233 q 40 249 41 244 q 36 253 39 253 q 42 257 39 254 q 47 262 45 260 q 33 261 43 261 q 37 293 36 288 q 41 304 39 298 q 31 313 35 311 q 36 319 36 314 q 28 322 33 322 q 32 339 28 330 q 39 355 36 347 l 45 355 l 45 364 q 57 361 53 361 l 57 367 q 71 366 62 367 q 87 364 79 364 q 102 376 89 372 q 87 379 93 379 q 117 387 93 385 q 125 404 122 399 q 127 410 127 410 l 153 418 l 150 424 q 159 427 153 427 l 159 432 q 154 433 155 432 q 153 435 153 435 l 153 436 q 166 437 159 436 q 184 439 174 437 q 188 453 184 444 q 212 456 200 450 q 210 467 212 464 q 229 475 220 472 q 227 476 227 475 q 227 478 227 478 q 239 484 229 478 l 239 489 q 231 492 233 492 q 229 493 229 493 q 253 504 243 494 q 246 506 250 504 q 241 507 241 507 l 241 515 l 250 515 l 244 521 l 236 521 q 249 526 236 521 q 269 532 261 532 q 271 535 269 532 q 272 541 272 538 q 261 548 264 543 q 253 561 258 553 l 239 561 q 243 562 239 561 q 250 564 248 564 q 243 572 248 567 q 239 583 239 578 q 236 597 239 583 q 231 593 233 595 q 229 591 229 591 l 229 600 q 221 618 221 606 q 215 619 218 618 q 210 621 212 621 q 196 624 188 611 q 199 652 205 637 q 179 654 184 654 q 172 670 174 663 q 167 686 170 677 l 155 686 q 153 705 161 696 q 161 708 155 708 l 155 714 q 148 735 159 724 q 134 751 136 746 q 134 762 135 757 l 113 762 l 113 765 q 131 768 118 768 q 124 779 126 775 q 122 783 122 783 q 122 785 122 783 q 125 786 122 786 q 112 796 117 791 q 98 808 107 800 q 93 847 102 818 q 79 888 85 880 l 85 893 q 81 897 82 896 q 79 897 79 897 q 87 900 82 900 q 82 915 87 911 q 77 922 77 920 q 85 917 83 922 l 85 933 q 96 933 90 932 q 97 935 96 933 q 102 936 98 936 q 103 935 102 936 q 107 933 104 933 q 115 942 113 939 q 117 945 117 945 q 152 958 139 947 q 182 977 164 968 q 184 987 182 979 q 191 982 184 982 q 205 989 196 986 q 225 994 215 991 q 246 1001 236 997 q 261 1014 256 1006 q 272 1017 264 1017 q 278 1034 272 1023 q 269 1036 269 1034 l 286 1036 q 293 1055 288 1042 q 301 1059 296 1059 q 321 1050 310 1050 q 347 1042 332 1050 l 353 1047 q 375 1048 364 1047 q 403 1050 386 1050 q 404 1051 403 1050 q 407 1053 404 1053 q 454 1044 429 1053 q 449 1053 454 1051 q 461 1050 454 1051 q 475 1047 468 1048 l 481 1053 q 509 1042 488 1042 q 511 1050 509 1047 l 517 1050 q 524 1044 519 1042 q 541 1039 529 1047 q 542 1043 541 1039 q 546 1050 543 1047 q 547 1044 546 1047 q 549 1042 549 1042 q 574 1039 562 1042 q 583 1052 581 1044 q 591 1059 586 1059 q 595 1053 591 1055 l 600 1053 q 611 1047 606 1053 q 608 1039 611 1042 q 623 1039 614 1038 q 640 1029 633 1034 q 671 1025 646 1025 q 667 1023 668 1025 q 665 1022 665 1022 q 711 999 668 1007 q 720 1002 714 1002 l 722 996 q 745 989 742 993 q 762 977 747 985 q 787 971 787 974 q 781 969 785 971 q 777 968 777 968 l 777 962 q 778 960 777 962 q 785 957 779 957 q 807 968 789 961 q 796 950 798 958 q 822 947 804 947 q 811 928 807 940 q 831 920 819 920 q 822 918 825 920 q 817 917 819 917 q 817 903 817 908 q 814 882 817 897 q 839 873 828 879 q 844 857 839 865 q 873 843 850 848 q 873 842 873 843 q 876 840 873 840 q 888 839 878 839 q 886 817 885 828 q 868 798 888 806 q 869 796 868 798 q 873 794 871 794 q 853 786 863 794 q 852 750 853 766 q 850 724 851 734 q 836 722 846 722 q 831 697 836 713 q 817 684 817 688 q 792 679 804 681 q 777 669 779 677 q 778 668 777 669 q 782 667 779 667 q 768 665 770 667 q 765 654 765 663 q 747 637 747 654 q 751 636 747 637 q 760 635 754 635 q 747 632 751 632 q 740 620 746 625 q 729 609 734 614 q 720 598 724 604 q 720 586 717 593 q 700 566 700 581 q 703 534 700 550 l 717 534 q 718 522 720 529 q 730 510 717 515 q 729 506 730 507 q 728 504 728 504 q 745 494 736 496 q 765 475 754 492 l 777 475 l 777 467 l 785 467 q 779 464 785 464 q 798 445 785 453 q 819 421 811 436 q 836 418 828 421 q 853 399 844 401 q 876 379 861 396 q 899 342 884 378 q 904 345 899 345 q 907 322 905 336 q 908 293 908 309 q 905 266 908 279 q 896 244 903 253 l 893 248 q 871 220 876 239 q 882 187 867 201 q 872 182 876 184 q 867 179 868 179 q 871 174 867 174 q 865 162 864 168 q 861 151 867 157 l 836 151 l 836 142 q 825 140 831 142 q 814 139 819 139 q 812 106 814 127 q 802 77 810 85 q 741 47 771 65 q 688 25 711 29 q 676 17 685 21 q 655 9 667 12 q 632 4 643 7 q 614 0 621 1 m 392 163 q 419 167 404 163 q 457 176 435 171 q 449 172 457 176 q 440 165 440 168 q 484 168 443 168 l 484 171 q 521 187 500 172 q 526 183 521 184 q 538 182 532 182 q 541 187 538 187 l 546 187 q 564 196 554 193 q 576 214 574 199 l 586 214 q 591 236 586 227 q 593 232 591 233 q 595 231 595 231 q 606 232 600 231 q 619 233 611 233 q 600 248 612 240 q 608 256 602 256 q 557 310 582 293 q 551 322 551 319 q 559 325 554 325 l 546 325 q 554 334 546 326 q 554 347 547 345 q 532 364 543 364 q 529 375 529 372 q 497 382 515 375 q 497 390 498 383 l 478 390 q 476 392 478 390 q 475 396 475 393 q 460 393 465 396 q 452 380 454 385 q 437 372 449 375 q 401 347 437 354 q 367 328 367 342 l 378 328 q 361 322 368 322 q 363 321 361 322 q 367 319 364 319 q 357 303 358 310 q 347 285 355 296 q 321 262 329 279 l 315 262 q 323 233 315 252 q 296 219 298 225 q 293 193 293 214 l 307 193 l 313 187 l 310 184 q 331 182 319 183 q 353 182 342 182 q 400 168 355 171 q 395 164 397 165 q 392 163 392 163 m 463 692 q 483 703 475 694 q 506 714 492 711 q 509 720 506 717 q 514 729 511 724 q 519 722 514 726 l 519 726 q 532 729 522 729 q 535 743 532 741 q 554 749 539 743 l 554 774 q 568 768 558 774 q 576 771 574 768 l 576 782 l 583 782 q 549 814 583 814 q 559 836 550 827 q 547 840 551 836 q 538 846 543 843 q 464 886 528 875 q 378 897 400 897 q 372 903 378 901 q 355 885 328 903 q 350 882 353 882 q 351 880 350 882 q 355 879 353 879 q 353 873 353 876 q 358 864 355 871 q 367 857 361 857 q 361 854 364 857 q 375 851 367 854 q 370 846 370 851 q 380 825 370 836 q 395 819 389 825 q 403 822 400 819 q 406 790 406 803 q 408 771 407 777 q 410 755 410 765 q 410 732 410 746 q 432 712 418 724 q 463 692 446 700 z "},"9":{"ha":925,"x_min":23,"x_max":902,"o":"m 511 1059 q 515 1058 513 1059 l 524 1059 q 525 1058 525 1059 l 528 1059 q 643 1028 536 1053 q 701 996 679 1017 l 704 1005 l 707 1005 q 720 975 707 989 l 720 974 q 741 972 734 972 l 750 972 q 769 949 762 954 q 789 941 769 943 q 800 929 800 937 q 807 917 807 929 q 829 871 817 917 q 840 842 837 843 q 842 840 842 842 l 840 836 q 845 830 842 836 l 845 823 l 852 823 q 860 788 854 823 q 867 779 867 788 q 875 776 875 779 l 875 770 q 884 730 875 730 q 886 728 886 730 l 886 726 q 883 723 886 723 l 869 723 q 880 705 878 713 l 878 700 q 882 699 880 699 l 882 697 q 875 690 875 692 q 886 675 876 687 q 894 636 887 672 q 888 635 892 635 q 898 613 892 621 l 898 610 l 891 612 l 891 610 q 892 595 892 601 l 891 586 l 899 586 q 902 583 902 585 l 902 582 l 892 576 l 892 567 l 891 551 l 894 552 l 898 552 l 898 551 q 891 536 891 541 l 892 533 q 888 532 890 532 l 888 525 q 875 519 888 521 l 875 518 q 880 486 875 496 q 856 458 856 467 q 860 433 860 450 l 853 350 q 859 347 859 350 q 849 312 849 347 q 842 301 849 304 q 836 263 842 263 l 834 263 l 836 254 q 821 247 827 247 l 821 237 q 852 210 842 228 l 849 209 l 844 209 q 822 202 823 208 q 825 199 825 201 q 814 180 819 199 q 789 148 792 149 q 783 153 783 151 q 762 130 762 140 l 758 130 l 758 129 q 764 126 764 129 q 754 119 764 124 q 750 111 754 111 q 736 126 744 126 q 730 114 734 125 l 715 114 l 715 102 l 704 95 q 688 83 704 89 l 688 79 q 677 60 688 60 q 671 49 673 57 q 661 46 661 49 q 663 35 663 41 l 663 31 q 652 23 663 29 l 652 14 l 629 11 q 628 19 628 13 l 620 19 q 605 28 606 28 q 589 26 595 26 l 586 26 q 583 30 583 26 l 582 30 q 538 15 548 30 l 503 3 q 499 4 500 4 q 495 3 496 3 q 491 4 492 4 l 487 4 l 487 5 l 483 5 l 479 3 q 425 16 444 9 q 391 7 409 7 l 384 7 q 290 41 339 7 q 283 43 290 43 l 266 43 l 263 42 q 172 60 263 54 q 159 73 163 73 q 153 79 155 73 q 137 91 140 79 q 106 102 106 98 l 109 103 l 115 103 l 115 113 q 125 118 115 115 l 125 121 q 102 130 102 124 l 102 133 q 110 137 102 136 q 94 155 94 151 l 83 202 q 80 205 80 202 l 80 206 q 85 218 85 206 l 85 227 l 79 225 q 73 245 73 239 q 91 256 84 256 l 91 274 q 100 320 91 320 q 134 327 100 324 l 160 327 q 217 315 201 315 q 271 316 267 316 q 355 282 298 316 q 427 270 416 274 q 467 275 441 275 l 468 275 q 522 274 488 275 q 576 307 550 274 q 591 319 576 315 q 609 361 591 331 q 600 384 600 381 q 618 392 618 390 q 608 431 618 406 q 625 467 625 456 l 625 468 q 620 471 620 468 q 625 472 623 472 q 617 484 625 479 l 617 487 q 625 490 625 487 q 621 519 623 519 q 617 522 617 519 q 621 525 617 525 q 598 536 619 529 q 594 530 598 530 l 578 530 q 571 521 571 527 l 567 521 q 562 525 567 524 q 559 511 562 511 q 548 513 549 513 q 538 506 540 513 l 533 490 q 515 492 527 492 l 514 492 q 499 479 514 485 q 490 463 490 472 l 490 453 l 491 446 q 490 445 490 446 q 463 453 471 453 l 463 454 l 464 457 q 456 460 460 457 q 445 454 454 454 q 380 464 418 454 l 380 458 q 326 468 363 465 q 320 471 326 469 q 317 465 320 465 l 316 465 q 309 472 315 465 q 307 464 309 464 l 305 464 l 305 473 q 294 480 294 475 l 293 480 l 286 476 q 243 480 262 480 l 218 480 q 206 471 208 480 l 202 471 l 202 476 l 201 476 q 159 481 165 481 l 156 480 q 137 494 150 480 q 115 500 133 496 q 107 511 115 511 q 92 521 92 511 q 84 530 84 521 l 76 530 q 68 537 71 537 l 68 551 l 61 551 q 43 621 58 553 l 35 621 l 33 623 q 39 650 39 635 q 23 705 39 666 l 23 707 q 27 708 27 707 q 38 747 31 747 l 50 747 q 66 811 50 800 q 77 817 73 817 l 76 826 l 76 827 q 94 849 84 833 l 96 849 l 95 857 q 111 880 105 869 q 119 903 119 880 q 127 941 121 903 q 183 967 167 949 q 203 989 199 989 q 224 991 224 989 q 235 1015 228 1008 l 241 1013 l 251 1013 q 293 1034 251 1019 q 302 1039 293 1035 q 511 1058 402 1039 l 511 1059 m 378 821 q 350 799 369 799 q 328 770 340 799 q 317 751 325 769 q 301 722 302 732 l 302 715 q 296 690 300 708 q 332 678 307 682 q 335 666 335 668 l 336 666 l 336 669 l 338 669 q 342 665 339 669 q 392 688 378 676 q 408 693 392 691 q 445 685 422 692 q 532 707 483 707 q 595 723 586 707 q 600 741 600 737 q 587 772 600 772 q 553 795 580 779 q 544 806 545 806 q 534 802 539 802 q 515 817 525 812 l 505 817 q 503 815 503 817 q 463 833 484 825 q 378 821 382 821 z "},"\u0000":{"ha":0,"x_min":0,"x_max":0,"o":""}," ":{"ha":813,"x_min":0,"x_max":0,"o":""},"!":{"ha":544,"x_min":56,"x_max":497,"o":"m 305 245 q 311 235 311 239 l 320 235 q 324 234 323 235 q 326 233 326 233 q 462 208 402 233 q 465 194 462 202 q 467 180 467 186 q 458 168 459 176 q 454 151 456 160 q 460 149 456 151 q 465 144 465 148 q 451 143 455 144 l 467 143 q 456 140 467 140 l 456 127 q 451 130 454 127 q 442 117 444 122 q 451 108 451 117 l 454 111 q 448 98 454 104 q 442 82 442 92 q 436 74 437 77 q 437 65 435 70 q 439 55 438 60 q 437 45 439 50 q 450 28 446 30 q 439 14 454 26 q 442 14 442 14 q 442 12 442 12 q 430 11 431 12 q 425 9 429 9 q 423 11 425 9 q 419 14 422 14 l 416 12 q 404 14 409 14 q 391 14 397 14 q 374 6 389 6 q 372 12 374 12 q 342 3 351 11 q 317 3 326 6 q 315 9 317 6 q 275 7 300 9 q 226 3 251 6 l 226 -3 q 191 9 219 7 q 180 6 189 6 l 180 12 q 141 3 163 3 q 141 11 141 6 q 132 17 141 14 q 140 20 134 20 q 137 29 138 24 q 134 37 136 33 q 127 41 123 39 q 129 49 132 43 q 104 39 123 49 q 117 52 108 41 q 101 55 109 52 q 106 58 104 58 q 106 90 106 85 q 104 102 106 95 q 109 111 108 103 q 111 128 111 119 q 110 147 111 138 q 109 160 109 155 q 108 162 109 160 q 104 164 106 164 l 109 170 q 80 186 97 184 q 92 189 85 189 q 95 202 95 192 l 87 202 q 106 205 98 205 q 172 218 126 222 q 234 241 218 213 q 274 240 251 245 q 305 235 296 235 q 305 245 304 239 m 235 278 l 153 278 l 153 281 l 138 281 q 135 278 138 278 l 121 278 l 121 281 l 126 281 q 102 283 115 283 q 104 307 102 298 l 98 307 q 96 313 96 309 q 110 316 102 313 q 107 321 107 319 q 113 324 107 324 l 107 324 l 107 333 l 118 333 q 118 338 115 338 q 121 347 121 338 q 122 348 121 347 q 126 349 123 349 q 125 349 126 349 q 123 352 123 349 q 135 355 135 352 l 126 355 l 140 355 l 140 361 q 135 364 140 364 l 143 364 q 126 371 134 371 q 129 376 126 371 q 138 376 132 382 q 143 385 138 379 q 140 391 143 391 q 153 396 143 391 q 150 401 150 399 l 155 401 q 147 404 153 404 q 161 410 161 404 l 155 410 q 164 422 159 420 q 150 431 155 429 q 159 434 150 431 q 161 446 159 442 q 153 450 155 448 q 150 451 150 451 q 145 465 150 459 q 140 477 140 471 l 135 477 q 144 481 143 479 q 150 485 144 482 q 135 492 142 485 q 142 494 140 492 q 150 497 143 497 l 150 506 q 139 517 143 511 q 130 528 135 523 q 144 526 140 526 q 147 531 144 528 q 140 533 143 531 q 138 534 138 534 q 135 531 135 534 q 126 537 126 531 q 132 547 138 544 q 140 557 138 548 l 135 557 q 138 560 135 560 q 129 566 132 564 q 123 570 125 568 q 125 575 123 572 q 126 581 126 578 l 121 586 q 132 597 123 595 q 129 624 132 610 q 130 652 126 638 q 101 673 118 663 q 73 688 83 682 q 78 710 73 703 q 56 713 66 713 q 81 741 69 714 q 93 776 93 768 q 98 784 97 777 q 97 797 98 790 q 94 809 96 803 q 93 817 93 815 q 102 828 102 818 q 104 827 102 828 q 110 825 107 825 q 104 837 110 835 l 107 840 q 99 856 104 846 q 85 874 93 865 q 107 882 93 881 q 110 892 107 888 q 107 895 107 892 q 109 895 107 895 q 110 897 110 895 q 106 901 107 900 q 104 901 104 901 q 115 909 106 907 q 106 970 104 969 q 103 976 103 970 q 95 973 100 973 q 123 1008 106 991 q 120 1010 120 1008 q 120 1012 120 1012 q 125 1020 125 1017 l 112 1020 q 121 1021 120 1020 q 135 1023 123 1023 l 135 1025 l 127 1025 l 127 1036 l 130 1036 q 123 1045 123 1036 q 124 1044 123 1045 q 127 1042 125 1042 q 157 1045 135 1045 l 157 1061 q 169 1055 163 1061 l 172 1061 q 174 1055 174 1061 l 174 1063 l 180 1063 q 182 1078 180 1078 q 189 1066 182 1066 l 189 1072 l 192 1069 q 198 1072 195 1072 q 220 1066 198 1067 q 252 1034 224 1066 q 258 1031 256 1034 q 296 1045 275 1036 q 332 1062 317 1053 l 332 1044 q 354 1052 338 1044 q 378 1062 371 1059 q 414 1059 389 1053 l 431 1059 q 421 1051 427 1055 q 411 1044 416 1047 q 425 1047 420 1047 q 422 1039 428 1044 l 428 1039 q 416 1034 422 1034 q 432 1025 418 1027 l 432 1022 q 440 1025 437 1022 l 446 1019 q 457 1025 452 1025 l 452 1019 l 463 1019 q 461 1015 463 1017 q 460 1010 460 1013 q 468 1007 460 1010 q 460 1002 458 1007 l 449 989 q 468 973 453 988 l 457 962 l 463 962 q 457 955 458 958 q 452 952 454 955 q 454 949 452 952 q 460 940 456 947 q 449 935 453 939 q 454 926 449 932 q 464 928 460 926 q 473 929 468 929 q 454 901 448 916 l 457 901 q 452 899 457 899 q 460 897 453 897 q 454 883 460 886 q 460 869 449 880 q 457 858 457 866 l 468 858 l 468 849 l 473 849 q 468 846 471 846 l 468 840 l 473 840 q 464 812 465 817 q 463 803 463 808 q 473 800 465 800 q 465 790 468 794 q 463 786 463 786 q 467 782 465 783 q 468 781 468 781 q 473 755 458 770 q 479 718 488 741 l 485 718 q 481 717 482 718 q 479 715 479 715 q 482 704 482 713 l 488 710 q 482 680 488 685 q 490 676 485 676 q 485 673 488 676 q 481 655 481 665 q 484 637 482 646 q 486 618 485 627 q 482 600 486 608 q 487 591 485 595 q 490 586 489 587 l 494 586 q 490 571 492 578 q 488 552 488 564 q 497 549 489 552 q 490 547 490 549 q 489 533 490 540 q 497 517 488 526 q 488 498 494 511 q 488 477 482 485 q 468 459 473 477 l 473 454 q 468 436 465 446 q 463 416 471 427 q 463 414 463 416 q 465 413 463 413 l 457 413 q 456 406 457 410 q 454 401 454 401 q 456 400 454 401 q 463 399 457 399 q 450 382 452 385 q 449 367 449 379 q 437 349 444 366 q 443 347 437 347 q 437 286 422 316 q 433 281 435 283 q 432 278 432 278 q 431 281 432 278 q 431 286 431 283 q 411 283 422 283 q 408 278 408 283 q 374 278 392 278 q 354 273 357 278 l 351 278 l 343 278 l 340 275 q 335 278 338 278 q 321 273 325 273 q 300 274 306 275 q 286 273 294 273 q 262 278 267 278 q 243 273 258 278 l 243 275 q 235 273 240 273 l 235 278 z "},"\"":{"ha":815,"x_min":70,"x_max":759,"o":"m 314 543 q 291 559 306 549 q 271 574 275 569 q 249 609 264 597 q 245 627 249 617 q 243 642 241 637 q 227 651 235 642 q 227 671 228 656 q 209 674 214 669 q 218 680 214 674 q 211 717 216 696 q 212 748 206 737 q 179 772 197 765 q 152 788 161 780 q 145 798 153 794 q 130 803 138 801 q 121 805 123 805 q 83 822 102 810 q 76 858 78 842 q 74 887 74 873 q 77 917 74 902 q 83 952 79 932 q 70 962 75 958 q 75 964 73 962 q 73 992 75 979 q 70 1019 70 1006 q 87 1019 71 1010 l 87 1016 q 92 1021 92 1017 q 121 1013 92 1019 q 159 1016 152 1009 l 159 1019 q 184 1036 176 1020 q 185 1030 184 1033 q 186 1027 186 1027 q 197 1030 197 1027 q 202 1026 197 1029 q 215 1021 208 1023 q 230 1020 222 1020 q 241 1025 237 1020 q 242 1023 241 1025 q 246 1021 243 1021 q 250 1029 246 1025 q 257 1038 254 1033 q 259 1034 257 1036 q 260 1033 260 1033 q 286 1031 269 1036 q 326 1030 303 1027 l 326 1025 q 345 1019 332 1021 q 371 1004 357 1016 q 364 971 366 979 q 363 954 363 964 q 355 938 352 944 q 357 919 357 932 q 368 916 366 919 l 368 913 l 357 913 q 356 902 357 907 q 360 890 355 897 q 355 887 355 890 q 363 872 357 882 q 380 854 368 862 q 368 831 378 838 q 371 805 361 827 q 355 785 363 797 q 360 783 360 785 q 355 773 355 779 q 357 772 355 773 q 363 770 360 770 q 366 756 363 759 q 353 751 355 756 q 349 745 352 745 q 366 726 357 744 q 361 724 363 726 q 360 723 360 723 q 366 719 363 720 q 371 716 368 718 q 363 713 368 713 q 359 708 360 711 q 357 705 357 705 l 377 705 q 374 703 377 705 q 366 699 371 702 q 367 695 366 696 q 368 694 368 694 q 363 692 366 694 q 360 691 360 691 l 360 686 l 374 686 l 374 683 l 366 683 q 357 663 363 671 q 349 640 352 654 q 352 638 349 640 q 357 637 355 637 q 349 617 351 630 q 352 612 349 614 q 347 602 348 608 l 338 602 l 338 585 l 343 585 q 333 569 340 577 q 332 552 326 560 q 314 543 328 548 m 637 544 q 619 560 628 557 q 602 565 610 563 q 577 596 591 581 q 559 621 563 612 q 556 646 557 637 q 553 661 555 656 q 536 661 542 662 q 539 667 536 667 q 545 669 539 669 q 542 675 545 673 q 551 703 551 687 q 530 709 534 709 q 520 728 526 709 q 511 725 514 728 l 511 740 q 505 739 506 740 q 505 737 505 737 q 505 739 505 737 q 506 744 505 740 q 485 771 488 753 q 477 798 482 789 q 466 789 473 797 q 469 797 466 792 q 474 808 471 802 l 469 808 q 471 821 469 818 q 441 863 439 843 q 434 912 442 884 q 425 915 431 915 q 431 926 431 921 q 434 941 431 930 q 429 942 431 941 q 428 943 428 943 q 432 961 428 949 q 440 982 435 972 q 451 1000 445 991 q 463 1011 457 1009 q 485 1011 466 1008 q 488 1020 485 1017 l 491 1020 q 494 1026 491 1021 q 499 1038 496 1031 q 502 1025 502 1034 q 524 1039 517 1034 q 539 1050 531 1044 l 542 1044 q 526 1034 534 1044 q 531 1024 526 1020 q 551 1027 536 1027 q 552 1021 551 1025 q 553 1017 553 1017 l 595 1017 q 637 1027 628 1017 l 642 1021 l 645 1025 l 645 1020 l 653 1020 l 653 1027 l 659 1027 l 659 1017 q 685 1021 678 1017 q 699 1014 689 1021 q 718 1037 709 1025 q 735 1062 727 1048 l 739 1062 q 742 1072 739 1068 q 747 1062 742 1068 q 739 1050 746 1058 q 739 1048 739 1050 q 742 1047 739 1047 q 739 1034 739 1038 q 745 1034 745 1036 q 736 1020 738 1025 q 745 1019 739 1020 q 759 1017 751 1017 q 742 990 751 998 q 724 966 732 983 l 727 963 q 722 957 722 962 q 721 949 727 957 q 715 937 715 941 q 715 918 717 924 l 722 918 q 727 909 722 910 q 717 892 718 905 q 710 869 715 879 q 715 866 713 869 q 711 864 713 866 q 710 863 710 863 q 715 857 710 857 q 705 848 709 849 q 707 831 707 838 q 706 834 707 831 q 705 842 705 838 q 695 816 696 824 q 694 786 694 808 q 683 763 688 773 q 685 744 678 753 q 675 737 680 744 q 675 714 675 725 q 670 692 675 703 l 678 692 l 678 680 q 670 645 670 669 l 675 645 q 673 638 673 642 q 675 629 673 632 q 673 627 673 629 q 678 605 673 627 q 679 607 678 605 q 681 604 680 608 q 677 591 682 599 q 673 574 673 584 q 667 575 670 574 q 665 577 665 577 q 663 572 665 574 q 661 571 661 571 q 667 568 665 571 q 640 554 656 554 q 637 544 640 548 z "},"#":{"ha":1017,"x_min":73,"x_max":955,"o":"m 312 -4 q 305 3 309 1 q 298 7 301 5 q 294 12 296 8 q 293 24 292 16 q 279 36 287 25 q 281 48 287 39 q 275 64 275 58 l 279 66 q 277 88 279 75 q 273 111 275 100 q 271 133 271 122 q 279 147 272 143 q 255 163 276 167 q 227 159 236 159 q 170 174 195 161 q 119 189 144 186 q 122 197 122 192 q 98 197 101 199 q 84 180 96 195 q 79 183 81 183 q 81 200 80 191 q 81 224 81 210 q 83 225 81 224 q 84 229 84 227 q 77 231 79 229 q 73 235 76 232 q 87 252 75 245 q 84 307 87 275 q 98 360 81 338 l 96 363 q 119 368 104 363 q 130 378 119 371 q 130 371 129 372 q 176 383 157 383 q 173 375 173 380 q 195 378 182 378 l 201 372 l 201 375 q 204 374 201 375 q 210 372 207 372 q 222 380 215 378 q 242 375 223 368 l 242 371 q 255 372 251 371 q 266 375 259 372 q 269 371 269 372 l 280 371 q 277 389 280 375 l 271 389 q 279 407 280 397 q 283 425 277 417 q 274 431 277 431 l 280 432 q 286 457 280 452 q 286 468 277 460 q 287 494 286 479 q 291 528 288 509 q 288 546 288 536 q 283 549 283 546 l 283 554 l 286 554 q 288 587 280 572 q 281 616 286 604 q 277 639 277 628 q 252 637 260 637 q 239 636 243 636 q 233 636 235 636 q 229 636 231 636 q 194 640 227 653 q 144 631 162 628 q 115 637 127 639 q 101 644 102 636 l 96 644 l 96 659 q 87 663 89 663 q 96 665 90 665 q 93 673 93 668 q 94 675 93 673 q 98 677 96 677 l 98 682 q 89 688 90 682 q 87 696 87 693 q 96 716 98 704 q 87 733 93 728 q 76 764 87 746 q 84 767 79 767 q 79 779 84 775 q 79 796 80 785 q 93 807 81 796 q 111 808 100 807 q 136 812 122 810 q 136 814 136 812 q 138 815 136 815 l 155 815 q 158 818 155 818 q 179 824 169 818 q 182 815 182 821 q 207 818 195 818 q 230 832 218 818 q 250 842 236 832 q 275 878 286 842 q 267 875 267 875 q 276 920 273 882 q 278 949 277 938 q 279 964 279 960 q 269 984 275 967 q 260 1006 264 1000 q 250 1008 252 1006 q 252 1009 250 1008 q 258 1010 255 1010 l 258 1027 q 271 1031 267 1027 q 284 1035 276 1035 l 287 1032 q 302 1031 292 1032 q 325 1029 312 1031 q 351 1027 338 1028 q 372 1024 363 1025 q 412 1035 393 1024 q 434 1027 412 1032 q 458 1013 458 1019 l 455 1010 l 455 1008 q 448 991 448 998 l 450 989 q 446 986 447 986 q 452 975 446 982 q 452 961 448 967 l 477 961 l 477 958 q 452 956 463 958 q 455 953 455 956 q 454 945 455 949 q 452 938 452 941 l 458 938 q 452 904 443 911 q 450 893 452 901 q 451 892 450 893 q 455 889 452 892 l 452 886 q 458 884 455 886 l 452 878 q 454 876 452 878 q 458 875 455 875 q 455 867 455 872 q 473 871 463 867 q 494 872 483 875 q 512 869 497 880 q 526 875 517 875 l 526 869 q 537 872 529 872 l 537 867 q 566 861 548 867 q 581 856 576 856 l 581 850 q 590 860 586 853 q 600 869 594 867 l 597 869 q 605 872 600 872 q 604 892 605 881 q 602 913 602 904 q 597 916 600 913 q 601 941 602 921 q 600 970 600 961 q 604 987 602 981 q 606 999 605 993 q 609 1010 608 1004 q 614 1027 611 1015 q 625 1034 622 1032 q 634 1040 629 1035 q 640 1032 634 1032 q 648 1038 643 1032 q 679 1035 662 1032 q 680 1038 679 1035 q 682 1043 682 1040 q 694 1035 683 1029 q 716 1046 705 1040 q 722 1043 716 1043 l 722 1048 q 734 1044 733 1046 q 751 1055 736 1043 l 751 1048 q 752 1046 751 1046 q 754 1046 754 1046 l 757 1048 q 771 1046 764 1047 q 787 1043 779 1044 q 790 1027 787 1029 q 776 981 768 1000 q 785 978 779 978 q 783 963 781 970 q 776 949 785 956 q 774 936 776 941 q 781 924 773 932 q 779 886 770 913 q 795 881 786 886 l 795 878 q 819 868 805 872 q 850 869 833 864 l 862 869 l 865 872 q 887 867 867 868 q 890 859 887 861 q 909 860 901 859 q 930 861 916 861 q 933 853 933 859 q 949 850 941 853 q 941 814 949 835 q 955 779 933 793 l 947 779 q 943 774 944 778 q 941 770 941 770 q 944 768 941 770 q 949 767 947 767 q 941 764 947 764 q 955 733 941 751 q 936 723 941 728 q 922 713 930 718 q 879 714 901 713 q 838 715 857 715 q 834 719 836 718 q 833 720 833 720 q 800 718 808 720 q 785 696 793 715 l 787 693 q 795 696 795 696 q 789 692 790 693 q 779 688 787 690 l 779 682 q 773 677 773 682 l 781 677 l 779 673 q 785 665 779 671 q 781 663 781 665 q 777 664 779 663 q 776 665 776 665 q 774 662 776 663 q 773 661 773 661 q 776 659 773 659 q 770 656 773 656 q 774 647 773 650 q 776 644 776 644 l 773 642 q 779 633 773 639 q 770 631 773 633 l 776 631 q 770 627 773 628 q 768 625 768 625 l 779 625 q 773 620 779 621 q 774 618 773 620 q 779 616 776 616 q 776 615 776 616 q 776 614 776 614 q 783 612 779 614 q 793 611 787 611 l 793 608 l 785 608 q 790 600 787 604 q 797 593 793 596 q 794 592 795 593 q 793 591 793 591 q 795 585 793 587 q 779 536 769 571 q 785 534 781 536 q 776 519 776 530 q 776 500 776 509 q 760 465 765 493 l 762 465 q 757 431 757 456 q 757 429 757 431 q 760 428 757 428 q 752 400 748 420 q 760 366 757 380 q 761 364 760 366 q 765 363 762 363 q 765 357 762 360 q 768 366 768 360 l 770 363 q 810 372 776 372 q 819 380 810 380 q 852 372 827 360 q 855 378 852 375 q 874 380 865 371 q 899 389 884 389 l 887 378 q 909 392 900 379 q 916 395 912 395 l 916 366 l 922 360 q 916 335 920 339 q 928 318 926 322 q 923 321 924 318 q 922 323 922 323 q 916 309 916 314 q 919 310 916 309 q 924 311 922 311 q 916 295 919 303 q 919 275 912 286 q 916 264 918 268 q 913 257 915 260 q 912 249 913 248 l 909 249 q 911 239 909 243 q 912 232 912 235 l 907 232 q 901 201 901 217 q 892 199 895 201 l 892 207 q 859 210 884 210 l 859 199 q 857 204 857 201 l 844 204 l 844 201 q 831 201 838 204 q 822 199 825 199 q 825 195 822 197 q 814 192 817 195 q 808 201 810 197 q 808 189 805 197 l 802 189 l 802 197 q 800 192 800 195 l 787 192 q 779 197 786 197 l 773 192 q 779 189 776 189 q 773 185 776 186 q 770 183 770 183 q 776 180 773 183 q 772 175 773 178 q 770 172 770 172 q 772 171 770 172 q 776 170 773 170 l 770 164 q 772 145 773 156 q 770 127 770 135 q 773 115 765 127 q 768 85 761 103 q 757 78 761 82 q 760 73 760 75 q 755 71 757 73 q 754 70 754 70 q 760 39 760 47 q 751 43 754 42 q 748 45 748 45 q 744 43 745 45 q 743 42 743 42 l 743 33 q 701 26 719 33 q 665 21 683 18 q 659 18 659 21 q 601 28 642 33 q 545 31 561 24 q 555 57 554 39 q 559 85 557 75 q 562 92 561 87 q 565 102 564 96 l 562 104 l 565 107 q 566 140 554 132 q 565 159 566 153 q 568 170 569 161 q 566 183 566 178 q 534 189 555 183 l 534 183 q 526 186 532 180 q 500 175 505 170 l 491 167 q 490 168 491 167 q 488 172 488 170 q 476 163 477 167 q 467 156 475 159 q 460 164 460 156 l 452 164 q 448 153 452 159 q 448 131 452 142 q 450 110 443 121 q 449 106 450 107 q 448 104 448 104 q 455 96 448 96 q 447 80 446 87 q 443 64 448 73 q 446 58 443 61 q 443 53 443 58 l 448 47 q 444 46 446 47 q 443 45 443 45 q 446 33 446 33 q 447 31 446 31 q 448 31 448 31 q 443 28 448 28 q 441 22 443 25 q 440 18 440 18 q 429 17 434 18 q 420 16 423 16 q 419 10 420 13 q 418 7 418 7 q 391 1 397 1 l 389 -1 q 347 0 382 4 q 312 -4 315 -4 m 594 374 q 600 401 594 386 q 598 424 597 408 q 600 441 600 439 q 591 452 591 446 q 594 451 591 452 q 602 450 597 450 q 602 484 594 474 q 598 485 600 484 q 597 486 597 486 q 600 485 597 486 q 605 488 602 484 q 597 518 605 503 q 602 520 600 518 l 600 520 l 602 525 q 597 542 597 534 q 597 562 614 555 q 602 574 597 572 q 600 606 591 588 q 595 608 597 606 q 594 609 594 609 q 586 630 595 623 q 594 637 591 631 q 586 642 590 638 q 589 655 595 648 q 590 657 589 655 q 591 662 591 660 q 581 662 583 660 q 586 676 586 663 l 583 671 l 577 676 q 551 669 565 667 q 526 665 537 671 q 522 666 524 665 q 520 667 520 667 q 503 662 511 662 l 503 655 q 491 650 497 655 q 488 655 488 652 q 469 650 473 654 q 469 627 469 637 q 467 609 468 617 q 472 604 467 604 l 463 596 q 467 586 463 593 l 469 584 q 467 578 469 578 l 475 578 q 467 542 469 557 q 468 541 467 542 q 472 539 469 539 q 467 535 467 539 q 469 525 467 527 q 483 527 475 525 q 452 486 460 512 q 460 484 458 486 l 452 484 q 449 459 455 476 q 443 435 443 441 l 448 435 q 433 401 431 411 q 472 380 434 391 q 483 391 476 382 q 508 380 484 387 q 509 388 509 382 q 517 384 512 388 l 526 391 q 550 382 532 384 q 586 374 569 380 l 594 374 z "},"$":{"ha":922,"x_min":35,"x_max":918,"o":"m 643 1260 q 650 1258 645 1260 l 663 1260 q 691 1225 677 1260 l 697 1225 l 702 1227 l 704 1223 l 704 1221 q 658 1080 704 1188 q 645 1064 655 1080 q 671 1038 645 1057 l 682 1040 l 686 1040 q 734 988 711 1008 l 736 972 q 732 960 732 966 l 732 958 q 756 916 732 938 q 765 901 756 910 q 763 894 763 897 q 795 868 763 890 q 810 825 795 842 l 810 822 l 806 816 q 815 802 806 814 q 769 779 796 779 l 741 779 q 700 774 736 779 l 695 774 q 675 763 695 768 l 675 761 l 665 763 l 658 763 q 647 774 658 774 q 636 761 644 774 l 593 761 q 571 755 582 761 q 562 757 566 755 l 528 752 q 486 757 503 757 l 427 735 q 422 724 422 728 l 410 724 q 403 707 403 713 q 414 696 414 707 l 422 696 l 429 700 l 431 700 q 440 680 431 691 q 449 656 440 669 l 449 654 l 467 654 l 467 650 q 455 648 459 650 q 469 637 456 637 l 484 639 q 475 628 484 637 q 558 602 526 615 q 560 604 558 604 q 584 595 560 595 q 589 602 584 602 q 612 593 602 602 l 614 593 q 621 600 614 600 q 639 585 631 596 l 643 587 l 647 587 q 652 580 647 580 l 656 580 q 675 589 666 589 l 675 587 q 671 576 671 580 l 675 576 l 682 580 l 686 578 l 691 587 q 711 558 711 587 q 715 547 715 558 l 719 549 l 724 549 l 752 543 l 758 543 q 798 526 758 529 l 813 508 l 817 511 l 822 511 q 852 491 835 491 q 878 469 874 482 l 876 465 q 900 434 884 434 q 911 419 907 419 q 918 395 918 402 q 900 308 907 308 q 867 238 867 277 q 863 233 863 237 l 867 227 l 867 222 q 833 186 853 222 l 828 186 l 828 183 l 833 177 q 806 129 833 153 q 800 131 802 131 q 711 59 753 85 l 706 59 l 700 64 q 688 50 691 50 l 682 50 q 636 35 656 50 q 555 11 575 20 q 551 9 555 9 l 547 11 l 543 9 l 538 11 q 523 3 535 11 q 516 7 517 7 q 494 -6 500 0 l 473 -4 q 412 -22 433 -4 q 406 -24 410 -22 l 388 -20 q 381 -26 388 -22 q 383 -28 381 -28 q 366 -54 383 -54 l 361 -61 l 366 -67 l 366 -70 q 357 -94 357 -81 q 361 -106 361 -100 l 361 -109 q 357 -124 361 -124 l 359 -128 l 359 -133 q 345 -153 359 -145 q 347 -159 347 -157 q 252 -172 337 -168 q 248 -163 248 -167 l 246 -163 q 241 -170 246 -170 q 239 -168 239 -170 l 227 -174 q 222 -170 227 -170 l 189 -170 q 153 -157 182 -161 q 128 -146 153 -153 l 128 -142 q 137 -89 137 -116 q 135 -76 137 -87 q 146 -58 146 -71 q 137 -47 142 -49 q 142 -33 142 -39 l 135 -22 l 135 -6 q 139 -2 136 -2 q 146 -4 144 -4 q 165 26 165 3 q 163 33 163 31 q 183 48 180 42 q 146 122 166 48 q 126 129 126 122 q 109 153 109 149 q 69 170 109 161 q 58 210 64 176 q 47 227 47 210 l 47 244 q 52 255 48 255 l 50 260 l 54 267 l 50 267 l 50 271 l 54 271 q 50 283 50 279 q 58 299 56 283 q 104 316 88 313 l 109 316 l 115 312 q 124 316 121 316 l 128 314 q 135 316 132 316 l 144 314 l 157 316 q 207 303 157 309 l 224 303 q 233 314 229 304 l 244 312 l 246 312 l 252 316 q 261 308 256 316 q 279 312 269 312 l 283 299 l 294 299 q 298 292 294 292 q 336 308 313 295 q 355 294 344 294 q 361 297 359 297 q 363 294 361 294 q 372 303 363 298 l 375 303 l 375 286 l 406 294 l 408 290 q 406 288 406 290 l 408 288 q 436 297 414 288 l 436 294 q 429 279 436 290 q 442 275 436 275 l 449 279 l 471 279 l 477 275 q 499 290 497 275 l 514 290 q 530 299 514 298 q 547 319 530 312 l 566 349 q 530 366 530 359 q 534 371 534 366 q 486 384 524 384 q 481 380 486 380 q 467 397 467 384 q 438 393 458 397 l 438 395 l 447 406 l 440 410 l 436 410 l 431 408 l 429 412 q 431 419 431 416 l 410 419 l 410 438 q 388 456 410 440 l 379 450 q 370 458 379 453 l 366 458 q 359 445 363 445 q 316 480 336 480 q 302 473 313 473 l 290 473 q 235 500 262 498 l 235 504 l 237 508 q 183 538 191 508 l 183 545 q 163 565 168 545 l 150 565 q 146 569 146 565 l 148 574 q 124 583 124 574 q 100 637 100 617 q 89 661 92 637 l 89 665 q 76 691 83 665 q 35 711 64 701 l 35 713 q 39 746 39 741 q 35 750 35 746 l 35 752 q 43 777 41 760 q 61 811 61 777 q 76 825 71 825 l 74 829 l 85 844 l 83 848 q 111 918 92 858 l 113 918 l 111 922 q 135 931 111 926 q 153 972 153 951 l 163 972 q 185 979 185 972 q 191 988 185 988 q 209 985 199 985 l 209 988 l 214 985 q 288 1019 280 1019 q 322 1055 300 1019 l 347 1073 l 347 1075 q 345 1082 345 1079 l 349 1084 l 355 1080 q 363 1084 360 1084 l 361 1088 q 366 1093 362 1093 l 370 1093 q 377 1082 375 1093 l 379 1082 l 392 1090 l 403 1090 q 440 1101 428 1090 l 444 1095 l 442 1090 l 447 1088 q 462 1114 450 1114 l 462 1162 q 486 1206 462 1178 q 484 1223 486 1208 l 492 1227 l 503 1225 l 523 1227 l 523 1245 q 528 1249 524 1249 l 534 1249 q 604 1245 559 1249 q 619 1256 610 1256 l 627 1254 q 643 1260 639 1260 z "},"%":{"ha":1017,"x_min":64,"x_max":951,"o":"m 121 3 q 119 11 119 5 q 104 13 112 12 q 90 14 96 14 l 90 20 q 64 29 71 22 q 81 61 73 35 q 90 97 90 87 q 99 100 88 97 l 99 106 l 104 111 q 102 119 103 117 q 99 125 100 122 q 104 145 107 136 q 104 165 102 154 q 132 174 127 168 q 138 191 132 180 q 142 195 141 187 q 144 203 144 203 q 141 204 141 203 l 141 205 q 162 215 153 207 q 180 233 172 222 q 195 254 188 243 q 210 273 202 265 l 210 279 q 221 289 213 279 q 230 301 230 298 l 235 301 q 239 311 235 307 q 246 322 243 315 q 243 325 243 322 q 248 339 252 328 q 243 353 243 350 q 270 370 263 353 q 290 376 269 370 q 281 387 281 385 q 290 385 287 387 q 287 401 290 393 q 284 415 284 410 q 302 425 295 418 q 326 439 309 432 l 326 447 q 320 449 323 447 q 317 450 317 450 q 341 475 332 450 q 335 478 338 475 l 341 478 l 341 486 q 335 490 338 488 q 330 496 332 493 q 344 519 341 507 q 349 549 347 532 l 355 549 l 355 553 q 369 552 361 553 q 384 550 377 551 q 389 564 389 555 l 395 564 q 412 612 395 597 l 412 635 q 384 635 392 637 q 417 654 398 648 q 422 665 422 656 q 434 675 434 665 q 429 681 429 676 q 431 682 429 681 q 439 684 434 684 l 439 689 q 444 684 439 684 q 445 688 444 686 q 446 692 446 689 q 441 697 441 693 q 454 711 454 697 q 481 733 474 711 q 488 771 488 754 q 497 781 488 779 q 506 789 506 782 q 511 791 509 791 q 513 796 511 791 q 515 803 515 800 l 520 803 q 526 825 520 815 q 545 833 536 832 l 545 840 l 539 840 l 536 846 q 560 846 556 848 q 562 848 560 846 q 563 854 563 851 q 562 860 563 857 q 560 868 560 863 q 563 869 560 868 q 568 871 566 871 q 574 895 568 879 q 588 908 580 911 q 590 963 588 935 q 572 1007 592 991 q 573 1008 572 1007 q 577 1010 574 1010 q 573 1013 574 1013 q 572 1014 572 1014 l 577 1014 q 576 1019 577 1017 q 574 1025 574 1022 q 580 1019 574 1019 l 585 1025 q 588 1019 585 1022 l 596 1019 l 593 1022 q 610 1023 602 1022 q 625 1025 617 1025 q 640 1031 625 1031 q 633 1038 637 1034 q 625 1047 630 1042 q 656 1034 640 1034 l 656 1042 q 673 1036 662 1036 l 674 1039 q 716 1036 688 1036 l 716 1031 q 724 1042 718 1039 q 729 1029 727 1025 q 748 1042 731 1034 q 781 1047 771 1034 q 801 1046 796 1050 q 824 1059 805 1042 q 837 1053 827 1050 q 853 1053 846 1055 l 853 1050 q 874 1051 862 1047 q 901 1042 886 1055 q 907 1038 903 1039 q 919 1036 910 1036 l 919 1025 q 930 1017 923 1025 l 943 1017 l 946 1022 q 935 974 943 996 q 901 945 927 953 q 898 939 898 942 l 890 939 q 884 925 884 933 q 877 926 878 925 q 873 930 876 928 q 865 920 870 925 q 839 872 859 896 q 802 836 819 848 q 793 812 796 821 q 788 800 789 803 q 762 786 787 794 q 756 781 759 783 q 751 777 753 778 q 731 746 739 754 q 730 726 731 726 q 727 728 727 726 l 727 729 q 714 715 722 722 q 716 697 707 708 q 705 700 713 700 q 694 652 696 684 l 696 652 q 694 635 688 644 q 690 633 691 635 q 688 632 688 632 q 685 631 685 632 l 685 629 l 677 621 l 677 615 q 667 615 673 616 q 670 600 665 607 l 659 600 q 645 575 642 583 q 637 571 640 572 q 634 570 634 570 q 628 532 648 543 q 631 524 631 529 l 620 524 q 617 518 617 521 l 614 521 q 613 510 613 518 q 617 501 613 507 q 585 472 610 482 q 565 444 580 456 q 543 424 551 432 q 544 419 543 421 q 545 418 545 418 l 543 418 q 523 376 536 395 l 523 375 q 500 353 515 361 q 477 334 486 345 q 485 322 482 326 q 486 319 487 318 l 471 319 q 469 307 469 311 l 458 307 l 458 293 q 433 286 441 290 q 417 277 425 282 l 417 268 q 409 265 412 268 q 404 248 404 256 q 387 235 389 239 q 380 214 384 231 q 369 203 376 205 q 370 199 369 201 q 372 196 372 196 q 365 192 369 193 q 360 191 360 191 q 361 178 360 184 q 363 163 363 171 q 354 155 359 158 q 344 149 349 151 l 344 142 q 340 139 341 139 l 338 139 q 341 125 338 139 q 319 118 330 125 q 317 103 309 111 q 304 90 306 92 q 303 71 303 87 q 309 68 303 68 q 295 40 295 54 q 296 37 295 37 l 298 37 q 285 27 290 32 q 275 22 281 22 l 275 14 q 266 3 252 5 q 271 3 271 1 q 263 8 270 5 q 221 5 241 8 q 181 3 201 3 q 178 14 181 3 l 176 14 q 173 3 173 11 q 170 8 170 5 q 160 3 164 5 q 153 0 156 0 l 153 5 q 121 3 124 5 m 226 684 q 210 689 220 689 q 169 704 188 699 q 132 722 149 710 q 131 720 132 720 q 131 729 130 724 q 123 732 124 730 q 123 736 123 734 q 117 734 120 734 q 116 734 116 734 q 117 736 116 734 q 119 739 117 737 q 104 753 109 751 q 103 760 107 755 l 102 760 q 95 777 102 770 q 92 789 95 781 l 95 791 q 85 802 88 794 q 83 811 83 810 l 85 811 q 85 821 85 815 q 84 833 84 827 q 78 843 73 840 q 75 848 75 843 l 73 856 q 75 865 75 864 q 78 876 75 868 q 80 877 78 876 q 84 878 83 878 q 90 885 87 884 l 90 889 l 88 890 q 91 896 91 893 l 88 896 q 89 899 88 897 q 90 901 90 900 q 92 904 90 901 l 92 907 l 90 907 q 91 914 91 911 q 95 911 92 914 l 95 924 l 100 924 l 100 929 q 105 930 103 929 q 109 932 107 932 l 109 936 l 115 936 q 117 942 117 939 l 115 942 q 117 945 116 943 q 119 947 117 946 q 117 954 117 950 l 115 954 l 115 956 q 123 954 119 956 q 125 972 123 964 q 128 972 125 972 q 132 971 131 971 q 136 979 132 974 q 138 986 140 983 q 151 990 146 991 l 151 991 l 151 993 l 155 993 q 170 1003 163 1002 l 170 1007 q 184 1015 178 1007 q 193 1026 191 1022 q 196 1025 193 1026 q 203 1025 199 1025 l 203 1032 l 214 1032 l 226 1032 q 234 1039 226 1039 q 238 1035 234 1035 q 238 1044 239 1040 q 245 1043 243 1047 q 245 1046 245 1044 q 246 1048 246 1047 q 254 1052 250 1050 q 264 1050 258 1054 l 266 1050 l 277 1050 l 277 1048 q 277 1048 277 1048 q 279 1047 278 1047 l 279 1050 l 284 1047 l 286 1048 q 294 1046 290 1044 q 306 1044 299 1048 q 309 1047 306 1047 l 319 1047 l 334 1047 q 336 1048 334 1048 q 345 1044 338 1046 q 360 1032 357 1047 q 385 1017 367 1021 l 385 1007 q 388 1004 387 1006 q 392 999 389 1002 l 392 997 q 405 991 392 996 q 409 981 405 989 q 420 971 413 972 l 420 962 l 422 961 q 434 945 422 960 q 446 937 441 940 q 454 932 452 933 l 454 926 q 456 926 454 926 q 459 925 458 925 q 453 909 453 921 q 455 901 453 905 q 459 895 458 897 q 463 885 459 885 l 460 884 q 463 868 465 876 q 466 864 465 867 q 470 859 467 861 q 465 856 467 856 q 463 844 462 850 q 448 815 449 844 q 442 778 442 787 l 444 778 q 435 766 444 766 q 434 760 434 766 q 429 749 424 760 q 427 744 429 746 q 425 742 425 742 q 422 745 425 745 l 422 742 q 421 742 422 742 q 417 743 420 742 q 413 729 413 741 q 410 730 412 729 q 408 730 408 730 q 406 722 405 725 q 396 724 399 722 l 393 722 l 396 720 q 389 719 392 720 q 381 718 387 718 l 381 715 q 372 708 376 713 q 366 697 370 699 q 372 696 369 696 q 353 686 357 696 q 331 693 336 684 l 315 693 q 305 694 310 693 q 294 696 300 694 q 286 689 290 689 q 253 689 271 694 q 226 684 235 684 m 272 785 l 272 787 q 273 787 272 787 q 275 787 273 787 q 279 800 275 800 q 292 806 286 800 q 296 803 292 803 q 308 810 301 806 q 321 817 315 814 q 324 831 321 829 q 323 847 321 839 q 328 862 324 856 l 328 864 q 331 871 331 867 q 330 877 330 875 q 328 896 334 888 q 315 906 321 904 q 317 907 315 907 q 315 909 315 909 q 308 922 316 922 q 298 922 304 922 l 292 922 q 233 925 262 939 q 234 924 233 924 q 235 922 235 924 q 231 912 233 922 l 229 912 l 229 912 q 222 900 227 907 q 221 890 218 894 q 225 890 221 890 q 222 877 221 886 q 223 867 227 867 q 222 863 222 866 q 221 856 221 859 l 221 850 q 225 846 221 847 q 223 828 221 840 l 227 828 q 223 821 227 821 q 227 817 223 817 l 227 813 q 229 811 229 811 q 229 812 229 811 q 232 813 230 813 q 230 811 232 811 l 230 809 l 231 809 q 235 804 231 805 q 241 800 239 803 l 241 795 q 243 793 241 793 q 250 795 245 795 l 250 793 l 256 793 q 258 789 258 791 q 262 791 262 791 q 266 789 264 791 l 265 787 q 272 785 267 787 m 723 24 q 688 28 710 29 q 670 26 677 26 q 659 26 663 26 q 661 31 659 29 q 656 32 656 31 q 657 36 659 35 q 650 37 653 36 l 649 39 q 637 43 648 40 q 635 47 635 45 q 631 46 634 46 q 617 50 623 50 l 608 50 q 593 58 599 57 q 580 60 587 58 l 578 58 l 578 57 q 576 61 577 60 q 576 66 576 62 l 573 66 l 572 66 q 574 71 574 69 l 568 71 l 566 71 q 568 74 568 71 q 563 75 566 75 q 559 82 560 79 q 556 86 557 85 q 555 100 564 93 q 544 107 545 107 l 544 114 q 535 115 541 115 q 543 118 536 115 q 538 120 539 119 q 536 121 536 121 l 538 122 q 535 131 535 125 q 530 134 532 131 q 535 135 532 134 q 531 136 532 135 q 528 136 530 136 l 534 136 q 534 138 534 136 q 535 140 535 139 l 532 140 l 534 143 q 523 147 523 150 q 526 155 527 151 q 516 157 522 157 l 516 158 l 523 158 q 522 161 522 160 l 517 161 q 519 163 517 161 q 522 167 520 164 q 515 168 516 167 q 522 170 519 168 l 519 172 q 513 171 517 171 q 516 176 513 171 q 506 178 507 176 q 513 186 513 180 q 522 189 519 186 q 515 191 520 191 q 518 193 516 192 q 523 196 520 193 q 521 197 522 196 q 520 197 520 197 l 522 197 q 524 199 523 197 q 519 200 520 199 q 526 208 520 201 q 531 216 531 214 q 529 217 530 216 q 528 218 528 218 q 531 220 528 220 q 527 229 531 227 q 528 231 527 229 q 530 232 528 232 q 520 236 526 232 q 534 237 530 236 q 536 240 534 237 q 535 241 535 241 q 535 243 535 243 l 535 244 q 527 250 528 244 q 530 251 528 250 q 534 252 531 252 l 531 254 q 536 258 535 258 q 530 264 534 260 l 520 264 q 547 273 536 268 q 547 278 545 277 q 548 283 548 279 q 541 285 543 283 q 547 288 544 288 q 539 300 543 297 q 541 300 539 300 q 545 301 543 301 q 547 306 545 304 q 547 307 547 306 q 549 307 548 307 l 549 309 q 552 313 549 310 q 556 314 553 314 q 564 318 557 315 q 560 319 563 318 q 557 319 557 319 q 562 321 560 319 l 562 326 q 568 328 563 328 l 568 332 q 556 336 557 335 q 555 339 555 336 q 564 336 557 336 q 576 339 573 339 q 578 349 576 346 q 574 353 574 349 q 580 361 574 353 l 580 363 q 580 363 580 363 q 581 366 580 364 q 578 372 574 368 q 585 379 583 376 q 584 382 585 380 q 595 385 587 382 l 592 385 q 602 389 602 386 l 599 390 l 604 390 l 604 395 l 621 395 l 623 397 l 630 397 q 627 400 627 400 q 630 399 628 400 q 634 399 633 399 l 634 397 q 646 403 642 397 q 654 404 649 404 q 654 406 654 404 q 653 410 653 408 q 659 408 657 410 l 662 410 q 657 411 661 411 q 670 414 662 411 q 673 412 670 412 l 673 415 q 681 418 675 415 l 690 418 l 690 414 l 695 414 q 704 414 699 414 q 710 415 709 415 q 710 410 709 411 q 711 414 710 412 q 715 410 713 414 q 724 410 718 407 q 730 412 730 412 q 752 407 734 406 q 766 401 751 407 q 767 407 766 406 q 784 401 771 403 q 810 396 798 399 q 805 395 806 396 q 813 396 805 395 q 823 393 821 397 q 828 392 824 392 q 829 387 828 389 q 838 385 829 385 q 842 379 837 380 q 850 383 846 383 q 847 379 849 380 q 845 375 845 378 q 846 376 846 376 q 849 378 848 376 q 850 375 849 376 q 850 374 850 374 l 857 374 l 857 371 l 852 371 l 852 367 l 869 358 q 884 350 880 353 q 888 347 888 347 l 884 347 q 887 339 888 343 q 886 331 886 335 q 887 322 885 326 q 898 317 890 318 q 902 311 899 314 q 913 307 905 309 l 913 304 q 922 300 927 300 q 927 297 913 297 q 919 296 920 297 q 926 294 919 296 q 917 288 923 294 q 911 283 911 282 q 923 274 914 279 q 943 269 931 269 l 943 265 q 939 264 941 265 q 941 263 939 264 q 945 260 942 262 q 942 254 951 257 q 945 252 945 253 q 946 252 946 252 q 938 227 923 248 l 932 227 q 930 208 932 215 q 927 191 927 200 q 931 179 927 184 q 935 176 931 178 q 929 156 931 168 q 911 136 927 144 q 916 135 914 136 l 911 131 q 917 128 914 129 q 924 127 920 127 l 922 125 l 924 123 q 916 119 922 121 l 931 119 q 919 100 909 114 q 905 90 913 98 q 899 86 916 79 q 895 78 897 83 q 862 64 888 78 q 844 52 850 57 q 834 46 837 47 q 833 40 833 45 q 826 39 829 40 q 819 39 823 39 l 819 37 l 810 37 l 805 37 q 804 35 805 36 q 804 35 804 35 q 762 28 779 31 q 724 26 745 25 q 723 24 723 25 m 717 123 q 738 125 720 125 q 743 130 741 127 l 749 130 q 753 137 749 130 q 759 138 756 137 q 756 145 760 142 l 759 146 q 755 149 755 146 q 764 151 761 150 q 768 151 767 151 q 774 153 772 151 q 777 159 774 159 q 785 161 776 159 q 784 164 784 164 q 783 165 783 165 q 788 166 784 166 q 785 170 788 168 q 791 175 788 171 q 788 178 791 176 l 790 180 q 784 189 790 182 q 786 205 788 195 q 784 221 784 216 q 782 222 783 221 q 781 222 781 222 q 774 235 788 225 q 762 248 762 248 q 760 253 762 253 l 753 253 q 756 259 753 254 q 753 271 748 262 l 748 271 q 745 274 747 273 q 741 276 743 275 q 743 279 741 279 q 719 280 728 279 q 699 281 709 281 q 695 277 698 279 q 690 271 692 275 q 692 271 692 271 l 690 269 q 698 265 691 265 q 693 260 695 262 q 690 256 691 258 l 696 253 q 688 243 696 250 q 683 235 683 235 q 675 225 683 232 q 675 212 665 219 q 672 210 672 212 q 678 209 674 209 l 674 205 q 680 209 678 209 l 680 206 q 678 177 664 195 q 683 178 679 178 l 683 170 q 691 163 684 170 q 684 156 688 161 q 689 150 685 153 q 691 143 692 148 l 695 143 q 698 137 698 140 q 708 132 699 134 q 709 125 708 128 q 715 128 712 128 q 717 123 715 125 z "},"&":{"ha":1017,"x_min":62,"x_max":944,"o":"m 839 1 q 799 6 819 3 q 762 12 779 9 l 762 22 l 757 22 q 742 38 749 33 q 734 52 734 44 l 729 52 l 729 58 l 717 58 q 709 73 715 68 q 694 82 703 79 q 679 87 686 85 q 668 90 672 88 l 668 98 q 648 101 654 96 q 640 109 643 106 q 611 109 623 111 q 583 134 597 132 q 554 138 570 136 q 525 121 546 121 q 492 121 504 121 q 447 101 477 108 l 447 87 q 443 88 444 87 q 441 90 441 90 q 439 81 439 87 q 410 69 435 79 l 410 64 l 404 64 q 372 43 397 48 q 336 27 347 37 q 334 23 336 24 q 333 22 333 22 q 328 20 330 22 q 325 19 325 19 q 324 17 325 19 q 323 12 323 15 q 321 19 321 15 q 260 2 288 15 q 207 -10 233 -10 l 207 -5 q 196 -2 199 -5 q 199 3 196 3 q 179 9 184 3 q 154 19 171 19 q 137 31 147 30 q 127 44 127 33 q 109 60 109 55 q 92 64 92 60 l 97 64 q 79 75 96 65 q 82 76 79 75 q 87 79 85 77 q 79 115 86 90 q 69 129 71 117 q 68 141 68 141 l 71 144 l 65 144 q 64 147 65 144 q 62 153 62 150 l 71 153 q 85 177 71 159 q 86 177 85 177 q 87 180 87 177 l 87 183 l 85 183 l 85 189 q 86 189 85 189 q 90 193 87 190 q 85 203 85 199 l 92 203 q 90 218 90 208 l 94 218 q 90 237 94 230 q 102 243 100 243 l 102 248 q 105 252 102 248 q 111 263 107 256 l 117 263 l 117 275 l 111 275 q 109 280 109 275 q 122 280 117 280 q 139 286 127 280 q 142 294 139 288 q 147 305 144 300 l 154 305 l 154 315 q 184 345 174 317 l 193 345 q 199 362 193 353 q 207 357 203 358 l 207 362 q 216 365 214 362 q 224 376 220 373 q 231 382 228 380 q 237 387 233 385 q 247 397 241 390 q 241 399 244 397 q 250 426 250 408 l 258 426 l 258 429 l 250 429 q 244 465 250 450 q 239 468 244 468 l 239 481 l 236 479 q 239 497 236 488 q 231 495 233 497 q 228 494 228 494 q 233 508 233 504 q 224 518 228 508 q 218 536 220 528 q 216 545 216 544 q 212 547 214 545 q 211 548 211 548 q 208 567 211 553 q 204 600 204 581 l 201 600 q 191 642 201 626 q 196 684 182 659 q 193 703 196 692 q 193 719 190 713 l 187 719 q 182 727 182 719 q 184 729 182 727 q 190 733 187 730 q 179 754 182 744 q 176 774 176 765 q 176 795 176 786 q 174 815 176 805 q 175 817 174 815 q 179 818 176 818 q 176 854 179 830 q 165 883 174 878 q 171 901 171 888 l 182 901 l 182 907 q 190 912 187 912 l 190 918 q 193 919 190 918 q 199 920 196 920 q 204 937 199 930 q 206 939 204 937 q 211 940 208 940 q 214 945 214 943 l 225 945 q 227 949 225 947 q 228 955 228 952 q 229 954 228 955 q 233 952 231 952 q 239 963 233 958 q 247 977 244 969 l 256 977 q 261 994 256 984 q 263 996 261 994 q 271 997 265 997 q 293 1004 271 1005 q 294 1010 293 1006 q 296 1018 296 1015 q 298 1016 296 1018 q 307 1015 301 1015 q 304 1009 304 1012 l 313 1009 l 313 1015 l 321 1015 q 323 1021 323 1015 q 339 1023 330 1022 q 358 1026 349 1025 q 363 1040 358 1030 l 372 1040 q 382 1048 379 1047 q 385 1034 382 1042 l 390 1034 q 393 1042 390 1040 l 393 1034 q 399 1045 399 1040 q 407 1039 403 1042 q 415 1031 411 1036 q 420 1030 420 1031 q 432 1031 420 1029 q 433 1033 432 1031 q 435 1037 435 1034 q 475 1021 441 1005 l 475 1012 q 486 1015 477 1012 q 489 1021 486 1018 q 500 1010 494 1005 q 518 1004 507 1018 q 528 1003 524 1004 q 541 1002 532 1002 q 541 1000 541 1002 q 543 997 541 997 q 551 994 549 997 q 555 997 554 997 q 569 992 559 993 q 591 993 579 991 q 614 996 603 994 q 635 1000 626 998 q 629 998 632 1000 q 626 997 626 997 q 628 993 626 997 q 632 980 629 989 l 654 958 q 663 961 657 961 q 664 955 663 958 q 665 952 665 952 q 675 964 672 964 q 675 945 673 949 q 682 934 683 945 q 686 909 680 923 q 694 904 686 904 q 693 897 694 901 q 692 890 692 892 q 705 895 696 890 l 705 838 l 700 838 l 700 830 l 694 830 l 694 829 q 689 826 692 826 q 690 816 689 821 q 692 809 692 812 l 697 809 l 697 801 q 692 797 694 798 q 689 795 689 795 q 683 777 689 787 q 694 761 677 766 q 689 733 694 740 q 694 730 694 733 l 689 730 q 677 689 689 707 q 657 647 665 671 l 648 647 q 647 640 648 644 q 646 635 646 635 q 650 634 646 635 q 660 633 654 633 q 640 627 650 633 q 640 625 640 627 q 643 622 640 622 q 635 613 640 619 q 619 595 629 606 q 611 573 602 576 q 583 530 591 558 l 575 530 q 581 500 576 503 q 576 498 578 500 q 575 497 575 497 l 575 488 q 566 479 568 481 q 578 479 572 477 q 583 458 578 471 q 608 454 589 446 q 616 444 608 446 q 632 429 623 443 l 648 429 q 646 422 648 425 q 660 425 651 422 l 660 429 l 668 429 q 665 431 665 429 q 665 434 665 434 q 677 450 675 443 q 692 462 680 456 q 690 469 692 465 q 689 476 689 473 q 720 500 711 477 q 722 501 720 500 q 729 505 724 503 q 728 513 728 507 q 734 511 730 511 q 757 519 734 513 l 757 524 q 765 530 762 530 l 765 536 q 788 545 774 538 q 819 557 803 551 l 817 562 q 825 565 819 565 q 827 578 825 576 l 839 578 q 846 584 839 581 q 862 587 852 586 q 881 590 871 589 q 896 593 890 591 q 901 585 896 585 q 906 591 904 587 q 911 600 908 594 q 925 602 920 602 q 929 595 928 597 q 930 593 930 593 q 941 590 933 590 q 939 580 939 585 q 939 568 939 576 q 932 564 936 565 q 928 562 928 562 q 922 535 925 548 q 920 511 920 522 q 928 508 925 511 l 933 513 q 936 500 930 501 q 922 497 930 500 l 922 491 q 917 488 920 491 l 917 483 q 918 482 917 483 q 925 481 920 481 q 908 459 915 459 l 908 454 l 903 454 q 889 424 899 443 q 871 399 879 405 q 847 370 860 374 q 817 357 833 365 q 807 340 814 348 q 797 323 800 332 l 791 323 q 789 312 789 320 l 785 312 q 786 283 785 287 l 794 283 q 802 264 797 273 q 814 245 807 255 q 817 247 814 245 q 822 251 819 248 q 825 245 822 250 q 835 234 829 240 q 848 224 842 229 q 863 220 855 220 l 863 215 q 868 216 865 215 q 873 218 871 218 q 875 214 873 215 q 876 212 876 212 l 908 212 q 911 223 908 223 l 911 218 l 917 218 l 917 223 q 918 223 917 223 q 920 226 920 223 q 922 197 922 210 q 930 169 922 186 q 936 166 936 169 q 933 146 930 158 l 936 146 q 933 121 933 138 q 933 87 933 104 l 941 87 q 939 71 940 80 q 939 50 939 62 q 944 47 939 47 l 936 47 q 935 39 936 41 q 933 33 933 36 q 867 9 888 18 q 839 1 846 1 m 432 602 l 432 614 q 441 610 435 610 l 441 619 q 458 643 450 627 q 475 662 467 659 q 486 676 475 665 q 486 719 489 695 l 480 719 l 486 724 q 458 764 488 765 q 456 784 456 772 q 426 798 441 790 q 404 798 410 806 q 380 784 385 791 q 375 784 380 786 q 363 766 365 774 q 363 765 363 766 q 367 764 363 764 q 362 762 363 764 q 361 761 361 761 q 362 758 361 761 q 367 749 363 755 q 358 747 363 747 q 353 727 353 737 q 358 724 355 727 q 353 704 358 711 q 353 684 354 698 l 358 684 q 363 665 363 675 l 372 665 q 371 661 372 662 q 370 659 370 659 q 382 652 376 652 l 375 652 q 388 643 375 647 q 404 638 401 638 q 415 608 408 633 q 427 602 419 608 l 432 602 m 261 189 q 294 187 269 191 q 325 195 321 183 q 329 204 325 195 q 336 212 333 212 q 385 252 370 223 q 431 271 394 252 q 477 297 469 288 q 447 334 461 317 q 407 351 432 351 q 361 290 387 320 q 304 248 336 260 q 280 217 296 231 q 261 189 264 203 z "},"'":{"ha":426,"x_min":66,"x_max":376,"o":"m 310 543 q 287 559 302 549 q 267 574 271 569 q 245 609 260 597 q 241 627 245 617 q 239 642 237 637 q 222 651 231 642 q 222 671 224 656 q 205 674 210 669 q 214 680 210 674 q 207 717 212 696 q 208 748 202 737 q 175 772 193 765 q 148 788 157 780 q 141 798 149 794 q 126 803 134 801 q 117 805 119 805 q 79 822 98 810 q 72 858 74 842 q 70 887 70 873 q 73 917 70 902 q 79 952 75 932 q 66 962 71 958 q 71 964 68 962 q 68 992 71 979 q 66 1019 66 1006 q 83 1019 67 1010 l 83 1016 q 88 1021 88 1017 q 117 1013 88 1019 q 155 1016 148 1009 l 155 1019 q 180 1036 172 1020 q 181 1030 180 1033 q 182 1027 182 1027 q 193 1030 193 1027 q 198 1026 193 1029 q 211 1021 203 1023 q 226 1020 218 1020 q 237 1025 233 1020 q 238 1023 237 1025 q 242 1021 239 1021 q 246 1029 242 1025 q 253 1038 250 1033 q 255 1034 253 1036 q 256 1033 256 1033 q 282 1031 264 1036 q 321 1030 299 1027 l 321 1025 q 341 1019 328 1021 q 367 1004 353 1016 q 360 971 361 979 q 359 954 359 964 q 351 938 348 944 q 353 919 353 932 q 364 916 361 919 l 364 913 l 353 913 q 352 902 353 907 q 356 890 351 897 q 351 887 351 890 q 359 872 353 882 q 376 854 364 862 q 364 831 374 838 q 367 805 357 827 q 351 785 359 797 q 356 783 356 785 q 351 773 351 779 q 353 772 351 773 q 359 770 356 770 q 361 756 359 759 q 349 751 351 756 q 345 745 348 745 q 361 726 353 744 q 357 724 359 726 q 356 723 356 723 q 361 719 359 720 q 367 716 364 718 q 359 713 364 713 q 355 708 356 711 q 353 705 353 705 l 373 705 q 370 703 373 705 q 361 699 367 702 q 363 695 361 696 q 364 694 364 694 q 359 692 361 694 q 356 691 356 691 l 356 686 l 370 686 l 370 683 l 361 683 q 353 663 359 671 q 345 640 348 654 q 348 638 345 640 q 353 637 351 637 q 345 617 347 630 q 348 612 345 614 q 342 602 344 608 l 334 602 l 334 585 l 339 585 q 329 569 336 577 q 328 552 321 560 q 310 543 324 548 z "},"(":{"ha":680,"x_min":59,"x_max":648,"o":"m 466 1187 q 467 1183 466 1185 q 469 1182 469 1182 q 494 1178 486 1182 q 515 1174 503 1174 q 517 1179 517 1177 q 526 1159 520 1165 q 541 1152 532 1153 q 559 1152 549 1150 q 577 1154 569 1153 q 612 1136 593 1139 q 648 1131 631 1133 l 648 1125 q 622 1113 634 1120 q 597 1111 609 1105 q 591 1096 597 1097 q 583 1086 585 1095 q 588 1079 585 1079 q 597 1079 591 1079 q 591 1063 597 1065 q 583 1054 585 1060 q 578 1036 580 1046 q 577 1019 577 1026 q 523 979 562 1018 q 488 935 486 945 q 477 892 480 924 q 475 867 475 876 q 474 852 474 857 l 469 852 q 460 833 463 840 q 458 815 458 827 l 460 812 q 426 768 454 806 q 398 721 398 728 q 386 707 393 721 q 378 693 378 693 q 379 657 381 672 q 374 625 377 642 q 389 599 378 623 q 378 585 385 591 q 362 573 370 579 q 350 562 355 567 q 347 553 345 557 q 345 549 347 550 q 344 547 344 547 l 349 542 q 341 539 344 542 q 338 522 341 530 q 332 517 338 517 q 338 498 332 504 q 351 453 331 482 q 366 431 360 439 q 374 419 372 422 q 363 408 363 422 q 368 405 365 407 q 377 400 372 403 q 381 349 372 357 l 372 349 l 372 343 q 363 300 357 317 l 369 297 q 389 285 366 289 q 417 281 414 281 q 420 268 417 277 q 412 265 417 265 q 417 215 416 237 q 417 172 418 192 q 436 162 425 168 q 463 146 448 155 q 495 125 495 129 q 491 117 500 122 q 500 82 483 110 l 503 85 q 509 71 506 79 q 515 52 512 62 l 526 52 q 545 14 527 29 q 552 -32 563 0 l 566 -32 q 569 -46 557 -40 q 580 -60 580 -52 q 597 -72 597 -71 q 614 -75 597 -75 q 591 -81 605 -81 q 585 -100 583 -89 q 588 -119 588 -111 q 606 -138 602 -125 q 612 -160 609 -151 q 621 -165 617 -163 q 626 -168 625 -167 q 612 -174 629 -165 l 617 -179 q 612 -184 612 -179 q 585 -189 600 -179 q 583 -200 585 -192 q 580 -192 580 -197 q 569 -198 574 -195 q 560 -205 564 -201 q 557 -200 560 -203 q 543 -203 548 -200 q 512 -220 537 -205 q 496 -210 506 -215 q 474 -203 486 -205 q 453 -201 463 -200 q 435 -208 442 -201 l 435 -203 q 426 -211 429 -211 l 426 -200 q 406 -211 417 -200 q 377 -205 395 -211 q 347 -192 374 -195 l 347 -195 l 336 -195 l 336 -187 q 303 -187 317 -186 l 303 -182 l 295 -182 l 295 -171 q 281 -170 287 -171 q 267 -168 275 -168 q 260 -160 267 -167 q 260 -131 266 -146 q 255 -129 258 -131 q 250 -127 252 -127 q 248 -122 250 -125 q 246 -117 246 -119 q 238 -122 238 -117 q 244 -108 238 -117 q 250 -94 250 -100 l 246 -92 l 250 -86 q 248 -78 250 -81 q 246 -75 246 -75 q 235 -72 238 -75 q 246 -57 241 -71 q 238 -46 239 -50 q 241 -37 238 -46 q 222 -18 229 -31 q 224 -3 224 -12 l 219 3 l 219 11 q 203 22 210 11 l 201 22 q 190 38 198 28 q 173 49 181 49 q 178 50 176 49 q 186 52 181 52 q 176 57 181 57 l 176 65 l 168 74 q 159 60 159 71 q 153 89 151 82 q 130 103 156 97 l 130 109 q 124 107 127 109 q 121 106 121 106 q 130 122 121 114 l 127 127 q 128 128 127 127 q 133 129 130 129 l 119 129 q 120 131 119 129 q 124 138 121 134 q 119 135 121 135 q 113 144 119 143 q 102 154 108 146 q 111 161 105 160 q 105 183 105 171 q 96 189 96 183 l 96 208 l 91 208 q 87 227 91 211 q 85 224 87 224 q 84 224 84 224 q 78 247 84 235 q 79 268 73 260 q 72 271 76 268 q 67 275 67 273 q 68 289 67 281 q 70 306 70 297 q 79 335 79 307 q 70 343 70 335 q 70 392 77 359 l 84 406 q 74 415 79 411 q 64 428 70 419 q 79 433 73 428 q 69 458 79 449 q 59 488 59 468 l 70 488 q 73 493 73 490 q 87 511 91 501 q 96 533 84 524 q 92 540 95 536 q 87 547 90 543 q 102 555 94 547 q 105 571 102 564 q 111 587 108 579 q 102 593 102 587 q 108 615 102 600 q 102 621 99 618 l 105 621 l 105 633 q 99 639 105 639 q 105 646 102 642 q 113 656 108 650 q 108 657 111 656 q 105 659 105 659 q 113 663 111 661 q 116 664 116 664 q 113 677 113 667 q 121 707 121 684 q 119 708 121 707 q 116 713 116 710 q 121 715 121 713 q 119 732 115 732 q 124 724 119 724 q 127 737 127 732 q 133 729 133 732 q 138 742 136 733 q 141 763 140 751 q 140 785 142 774 q 133 804 138 796 q 146 817 141 807 q 159 840 151 827 q 153 848 153 846 q 181 852 170 852 q 178 864 178 856 q 203 869 188 864 q 201 886 203 878 q 227 903 206 893 q 226 912 227 908 q 224 924 224 916 q 224 932 224 924 q 222 957 223 940 l 216 957 l 222 962 q 226 983 222 972 q 233 1014 230 994 q 243 1011 241 1011 q 245 1018 243 1014 q 246 1026 246 1022 q 258 1032 252 1026 q 250 1038 252 1038 q 258 1044 264 1038 q 250 1060 252 1051 l 260 1060 q 261 1071 260 1065 q 262 1084 262 1076 q 275 1096 277 1095 q 273 1122 273 1099 q 291 1146 284 1131 q 315 1171 298 1162 q 311 1172 312 1171 q 309 1174 309 1174 q 392 1178 349 1177 q 466 1187 434 1179 z "},")":{"ha":680,"x_min":42,"x_max":631,"o":"m 224 -221 q 222 -217 224 -218 q 221 -215 221 -215 q 196 -211 205 -215 q 176 -207 186 -207 q 173 -212 173 -210 q 163 -192 170 -199 q 149 -184 157 -186 q 131 -184 140 -183 q 113 -187 121 -186 q 78 -170 96 -172 q 42 -164 59 -167 l 42 -158 q 68 -146 56 -153 q 94 -144 81 -139 q 99 -129 94 -131 q 107 -119 104 -127 q 102 -113 104 -113 q 94 -113 99 -113 q 99 -96 94 -98 q 107 -87 104 -93 q 111 -70 110 -79 q 113 -53 113 -60 q 167 -12 128 -52 q 202 32 205 22 q 213 75 210 43 q 215 100 214 90 q 216 114 216 110 l 221 114 q 230 133 227 126 q 233 151 233 140 l 229 154 q 264 199 237 161 q 292 245 292 239 q 304 259 298 245 q 311 273 311 273 q 311 310 309 294 q 315 342 313 325 q 300 368 311 345 q 312 381 304 375 q 328 394 320 387 q 340 405 335 400 q 343 414 345 410 q 345 418 343 416 q 347 419 347 419 l 340 425 q 349 428 347 425 q 352 444 349 436 q 357 450 352 450 q 352 468 357 463 q 339 514 359 485 q 324 536 330 528 q 315 547 319 545 q 327 558 327 545 q 322 562 326 559 q 313 567 319 564 q 309 618 319 610 l 319 618 l 319 624 q 327 667 332 650 l 321 669 q 300 682 324 677 q 273 686 275 686 q 270 699 273 690 q 278 701 273 701 q 273 752 274 729 q 273 794 271 775 q 254 805 266 799 q 227 821 242 811 q 195 842 195 838 q 199 850 189 844 q 189 885 208 857 l 186 882 q 181 896 184 888 q 176 916 178 904 l 164 916 q 145 953 163 937 q 138 999 127 966 l 124 999 q 121 1013 132 1007 q 110 1026 110 1018 q 94 1039 94 1038 q 75 1042 94 1042 q 99 1047 85 1047 q 104 1066 107 1055 q 102 1086 102 1078 q 84 1105 88 1092 q 78 1126 81 1118 q 69 1131 73 1129 q 64 1135 66 1133 q 78 1140 62 1132 l 73 1146 q 78 1152 78 1146 q 104 1156 91 1146 q 107 1166 104 1158 q 110 1158 110 1164 q 121 1164 116 1161 q 130 1173 125 1168 q 132 1166 130 1169 q 148 1170 142 1166 q 178 1186 153 1173 q 194 1177 184 1182 q 216 1170 205 1173 q 237 1167 227 1166 q 254 1175 248 1168 l 254 1169 q 264 1178 262 1178 l 264 1166 q 283 1178 273 1166 q 313 1173 295 1178 q 343 1158 315 1161 l 343 1161 l 355 1161 l 355 1154 q 387 1154 372 1153 l 387 1149 l 395 1149 l 395 1137 q 409 1136 403 1137 q 422 1135 414 1135 q 429 1126 422 1133 q 429 1097 424 1112 q 435 1096 432 1097 q 441 1095 438 1095 q 442 1089 441 1092 q 444 1083 444 1086 q 452 1089 452 1083 q 446 1075 452 1083 q 441 1061 441 1067 l 444 1059 l 441 1053 q 442 1044 441 1047 q 444 1042 444 1042 q 454 1039 452 1042 q 444 1023 449 1038 q 452 1013 450 1017 q 449 1004 452 1013 q 469 985 461 997 q 466 970 466 979 l 471 964 l 471 956 q 486 945 479 956 l 489 945 q 500 928 492 939 q 517 918 509 918 q 511 917 514 918 q 503 916 509 916 q 514 909 509 909 l 514 901 l 523 893 q 531 907 531 896 q 536 878 539 885 q 560 864 534 869 l 560 859 q 566 860 563 859 q 568 861 568 861 q 560 844 568 852 l 563 839 q 562 838 563 839 q 557 838 560 838 l 571 838 q 570 836 571 838 q 566 829 568 833 q 571 832 568 832 q 577 822 571 823 q 588 812 583 821 q 580 806 585 807 q 585 783 585 796 q 593 778 593 783 l 593 758 l 599 758 q 603 741 599 755 q 604 743 603 743 q 606 743 606 743 q 611 719 606 732 q 612 699 617 707 q 618 696 614 699 q 623 692 623 693 q 621 678 623 686 q 620 661 620 669 q 612 632 612 660 q 620 624 620 632 q 620 575 613 607 l 606 561 q 616 551 612 555 q 625 539 620 547 q 612 533 617 539 q 621 508 612 518 q 631 479 631 498 l 620 479 q 617 473 617 476 q 603 456 599 465 q 593 433 606 443 q 597 427 595 431 q 603 419 600 424 q 588 411 596 419 q 585 395 588 403 q 580 379 583 387 q 588 374 588 379 q 583 351 588 367 q 588 346 591 349 l 585 346 l 585 334 q 591 328 585 328 q 585 321 588 325 q 576 311 583 317 q 583 310 580 311 q 585 309 585 309 q 577 304 580 306 q 574 302 574 302 q 576 289 576 300 q 568 260 568 283 q 571 258 568 260 q 574 254 574 257 q 568 252 568 254 q 571 235 575 235 q 566 243 571 243 q 563 229 563 235 q 557 237 557 235 q 553 224 555 233 q 549 204 551 215 q 550 182 547 193 q 557 163 552 171 q 544 150 549 160 q 531 126 539 140 q 536 118 536 121 q 509 114 520 114 q 511 103 511 111 q 486 97 502 103 q 489 81 486 89 q 463 64 484 74 q 465 55 463 58 q 466 43 466 52 q 467 35 466 43 q 469 9 467 26 l 474 9 l 469 4 q 464 -17 469 -5 q 457 -47 460 -28 q 446 -45 449 -45 q 445 -52 446 -47 q 444 -60 444 -56 q 432 -65 438 -60 q 441 -71 438 -71 q 432 -78 425 -71 q 441 -93 438 -85 l 429 -93 q 429 -104 429 -98 q 428 -118 428 -110 q 414 -129 413 -127 q 417 -155 417 -132 q 399 -180 406 -164 q 376 -204 392 -196 q 380 -205 378 -204 q 381 -207 381 -207 q 298 -211 340 -210 q 224 -221 256 -212 z "},"*":{"ha":1017,"x_min":64,"x_max":947,"o":"m 532 75 q 495 86 513 86 q 467 100 478 86 q 462 115 462 110 l 456 115 q 442 155 462 131 q 452 161 442 160 q 465 170 462 161 q 462 184 462 170 q 453 192 454 185 q 456 193 453 192 q 462 197 459 195 q 459 199 459 197 q 459 200 459 200 l 467 209 q 465 221 465 222 q 470 227 465 227 l 465 227 q 473 238 466 231 l 467 235 q 470 257 470 246 l 465 257 q 470 260 465 260 q 465 278 465 270 q 473 283 470 283 q 450 283 470 286 q 445 275 445 278 q 441 260 448 263 q 430 249 435 257 l 424 249 q 416 238 417 242 q 349 229 370 238 q 288 197 330 221 q 262 189 274 192 q 242 181 250 186 q 220 186 226 181 q 210 197 214 192 q 180 203 195 203 l 177 200 q 163 210 160 209 q 165 221 165 212 q 193 278 193 245 q 220 286 214 285 l 220 303 q 237 320 231 311 q 264 334 242 328 l 262 335 q 280 345 267 338 q 294 360 294 352 q 310 371 310 360 q 320 372 319 371 q 321 374 321 374 q 316 380 316 374 q 324 388 321 381 q 313 391 316 388 q 331 391 323 391 q 348 392 339 391 q 351 397 348 395 q 356 406 353 400 l 359 403 l 361 406 q 349 420 353 417 q 339 428 345 422 q 335 427 336 428 q 334 425 334 425 l 334 431 q 286 412 294 431 q 269 406 277 412 q 259 400 262 400 q 256 409 259 406 q 242 408 248 409 q 234 406 237 406 l 234 403 q 226 400 229 403 l 226 397 q 199 388 210 399 l 199 391 q 182 389 188 391 q 174 385 177 387 q 166 381 170 382 q 157 380 163 380 q 155 375 155 377 q 155 374 155 374 q 139 378 148 378 q 121 375 131 377 q 103 373 112 374 q 88 377 94 372 q 79 388 81 385 q 78 393 77 391 q 82 397 79 395 q 88 406 85 399 q 85 408 85 406 q 85 409 85 409 q 87 412 85 409 q 88 417 88 414 q 75 425 79 422 q 71 428 71 428 q 77 442 77 438 q 75 444 77 442 q 74 448 74 445 l 79 448 q 77 449 79 449 q 80 450 77 449 q 85 452 83 452 q 66 460 74 460 l 71 463 l 68 466 q 71 524 77 489 q 98 562 64 562 q 98 560 98 562 q 100 559 98 559 q 109 574 109 564 q 134 571 116 562 q 136 568 134 568 q 163 580 155 580 q 164 581 163 580 q 165 585 165 583 q 182 576 168 578 q 189 587 185 583 q 197 596 193 591 q 198 592 197 593 q 199 591 199 591 q 217 607 205 613 q 222 610 220 610 q 242 604 222 607 l 250 613 q 243 622 248 621 q 237 628 239 623 q 238 628 237 628 q 239 631 239 628 q 237 642 239 640 q 229 645 234 645 q 231 653 229 650 q 212 659 220 659 q 197 661 205 659 l 197 667 q 191 669 193 667 q 188 670 188 670 q 188 671 188 670 q 191 673 188 673 q 174 675 177 675 q 173 688 180 682 q 165 693 165 693 q 177 702 176 696 q 174 702 177 702 q 172 705 172 702 q 177 710 176 705 l 169 710 l 169 724 q 115 742 135 726 l 115 747 q 131 753 127 749 q 128 755 128 753 q 128 756 128 756 l 134 756 q 142 775 128 762 q 140 781 140 778 q 157 792 153 783 q 156 797 155 799 q 163 795 157 795 q 164 797 163 795 q 165 802 165 799 q 167 803 165 802 q 172 804 169 804 l 169 807 q 185 819 178 807 q 193 813 189 817 q 199 816 197 813 q 208 821 202 819 q 205 823 205 821 q 205 824 205 824 q 220 829 212 824 q 237 841 229 835 l 250 827 q 271 816 264 827 q 271 817 271 816 q 274 821 271 819 l 294 821 q 296 813 294 816 q 299 810 299 810 l 304 810 l 304 804 q 319 802 313 802 q 321 807 321 804 q 323 799 321 802 q 324 796 324 796 q 361 792 330 792 q 396 784 378 784 q 410 756 410 762 q 412 755 410 756 q 416 753 413 753 l 416 750 q 433 762 427 762 q 437 781 438 770 q 442 795 435 792 q 441 804 441 796 q 435 807 438 804 l 435 824 q 445 827 439 824 q 444 829 445 827 q 442 835 442 832 l 438 835 q 442 854 442 841 q 444 853 442 854 q 448 852 445 852 q 453 856 448 856 q 439 879 445 864 q 438 903 433 895 q 440 921 438 911 q 445 941 442 930 q 470 941 453 934 q 473 951 473 943 q 495 949 492 951 q 498 954 498 951 l 513 954 l 516 958 q 526 953 516 954 q 541 951 535 951 q 542 951 541 951 q 544 954 544 951 q 592 943 552 937 q 592 942 592 943 q 595 941 592 941 q 612 949 604 941 l 616 949 l 616 935 q 624 932 621 935 l 621 930 q 627 930 624 927 l 627 921 q 630 920 627 921 q 638 916 633 918 q 641 924 638 921 q 637 904 641 913 q 633 881 633 895 q 634 864 621 878 q 641 846 646 852 q 638 821 644 835 q 641 819 641 821 l 635 816 l 638 813 q 629 792 629 807 q 629 767 629 778 l 644 767 q 649 772 649 767 q 657 770 654 772 l 663 767 q 686 770 663 770 l 686 764 q 716 774 703 762 q 741 787 728 787 q 758 807 747 800 l 763 802 q 771 809 766 804 q 783 819 777 813 q 784 814 783 816 q 785 813 785 813 q 789 814 785 813 q 800 819 793 816 q 831 835 820 838 l 831 832 l 840 832 q 853 807 837 824 q 885 784 869 789 q 871 771 882 781 q 860 762 860 762 q 854 750 860 759 q 849 735 849 742 q 831 713 834 724 q 814 688 828 702 q 785 670 809 667 q 763 653 763 671 q 746 648 752 653 q 732 642 741 642 q 730 633 732 635 q 726 631 728 632 q 722 629 724 631 q 720 623 720 628 q 726 615 720 623 q 738 607 731 607 q 743 613 739 613 l 743 607 q 751 609 747 607 q 760 610 755 610 q 760 609 760 610 q 763 607 760 607 q 777 611 771 607 q 795 607 783 616 q 811 611 800 607 q 834 613 823 616 q 849 625 841 623 q 874 623 852 623 q 877 613 877 620 l 882 613 l 885 607 q 888 609 885 607 q 894 610 891 610 q 895 606 894 607 q 897 604 897 604 q 920 596 905 604 q 923 597 920 596 q 931 599 926 599 q 930 588 931 596 q 934 574 928 580 q 928 570 931 571 q 926 568 926 568 q 934 566 931 568 q 926 562 927 566 q 932 553 928 553 q 931 539 937 553 q 947 536 942 536 q 939 532 942 534 q 934 528 935 530 q 935 526 934 528 q 939 523 937 523 q 926 505 927 515 q 939 496 926 498 l 926 496 q 923 485 923 488 l 934 485 q 920 482 920 482 q 914 466 914 473 q 888 470 899 466 q 866 474 877 474 q 863 471 863 474 l 866 469 q 845 466 853 469 q 848 457 848 463 q 839 452 842 454 q 834 449 836 450 q 831 445 831 446 q 820 452 828 449 q 812 454 812 454 q 806 452 809 452 l 806 454 q 771 445 780 456 q 788 425 780 437 q 785 413 783 417 q 788 400 788 409 l 798 400 q 793 395 795 397 q 792 392 792 392 q 798 391 796 392 q 803 377 795 382 q 817 363 812 371 l 820 366 q 823 360 820 360 q 828 352 825 360 l 837 352 q 865 332 834 334 q 888 311 897 330 q 889 310 888 311 q 894 309 891 309 q 906 271 882 285 q 897 266 899 269 q 898 256 897 260 q 899 243 899 252 q 897 246 897 243 q 897 249 897 249 q 880 229 889 238 q 881 224 880 227 q 882 218 882 221 q 877 221 882 221 q 873 220 874 221 q 871 218 871 218 q 873 216 871 217 q 874 214 874 214 q 863 214 869 208 q 866 209 862 209 l 842 209 q 789 189 805 186 q 788 197 788 191 q 757 206 771 200 q 732 212 743 212 l 732 217 q 728 212 731 214 q 726 209 726 209 q 720 221 726 217 q 716 220 718 221 q 714 218 714 218 q 709 221 711 221 l 709 233 q 681 235 695 233 q 663 246 666 238 q 662 242 663 243 q 661 241 661 241 q 652 275 659 256 q 629 278 645 294 q 633 274 629 277 l 624 274 l 621 271 q 633 260 628 260 q 628 242 624 254 q 633 218 633 229 q 627 161 635 181 q 618 140 618 140 q 621 124 618 127 q 624 121 624 121 q 625 120 624 121 q 629 119 627 119 l 629 100 q 618 90 621 100 q 596 83 606 81 q 578 78 587 86 q 564 75 570 75 l 562 78 q 553 79 557 78 q 549 81 549 81 q 547 75 547 78 q 544 81 544 78 q 535 77 538 78 q 532 75 532 75 z "},"+":{"ha":1017,"x_min":66,"x_max":948,"o":"m 612 71 q 603 73 607 71 q 579 83 598 74 q 496 94 538 63 q 422 102 454 125 q 425 100 422 102 q 431 99 427 99 q 395 96 414 94 q 365 105 376 99 l 365 119 q 340 131 357 120 q 344 179 349 153 q 340 224 340 205 q 346 218 346 224 q 333 277 346 239 q 314 321 323 315 q 317 323 314 321 q 322 324 319 324 q 308 344 314 342 q 314 347 308 347 q 304 367 300 356 q 305 387 308 378 q 289 389 298 388 q 268 389 279 389 q 269 384 268 387 q 269 378 269 381 q 265 381 268 378 q 262 387 262 384 q 260 378 260 384 l 251 378 q 248 387 248 381 q 227 376 228 380 q 208 384 216 376 q 194 373 195 376 q 203 368 197 373 l 197 361 q 162 366 189 376 q 134 356 138 356 q 118 358 127 357 q 94 359 108 359 q 93 365 94 361 q 92 370 92 368 q 76 381 77 376 q 69 389 75 387 q 80 398 73 391 q 75 444 80 438 q 77 449 75 446 q 66 455 72 455 q 80 495 80 473 q 75 503 80 498 q 92 535 102 512 q 94 568 98 555 q 80 592 89 581 q 96 584 89 584 q 92 587 94 584 q 89 592 89 589 q 104 607 97 592 q 123 617 111 623 q 141 630 137 626 q 161 626 146 634 q 186 629 172 626 q 218 629 200 631 l 220 634 q 222 633 220 634 q 227 631 223 631 q 228 634 227 631 q 229 640 229 637 q 232 631 232 637 l 245 631 q 271 634 256 641 q 305 655 286 627 q 307 648 305 652 q 308 644 308 644 q 325 646 319 646 q 322 671 322 658 q 322 691 322 686 q 325 696 322 696 q 322 698 322 696 q 322 701 322 701 q 325 710 328 701 q 322 723 322 720 q 328 728 322 728 q 319 730 322 728 q 317 731 317 731 q 326 740 325 734 q 332 751 328 745 q 322 781 322 756 q 317 810 322 805 q 328 848 332 823 q 326 871 326 862 q 325 886 325 880 q 332 888 328 888 q 328 910 326 902 q 334 907 332 910 l 343 916 q 446 905 385 905 q 478 902 460 897 q 519 907 496 907 q 518 905 519 907 q 513 897 517 902 q 522 894 519 897 q 537 905 530 899 q 553 916 545 910 q 553 910 553 915 q 555 903 554 906 q 558 899 557 899 q 565 905 561 899 q 593 886 565 888 l 593 874 q 595 876 593 874 q 601 880 598 877 q 606 869 604 877 q 610 852 608 862 q 614 832 612 842 q 615 817 615 823 l 622 817 q 613 792 610 810 q 616 758 616 774 q 618 757 616 758 q 622 753 619 756 q 630 708 622 731 q 639 661 639 686 q 733 649 665 626 q 770 645 739 646 q 818 658 804 644 q 845 650 826 652 q 880 649 864 649 q 883 658 883 652 q 899 652 892 655 q 912 649 905 649 q 918 634 913 638 q 915 629 915 631 q 928 617 932 620 q 932 592 924 614 q 937 589 932 589 q 929 584 933 588 q 929 549 930 574 q 929 548 929 549 q 932 547 929 547 q 928 545 929 547 q 926 544 926 544 q 926 535 926 543 q 928 516 926 528 q 929 496 929 505 q 929 484 929 488 l 932 481 l 926 475 q 929 456 932 466 q 935 435 926 446 q 932 430 932 435 q 948 413 941 413 q 940 406 943 408 q 935 401 937 404 q 939 384 935 392 q 943 368 943 376 q 840 359 857 359 l 807 359 q 804 356 804 359 q 769 359 781 361 q 741 356 760 365 l 747 351 q 701 347 721 347 q 667 344 682 347 l 667 356 q 647 351 656 356 l 647 347 q 636 338 643 345 q 650 321 643 327 q 636 319 642 319 q 646 312 642 316 q 658 308 650 308 l 652 302 q 654 299 652 302 q 658 296 655 296 q 644 290 644 295 q 646 288 644 290 q 650 287 647 287 l 642 270 q 647 252 650 256 q 676 230 646 248 q 655 226 667 227 q 636 224 644 224 q 637 210 636 214 q 639 202 637 205 q 642 195 640 199 q 644 182 643 191 q 636 180 639 182 q 625 133 635 168 q 604 88 616 103 q 612 80 604 80 l 612 71 z "},",":{"ha":475,"x_min":80,"x_max":390,"o":"m 324 -217 q 301 -198 316 -208 q 281 -188 286 -188 q 259 -151 275 -164 q 255 -131 259 -139 q 254 -117 251 -123 q 244 -112 248 -115 q 237 -109 240 -109 q 237 -88 238 -100 q 219 -88 226 -91 q 229 -79 219 -79 q 221 -41 226 -63 q 222 -12 216 -20 q 190 9 208 1 q 162 24 172 18 q 156 34 163 30 q 140 39 148 37 q 132 41 133 41 q 107 50 116 47 q 94 55 98 54 q 84 123 83 96 q 94 186 85 150 q 80 195 85 194 l 85 201 q 83 229 85 215 q 80 255 80 243 q 97 255 81 248 l 97 251 q 102 258 102 252 q 132 248 102 254 q 169 251 162 243 l 169 252 q 194 272 184 260 q 195 265 194 269 q 197 260 197 260 q 206 262 205 260 q 208 263 208 263 q 217 260 209 263 q 235 256 224 258 q 251 260 245 255 q 256 258 251 258 q 260 265 256 260 q 267 275 264 269 q 271 267 271 272 q 296 268 279 272 q 336 263 313 263 l 336 260 q 355 255 342 258 q 381 240 368 252 q 374 207 376 215 q 373 191 373 198 q 365 175 362 180 q 368 155 368 169 q 372 154 368 155 q 378 153 376 153 l 378 150 l 368 150 q 370 126 368 134 q 366 125 368 126 q 365 123 365 123 q 373 106 368 117 q 390 90 378 96 q 385 77 389 81 q 378 69 381 73 q 376 58 376 65 q 381 41 376 52 q 365 22 373 33 q 370 19 370 22 q 365 9 365 14 q 368 8 365 9 q 373 7 370 7 q 370 -1 373 1 q 376 -10 368 -2 q 363 -11 365 -10 q 359 -14 362 -12 q 376 -34 365 -14 q 372 -35 373 -34 q 370 -37 370 -37 q 374 -39 373 -38 q 381 -46 376 -41 l 373 -46 q 368 -55 368 -46 l 387 -55 q 376 -63 380 -62 q 377 -64 376 -63 q 378 -68 378 -66 l 370 -68 l 370 -74 l 385 -74 l 385 -77 l 376 -77 q 368 -97 373 -88 q 359 -120 362 -106 q 362 -121 359 -120 q 368 -123 365 -123 q 359 -142 362 -124 q 362 -148 359 -145 q 357 -157 358 -152 l 348 -157 l 348 -174 l 353 -174 q 343 -190 351 -180 q 342 -208 336 -199 q 324 -217 340 -208 z "},"-":{"ha":1017,"x_min":73,"x_max":954,"o":"m 298 343 q 273 348 283 346 q 256 353 263 350 q 234 360 249 355 q 200 372 220 365 l 200 380 l 107 353 q 99 387 100 380 q 95 440 98 397 q 86 444 86 440 q 95 450 90 444 l 90 455 q 98 458 95 455 q 78 546 110 513 q 90 575 90 557 l 81 575 q 73 594 73 583 q 86 597 75 597 q 88 608 86 603 q 90 618 90 614 l 102 618 l 102 626 q 113 629 107 626 q 127 635 119 632 q 125 639 127 635 q 124 646 124 643 q 149 640 144 644 q 151 643 149 640 q 152 651 152 646 q 171 644 163 647 q 181 640 178 642 q 176 656 181 647 q 185 647 181 651 q 197 640 189 643 l 197 651 q 199 646 197 648 q 200 643 200 643 l 221 643 l 221 656 l 227 656 l 227 651 q 243 643 235 643 l 243 651 l 252 651 l 252 637 l 274 637 l 275 632 q 289 637 279 632 q 285 639 286 637 q 283 640 283 640 q 286 642 283 640 q 292 646 289 643 q 295 637 292 640 q 323 643 304 643 l 323 635 q 349 646 334 643 l 349 637 l 377 637 l 377 646 q 407 639 392 643 q 439 635 422 635 q 442 626 439 629 q 452 635 449 633 q 454 626 454 632 q 471 631 465 630 q 483 630 477 632 q 497 625 489 629 q 517 618 505 622 l 526 618 q 531 632 528 625 q 536 648 534 640 q 547 611 547 630 q 574 606 562 611 l 574 611 l 580 611 q 581 608 580 611 q 585 600 583 606 q 597 600 593 600 q 604 603 600 601 q 613 606 607 604 q 631 608 618 607 l 631 618 q 641 623 635 621 q 656 629 648 626 q 659 623 659 629 q 664 625 661 623 q 673 626 667 626 l 673 618 l 681 626 q 682 618 682 625 q 710 622 696 621 q 739 626 724 623 l 739 635 q 781 629 755 629 l 781 637 q 798 640 792 637 q 810 643 804 643 l 810 626 q 829 621 820 626 l 835 626 q 832 618 832 623 q 833 617 832 618 q 838 614 835 616 q 850 615 842 614 q 867 617 859 616 q 882 616 876 618 q 892 606 889 614 l 901 606 q 903 597 901 600 q 906 595 903 597 q 911 594 909 594 l 911 586 q 932 569 932 575 l 924 569 l 924 518 q 934 516 930 518 q 943 515 938 515 l 943 483 l 954 483 q 942 446 943 455 q 954 401 939 437 q 849 369 907 358 q 850 357 849 361 q 854 347 852 353 q 816 363 835 363 l 813 358 q 807 361 807 358 q 804 336 804 350 q 786 341 792 336 q 778 350 781 347 q 759 341 775 350 q 758 344 759 341 q 756 350 756 347 q 689 358 724 355 q 625 353 653 361 l 625 341 q 568 341 596 341 q 511 336 542 341 q 509 347 511 345 l 445 375 l 445 380 l 428 380 q 421 375 431 383 q 400 365 412 366 q 380 363 388 363 q 331 337 356 332 q 298 332 307 343 l 298 343 z "},".":{"ha":475,"x_min":76,"x_max":416,"o":"m 218 311 q 218 299 220 305 q 247 305 225 299 q 280 308 268 311 q 333 278 293 272 q 391 258 374 283 q 407 256 397 258 l 401 252 q 404 237 401 246 q 416 237 410 239 q 398 226 401 231 q 391 212 395 221 l 395 210 l 388 203 q 388 186 388 197 q 388 162 388 174 q 390 139 388 150 q 395 123 391 127 q 392 117 393 119 q 391 110 391 115 q 391 96 391 106 q 391 68 391 86 q 397 64 395 73 q 381 60 395 60 q 395 45 383 56 q 374 58 377 58 q 375 47 371 48 q 371 39 378 45 q 364 20 364 33 l 371 16 q 361 9 361 14 q 361 -4 361 3 q 343 3 351 -1 q 330 9 336 6 q 327 -1 327 6 q 317 6 323 -1 q 290 -14 290 -7 l 290 -4 q 209 6 243 6 l 206 -1 l 186 -1 q 175 6 182 3 q 160 12 168 9 q 157 -1 157 9 q 144 14 144 -1 q 134 11 140 12 q 121 6 129 9 q 119 12 119 9 q 115 9 115 12 q 115 6 115 6 q 109 7 113 6 q 98 9 104 7 q 98 10 98 9 q 102 12 98 12 q 93 24 96 21 q 92 31 90 27 q 97 38 94 35 q 104 52 100 42 q 103 73 98 60 q 98 101 108 85 q 93 119 98 110 q 88 139 88 129 q 92 133 92 136 q 98 146 92 145 q 92 159 92 153 l 85 159 l 85 172 q 76 178 76 175 l 92 178 q 79 181 82 181 q 88 188 85 188 q 85 208 85 197 q 76 227 85 218 q 79 266 85 250 q 199 296 133 296 l 203 302 q 212 299 206 299 q 218 311 218 305 z "},"/":{"ha":951,"x_min":66,"x_max":906,"o":"m 123 -4 q 121 4 121 -1 q 92 7 106 7 l 92 13 q 66 22 75 14 q 83 54 75 29 q 92 90 92 81 q 101 93 93 90 l 101 99 l 106 104 q 101 118 104 114 q 106 138 109 130 q 106 159 104 147 q 134 167 127 160 q 140 184 134 174 q 144 188 143 180 q 146 196 146 196 q 143 197 143 196 q 143 199 143 199 q 164 208 155 200 q 182 226 174 216 q 197 247 190 236 q 212 267 204 258 l 212 273 q 223 282 215 273 q 232 294 232 292 l 237 294 q 241 304 237 300 q 248 315 245 309 q 245 318 245 315 q 250 332 254 321 q 245 346 245 343 q 272 363 265 346 q 292 370 273 363 q 283 380 283 378 q 292 378 289 380 q 289 395 292 387 q 286 408 286 403 q 304 418 297 411 q 328 432 311 425 l 328 440 q 322 442 325 440 q 319 444 319 444 q 343 468 334 444 q 337 471 340 468 l 343 471 l 343 479 q 337 484 340 481 q 332 489 334 486 q 346 513 343 500 q 351 542 349 525 l 357 542 l 357 546 q 386 543 372 546 q 391 557 391 550 l 397 557 q 414 606 397 591 l 414 628 q 386 628 394 631 q 419 648 398 640 q 425 659 425 649 q 436 668 436 659 q 431 674 431 669 q 433 675 431 674 q 441 677 436 677 l 441 682 q 446 677 441 677 q 447 681 446 680 q 448 685 448 682 q 443 690 443 686 q 456 705 456 690 q 483 726 476 705 q 490 764 490 747 q 499 774 490 772 q 508 782 508 775 q 513 785 511 785 q 515 789 513 785 q 517 796 517 793 l 522 796 q 528 819 522 808 q 547 827 537 824 l 547 833 l 541 833 l 538 839 q 562 839 558 842 q 564 842 562 839 q 565 848 565 844 q 564 853 565 850 q 562 861 562 856 q 565 863 562 861 q 570 864 568 864 q 576 888 570 872 q 590 901 582 904 q 591 929 590 914 q 592 957 593 943 q 610 980 591 970 q 618 997 628 990 q 620 998 618 997 q 624 1000 621 1000 q 620 1003 621 1002 q 618 1004 618 1004 l 621 1015 l 632 1015 q 635 1009 632 1012 l 643 1009 l 640 1012 q 656 1013 649 1012 q 672 1015 664 1015 q 672 1037 672 1021 l 750 1035 q 783 1040 773 1027 q 803 1039 798 1043 q 826 1052 807 1035 q 839 1046 829 1043 q 855 1046 848 1048 l 855 1043 q 879 1033 864 1040 l 879 1021 q 890 1013 883 1021 l 903 1013 l 906 1019 q 895 971 903 992 q 880 935 887 949 q 867 913 873 920 q 841 865 861 889 q 804 829 821 842 q 795 805 798 814 q 790 793 791 796 q 764 779 789 787 q 758 774 761 777 q 753 770 755 771 q 733 739 743 749 q 732 720 733 720 q 729 721 729 720 q 729 722 729 722 q 716 708 724 715 q 718 690 709 701 q 707 693 715 693 q 696 645 697 675 l 699 645 q 696 628 690 637 q 692 627 693 628 q 690 625 690 625 q 687 624 687 625 q 687 623 687 623 l 679 614 l 679 608 q 669 608 675 610 q 672 593 667 602 l 661 593 q 647 568 644 576 q 639 564 642 566 q 636 563 636 563 q 630 525 650 536 q 633 517 633 522 l 622 517 q 619 511 619 514 l 616 514 q 615 503 615 510 q 619 494 615 500 q 587 465 614 477 q 567 437 582 449 q 545 417 553 425 q 546 413 545 414 q 547 411 547 411 l 545 411 q 525 370 537 387 l 525 368 q 502 346 517 354 q 479 327 488 338 q 487 315 484 319 q 488 313 489 311 l 473 313 q 471 300 471 307 l 460 300 l 460 286 q 435 279 443 283 q 419 270 427 275 l 419 261 q 411 258 414 261 q 406 241 406 249 q 389 228 391 232 q 382 207 386 224 q 371 196 375 197 q 372 192 371 195 q 374 189 374 189 q 367 185 371 186 q 362 184 362 184 q 363 171 362 178 q 365 156 365 164 q 356 148 361 151 q 346 142 351 144 l 346 135 q 342 132 343 132 q 340 132 340 132 q 343 118 340 130 q 321 111 332 118 q 319 96 311 104 q 307 83 308 85 q 305 64 305 81 q 311 61 305 61 q 297 33 297 47 q 298 31 297 31 q 300 31 300 31 q 287 20 292 25 q 277 16 283 16 l 277 7 q 249 0 256 -1 q 223 -1 243 1 q 183 -4 203 -4 q 180 7 183 -1 l 178 7 q 175 -4 175 4 q 172 1 172 -1 q 162 -4 166 -1 q 155 -7 158 -7 l 155 -1 q 123 -4 126 -1 z "},":":{"ha":408,"x_min":75,"x_max":373,"o":"m 199 -7 q 194 4 199 -1 q 186 1 189 4 l 183 7 q 77 33 125 7 q 75 67 83 47 q 83 83 83 75 q 85 102 83 93 q 77 107 83 102 q 88 110 80 107 l 75 110 q 83 115 75 113 l 83 127 l 88 127 q 94 138 88 132 q 88 150 88 139 q 85 144 88 147 q 90 161 85 153 q 94 178 94 170 q 98 202 102 192 q 100 221 94 213 q 93 233 96 229 q 89 239 90 236 q 89 245 87 242 q 97 256 92 248 q 94 257 94 256 q 94 258 94 258 q 103 260 100 260 q 109 261 106 261 q 109 258 109 261 q 112 256 109 256 q 115 261 112 258 q 125 257 121 258 q 134 254 130 256 q 145 267 134 267 q 149 256 145 258 q 161 261 155 258 q 172 267 168 264 l 189 267 l 191 261 q 262 270 222 261 l 262 278 q 286 261 262 273 q 294 267 291 267 q 297 258 294 261 q 309 264 302 261 q 325 270 316 267 q 325 258 325 264 q 333 252 325 254 l 328 249 q 333 232 328 237 q 336 225 340 227 q 336 216 333 224 q 354 227 338 216 q 342 213 344 217 q 357 210 354 213 q 351 207 354 203 q 351 182 351 191 q 351 170 351 174 q 352 163 351 165 q 354 159 353 161 q 350 145 351 155 q 348 124 348 135 q 348 103 348 114 q 348 87 348 93 l 354 82 l 351 81 q 357 68 354 73 q 373 58 359 64 q 362 58 368 57 q 359 45 359 50 l 365 42 q 351 39 357 39 q 300 22 336 18 q 254 -4 265 28 q 224 -1 243 -7 q 199 4 205 4 q 199 -7 201 -1 m 145 395 q 134 404 137 403 q 129 417 132 406 q 85 445 88 417 q 85 497 83 474 q 92 492 85 492 q 100 519 100 510 q 85 525 90 525 q 92 554 85 539 l 94 551 q 96 553 94 551 q 100 554 97 554 q 92 557 97 557 q 92 585 92 579 q 94 599 92 591 q 85 625 85 617 q 79 627 83 625 q 75 631 75 628 q 102 650 77 650 q 116 659 109 656 q 137 668 123 663 q 160 684 142 677 q 194 699 178 690 q 211 686 194 690 q 243 690 229 682 q 241 685 243 688 q 240 682 240 682 q 262 682 245 665 q 260 685 262 682 q 259 690 259 688 q 270 681 265 685 q 277 674 275 677 q 297 682 290 675 q 291 674 297 680 q 313 663 298 663 q 311 661 311 663 q 311 660 311 660 q 322 656 315 659 q 338 650 329 654 q 337 617 359 642 l 340 611 q 330 602 333 608 q 340 585 340 596 q 333 593 333 585 l 330 593 q 333 582 333 585 q 319 566 319 574 l 333 560 q 322 546 319 549 l 330 546 q 325 543 328 545 q 319 539 322 542 q 320 504 322 522 q 333 460 319 485 q 328 444 328 454 q 328 425 328 432 q 323 429 325 428 q 322 429 322 429 q 288 422 304 422 l 286 425 q 281 420 283 422 q 280 417 280 417 l 276 417 q 280 400 281 400 q 226 408 252 429 q 214 414 219 408 q 169 414 194 403 q 165 407 166 408 q 162 397 163 406 l 157 397 l 157 406 q 154 406 157 406 q 151 408 151 406 q 145 395 147 391 z "},";":{"ha":408,"x_min":75,"x_max":385,"o":"m 319 -214 q 295 -194 311 -204 q 276 -184 280 -184 q 254 -147 269 -161 q 250 -127 254 -136 q 248 -114 245 -119 q 239 -108 243 -111 q 231 -105 235 -105 q 231 -85 233 -97 q 214 -85 220 -87 q 223 -76 214 -76 q 216 -38 220 -60 q 216 -8 211 -16 q 184 13 202 4 q 157 28 166 21 q 150 37 158 33 q 135 43 142 41 q 126 45 127 45 q 102 54 111 50 q 88 58 93 57 q 79 126 77 99 q 88 189 80 153 q 75 199 80 197 l 80 204 q 77 232 80 218 q 75 258 75 246 q 92 258 76 252 l 92 254 q 97 261 97 256 q 126 252 97 257 q 163 254 157 246 l 163 256 q 189 275 179 264 q 190 268 189 273 q 191 264 191 264 q 201 265 199 264 q 202 267 202 267 q 211 264 203 267 q 230 260 219 261 q 245 264 240 258 q 251 261 245 261 q 255 268 251 264 q 262 278 259 273 q 265 270 265 275 q 291 271 273 275 q 330 267 308 267 l 330 264 q 350 258 337 261 q 376 243 362 256 q 369 210 370 218 q 368 195 368 201 q 359 178 357 184 q 362 159 362 172 q 366 157 362 159 q 373 156 370 156 l 373 153 l 362 153 q 365 130 362 138 q 361 128 362 130 q 359 127 359 127 q 368 110 362 121 q 385 93 373 99 q 379 81 383 85 q 373 73 376 77 q 370 61 370 68 q 376 45 370 56 q 359 25 368 36 q 365 22 365 25 q 359 13 359 17 q 362 12 359 13 q 368 10 365 10 q 365 3 368 4 q 370 -7 362 1 q 358 -7 359 -7 q 354 -11 357 -8 q 370 -31 359 -11 q 366 -32 368 -31 q 365 -33 365 -33 q 369 -36 368 -35 q 376 -43 370 -37 l 368 -43 q 362 -52 362 -43 l 382 -52 q 370 -60 374 -58 q 372 -61 370 -60 q 373 -65 373 -62 l 365 -65 l 365 -71 l 379 -71 l 379 -73 l 370 -73 q 362 -94 368 -85 q 354 -117 357 -102 q 357 -118 354 -117 q 362 -119 359 -119 q 354 -139 357 -121 q 357 -144 354 -142 q 351 -154 353 -149 l 342 -154 l 342 -171 l 348 -171 q 338 -186 345 -176 q 337 -204 330 -196 q 319 -214 334 -204 m 145 395 q 134 404 137 403 q 129 417 132 406 q 85 445 88 417 q 85 497 83 474 q 92 492 85 492 q 100 519 100 510 q 85 525 90 525 q 92 554 85 539 l 94 551 q 96 553 94 551 q 100 554 97 554 q 92 557 97 557 q 92 585 92 579 q 94 599 92 591 q 85 625 85 617 q 79 627 83 625 q 75 631 75 628 q 102 650 77 650 q 116 659 109 656 q 137 668 123 663 q 160 684 142 677 q 194 699 178 690 q 211 686 194 690 q 243 690 229 682 q 241 685 243 688 q 240 682 240 682 q 262 682 245 665 q 260 685 262 682 q 259 690 259 688 q 270 681 265 685 q 277 674 275 677 q 297 682 290 675 q 291 674 297 680 q 313 663 298 663 q 311 661 311 663 q 311 660 311 660 q 322 656 315 659 q 338 650 329 654 q 337 617 359 642 l 340 611 q 330 602 333 608 q 340 585 340 596 q 333 593 333 585 l 330 593 q 333 582 333 585 q 319 566 319 574 l 333 560 q 322 546 319 549 l 330 546 q 325 543 328 545 q 319 539 322 542 q 320 504 322 522 q 333 460 319 485 q 328 444 328 454 q 328 425 328 432 q 323 429 325 428 q 322 429 322 429 q 288 422 304 422 l 286 425 q 281 420 283 422 q 280 417 280 417 l 276 417 q 280 400 281 400 q 226 408 252 429 q 214 414 219 408 q 169 414 194 403 q 165 407 166 408 q 162 397 163 406 l 157 397 l 157 406 q 154 406 157 406 q 151 408 151 406 q 145 395 147 391 z "},"<":{"ha":815,"x_min":39,"x_max":758,"o":"m 50 458 q 39 467 47 467 l 56 471 l 56 472 q 52 478 52 473 q 56 484 54 484 l 56 484 q 47 488 48 485 q 60 510 47 491 q 73 536 73 532 l 72 540 l 73 540 l 75 539 q 76 543 75 543 l 100 546 q 119 570 103 568 q 121 574 119 572 l 122 574 q 140 572 137 572 l 139 578 q 140 580 138 580 l 139 589 q 141 592 140 591 q 142 590 142 591 l 143 585 l 149 585 l 148 594 q 149 596 148 596 l 150 596 l 154 593 l 153 598 l 155 598 q 159 594 155 595 l 160 594 l 159 600 q 168 606 161 604 l 165 621 l 167 621 l 170 614 l 174 615 l 174 616 l 172 623 q 178 617 174 623 q 191 625 185 625 l 199 627 l 201 626 q 200 617 200 623 l 204 618 q 206 616 206 618 l 208 616 l 214 618 l 214 622 q 223 632 224 631 q 227 639 223 636 q 229 638 229 640 l 229 633 l 231 633 l 231 639 l 232 639 q 239 637 234 637 q 240 641 239 640 l 254 642 q 260 658 254 646 l 262 656 l 262 650 l 266 651 l 265 656 q 267 659 265 659 l 275 659 l 274 663 q 277 667 274 665 l 277 667 l 279 661 l 282 665 q 283 661 283 663 l 285 661 q 288 680 284 680 q 294 675 288 677 l 296 669 l 297 670 q 304 673 298 670 l 305 667 l 306 667 q 314 675 314 671 q 315 683 315 682 l 319 682 q 323 685 321 684 q 324 682 324 684 l 334 683 q 335 686 334 686 l 342 687 q 343 691 341 690 l 350 692 l 349 694 q 354 703 349 702 l 353 709 q 360 712 353 711 l 368 712 q 400 730 391 715 q 404 726 403 730 l 404 726 q 413 742 402 741 q 424 755 421 755 l 426 755 l 430 755 q 431 758 429 758 l 433 758 l 441 754 q 443 757 441 755 q 444 754 444 755 l 465 770 l 465 779 q 466 782 465 781 l 470 782 l 469 791 q 471 793 469 793 l 474 793 l 472 783 l 473 780 l 473 780 q 479 783 477 783 q 481 781 481 781 q 517 802 492 783 l 518 798 l 527 805 l 526 808 q 522 819 526 808 l 523 819 q 536 812 534 812 q 548 844 547 836 l 554 844 q 559 847 555 844 q 560 844 560 845 l 563 844 q 574 838 573 845 l 575 838 q 585 847 579 839 q 595 844 585 842 l 604 844 q 614 848 604 846 q 627 843 620 842 l 627 837 q 637 840 630 837 l 637 838 l 638 833 l 647 835 q 673 852 661 851 q 677 845 675 850 q 682 849 683 847 l 683 849 q 684 848 684 849 q 709 861 704 860 q 713 859 710 859 q 713 867 712 862 l 715 867 l 716 861 l 718 855 l 719 855 q 724 872 718 862 l 725 872 l 726 871 l 724 859 l 725 856 l 728 859 l 729 859 q 734 842 733 847 l 734 839 l 737 840 l 741 838 l 741 841 l 743 841 l 743 840 q 736 793 744 833 q 736 782 737 790 q 742 780 741 783 q 745 743 742 777 q 758 723 751 722 l 751 705 l 753 704 q 753 689 752 696 l 753 686 q 756 684 756 686 q 750 667 753 684 q 742 638 743 653 l 713 634 l 710 631 l 707 630 q 705 631 706 630 l 705 633 q 707 634 705 634 l 707 637 l 706 637 q 686 617 694 635 q 683 618 684 616 l 682 618 q 677 608 681 618 l 674 608 l 675 602 q 673 600 675 600 q 671 603 672 600 l 670 603 q 661 596 671 599 l 661 596 q 648 602 657 595 q 640 593 643 600 l 644 588 l 642 587 q 636 589 641 587 q 628 582 635 583 q 593 562 616 578 l 593 565 q 592 568 593 567 q 592 572 593 570 l 586 571 q 585 574 585 570 l 576 573 q 576 567 575 570 l 574 566 q 570 572 572 572 l 570 572 l 570 571 l 568 570 l 568 572 l 566 572 l 563 570 l 562 570 q 555 574 562 570 l 555 576 q 529 564 543 569 q 522 570 523 570 q 483 557 494 559 l 482 557 q 477 549 483 552 q 460 535 460 536 q 445 524 460 532 q 438 507 439 518 q 412 492 429 503 q 410 494 412 494 l 411 489 l 410 489 q 398 492 406 492 q 397 494 397 493 q 380 482 395 494 l 376 481 q 390 471 380 475 q 414 457 399 471 l 416 457 q 422 463 416 463 l 422 463 q 427 458 427 462 l 427 458 q 431 464 429 464 l 432 464 q 436 449 433 464 l 440 441 l 442 443 l 443 443 q 453 439 444 443 q 459 444 455 444 q 461 441 462 444 l 463 442 q 465 437 465 439 l 465 437 q 468 442 466 442 q 471 433 470 433 q 480 431 477 433 q 483 439 481 439 q 486 433 484 433 q 496 421 496 425 l 497 421 l 498 426 l 498 426 q 513 418 507 418 l 515 418 q 522 431 517 418 l 522 431 q 527 420 525 431 q 551 413 552 421 q 555 399 552 399 q 563 403 557 399 l 564 411 l 564 411 l 568 408 l 570 408 q 572 417 572 414 l 574 417 q 575 414 574 414 l 594 415 q 597 410 595 410 q 611 402 603 408 q 622 425 619 416 l 623 425 l 625 407 l 626 407 q 635 419 628 418 q 652 411 646 410 q 654 415 652 415 q 655 413 655 415 l 654 403 l 661 404 l 665 408 q 669 401 666 408 q 685 407 670 404 l 686 407 q 690 401 686 405 l 691 401 q 698 404 694 401 l 699 404 q 703 400 698 399 l 703 397 l 711 404 l 712 405 l 711 395 q 717 395 714 395 q 719 397 718 397 l 724 397 q 726 395 726 397 l 724 376 l 726 378 l 730 378 q 737 371 735 378 q 741 368 741 371 l 740 364 l 740 363 q 749 320 744 363 l 749 319 l 749 319 l 753 333 l 754 333 l 749 271 l 758 271 q 713 176 758 271 q 715 174 714 176 q 663 117 692 119 l 648 117 q 629 121 633 116 l 626 123 l 621 121 q 614 138 621 132 q 612 134 612 135 l 610 134 l 611 142 q 595 152 602 142 q 591 144 592 144 l 590 144 l 590 148 l 589 147 q 587 136 587 138 l 586 136 q 578 152 584 152 q 568 163 572 151 q 544 172 559 162 l 544 171 q 541 168 544 170 l 541 168 l 540 175 l 538 175 q 536 172 538 172 l 535 172 q 500 198 516 199 l 500 197 q 501 186 500 195 q 487 210 492 197 q 479 206 482 206 q 478 212 479 212 q 467 208 471 208 l 465 208 q 445 216 455 207 q 441 220 441 215 q 431 217 433 217 l 429 217 q 416 224 422 216 q 414 221 416 221 l 413 221 l 414 224 l 410 223 q 404 220 408 223 q 403 223 403 221 l 401 222 q 394 220 400 222 l 394 227 l 391 227 q 387 219 390 219 l 387 219 q 385 220 385 218 l 385 226 l 384 226 l 383 219 l 381 219 q 369 225 382 225 l 365 225 q 363 227 363 224 l 364 238 l 363 238 q 326 260 353 237 q 325 258 325 260 q 322 251 323 251 l 320 251 q 311 256 317 254 l 311 258 l 314 261 q 292 275 297 276 l 292 275 l 290 270 l 289 270 l 289 274 q 287 284 290 279 q 277 279 281 282 l 275 281 q 278 288 276 288 q 270 306 271 304 q 250 294 262 295 l 250 296 l 250 305 l 241 307 q 205 293 236 306 l 205 294 q 193 306 205 307 l 192 306 q 189 299 191 299 l 184 300 q 176 298 179 298 l 177 310 q 172 315 177 311 q 160 306 170 315 l 158 306 q 155 312 155 307 l 155 312 q 149 301 154 304 l 149 301 q 143 319 147 301 q 131 330 142 322 q 128 336 130 336 q 125 332 128 334 l 123 332 q 110 342 116 342 q 107 340 109 340 l 106 342 l 107 350 q 58 378 89 359 q 56 395 55 383 q 52 397 52 395 l 52 404 q 41 410 44 410 l 41 412 q 55 422 43 412 l 55 423 q 54 435 55 425 l 55 442 q 50 444 50 441 l 50 447 q 50 457 50 453 l 49 457 l 49 458 l 50 458 z "},"=":{"ha":911,"x_min":22,"x_max":879,"o":"m 239 165 q 216 170 227 168 q 199 175 205 172 q 178 180 192 178 q 144 189 164 183 l 144 197 l 57 197 q 51 211 53 205 q 47 223 49 216 q 45 240 46 231 q 43 265 45 249 q 35 271 37 271 q 37 272 35 271 q 43 277 40 273 q 39 278 40 277 q 37 279 37 279 q 46 282 40 282 q 28 353 60 326 q 37 376 37 363 l 33 376 q 28 383 31 379 q 22 393 25 387 q 28 395 25 393 q 35 396 31 396 q 36 403 35 399 q 37 412 37 407 l 49 412 l 49 419 q 77 425 61 419 q 74 436 74 428 q 94 431 94 433 q 97 439 97 433 q 127 431 119 433 q 122 444 127 435 q 144 431 131 436 l 144 439 q 147 433 144 433 q 165 431 157 433 l 165 444 l 171 444 l 171 439 q 187 431 179 431 l 187 439 l 193 439 l 193 428 l 216 428 q 216 425 216 428 q 220 422 216 422 q 224 424 220 422 q 231 428 228 425 q 228 429 228 428 q 228 431 228 431 q 233 433 228 433 l 236 428 q 264 431 248 431 l 264 425 q 288 433 273 433 l 288 428 l 315 428 l 315 433 q 375 425 354 427 q 376 421 375 422 q 378 419 378 419 q 387 425 382 419 q 389 421 387 422 q 390 419 390 419 q 417 421 407 425 q 450 412 427 416 l 458 412 q 469 436 463 416 q 475 421 472 429 q 481 407 478 414 q 504 401 490 401 l 504 407 l 510 407 q 515 399 510 399 q 528 399 524 399 q 535 399 532 399 q 543 401 538 400 q 558 404 547 403 l 558 412 q 569 417 562 415 q 583 422 575 419 q 586 414 586 419 q 600 419 590 414 l 600 412 q 608 416 606 416 q 611 412 611 416 q 638 414 624 412 q 668 419 652 416 l 668 425 q 682 423 673 424 q 703 422 690 422 l 703 428 q 721 431 714 428 q 732 433 728 433 l 732 419 q 751 414 737 414 q 757 416 751 416 q 754 412 754 416 q 755 411 754 412 q 760 410 757 410 q 769 410 762 410 q 785 411 777 411 q 801 409 793 411 q 811 401 808 407 l 819 401 l 819 396 q 831 393 822 393 l 831 385 q 848 374 848 376 l 844 374 l 844 330 q 850 329 846 330 q 863 328 854 328 l 863 302 l 871 302 q 860 272 860 278 q 871 236 860 267 q 771 208 822 203 q 772 199 771 203 q 774 192 774 195 q 737 205 758 205 l 734 200 q 730 201 732 200 q 729 203 729 203 q 728 183 728 199 q 710 188 717 183 q 700 195 703 192 q 690 189 694 192 q 684 186 686 186 l 681 192 q 614 201 648 197 q 555 197 581 205 l 555 186 q 500 186 529 186 q 447 183 472 186 q 441 192 441 183 l 382 192 q 380 197 380 192 l 364 197 q 361 186 361 189 q 342 184 353 184 q 318 183 332 183 q 272 163 298 160 q 239 157 248 165 l 239 165 m 406 556 q 346 558 368 560 q 285 569 313 566 q 231 572 257 572 q 179 566 205 571 q 123 551 153 561 q 102 556 118 557 l 102 562 l 97 562 l 97 576 q 89 578 94 578 q 87 585 89 588 q 87 585 86 581 q 77 589 81 589 q 83 592 79 589 q 93 598 87 595 q 87 609 87 598 l 82 608 q 79 622 82 619 q 68 624 71 627 q 66 618 66 622 q 68 612 66 614 q 71 614 71 610 q 65 612 68 614 q 62 611 62 611 q 60 616 62 616 l 54 616 l 54 625 q 65 636 64 632 l 57 635 q 58 643 57 638 q 60 653 60 647 q 36 660 45 658 q 25 664 28 663 q 47 684 33 675 q 57 719 65 694 q 62 725 62 721 l 49 724 l 60 736 q 54 741 54 735 q 60 745 57 744 q 52 747 57 747 l 52 752 q 80 784 68 764 q 114 817 93 805 l 114 822 l 176 820 q 244 801 237 817 q 262 800 253 801 q 288 799 272 799 q 285 800 288 799 q 282 805 282 802 q 300 806 290 806 q 325 805 311 806 q 367 804 339 804 q 437 806 395 805 q 459 800 447 804 q 489 802 472 796 l 489 797 l 497 798 q 498 799 497 798 q 500 803 500 800 q 538 804 514 796 q 541 798 541 801 q 542 800 541 798 q 546 802 543 802 q 549 796 549 799 q 559 810 557 799 q 567 805 564 804 q 578 805 575 805 q 595 803 581 805 q 596 795 595 798 q 597 791 597 792 l 646 792 l 646 789 l 660 790 l 660 784 l 676 784 l 676 790 q 692 791 684 785 q 717 791 700 798 q 765 787 743 792 l 765 795 q 785 787 774 787 q 839 789 798 797 q 846 781 844 784 q 851 779 847 779 l 854 784 q 856 779 854 781 q 857 776 857 776 q 865 775 860 776 q 876 774 871 774 q 871 771 876 771 q 876 757 871 762 q 869 755 873 757 q 865 754 865 754 l 865 746 q 869 743 865 743 q 876 742 873 742 q 879 728 876 736 q 863 731 868 743 q 863 702 857 719 q 854 699 860 699 q 847 659 847 674 q 854 648 847 666 q 844 645 847 648 q 842 641 842 642 q 842 640 842 640 l 850 640 q 846 632 848 631 q 841 634 843 633 q 838 636 839 636 q 836 628 836 636 l 846 629 q 845 619 846 623 q 844 612 844 614 l 839 611 q 840 607 839 610 q 842 602 842 605 q 831 591 831 595 l 836 591 l 836 585 l 831 585 l 835 597 q 805 578 819 585 q 778 569 791 571 q 749 568 764 568 q 718 568 734 568 l 718 562 q 650 573 682 571 q 590 574 618 576 q 585 565 587 565 l 585 573 q 555 575 574 576 q 558 570 558 575 q 554 571 555 570 q 553 572 553 572 l 553 578 q 516 576 536 578 q 475 570 496 574 q 436 559 454 566 q 406 545 418 553 l 406 556 z "},">":{"ha":815,"x_min":50,"x_max":762,"o":"m 749 517 l 749 514 q 753 508 751 513 q 748 503 751 503 l 748 503 q 757 499 756 502 q 744 477 757 496 q 732 450 732 454 l 733 447 l 732 447 l 730 448 q 728 444 730 444 l 705 440 q 687 416 702 418 q 684 413 687 414 l 683 412 q 666 414 669 414 l 667 408 q 665 406 667 406 l 666 397 q 665 394 666 395 q 663 396 663 395 l 662 401 l 656 400 l 658 392 q 656 390 657 390 l 655 389 l 652 393 l 652 387 l 650 387 q 646 392 650 390 l 646 391 l 646 386 q 638 380 645 381 l 640 365 l 639 365 l 636 371 l 632 370 l 632 370 l 634 362 q 627 368 633 361 q 614 359 621 360 l 606 358 l 605 359 q 606 368 606 362 l 602 367 q 600 370 600 367 l 598 368 l 591 368 l 592 363 q 583 352 583 353 q 579 345 583 349 q 577 347 577 346 l 576 353 l 574 352 l 575 346 l 574 346 q 567 347 572 347 q 566 344 568 344 l 553 342 q 547 327 553 338 l 545 329 l 544 334 l 540 333 l 541 328 q 539 326 541 326 l 532 325 l 532 321 q 530 318 532 319 l 529 318 l 528 323 l 524 320 q 523 323 523 321 l 522 323 q 519 304 522 304 q 512 309 518 307 l 511 315 l 509 315 q 502 311 508 314 l 501 317 l 500 317 q 492 309 492 312 q 491 301 491 302 l 488 302 q 484 299 485 300 q 482 302 482 300 l 473 301 q 472 298 473 298 l 465 296 q 463 293 465 293 l 456 292 l 457 290 q 453 281 458 282 l 454 275 q 447 271 454 273 l 439 271 q 407 254 416 268 q 404 256 404 253 l 403 256 q 394 240 405 241 q 384 228 386 228 l 382 227 l 377 228 q 376 224 378 225 l 374 224 l 366 229 q 365 226 366 227 q 363 229 363 227 l 342 211 l 343 203 q 341 201 342 201 l 338 200 l 338 191 q 337 189 339 189 l 334 188 l 336 200 l 335 203 l 334 202 q 328 199 331 199 q 327 201 327 201 q 290 180 315 200 l 290 184 l 281 176 l 281 174 q 286 162 281 173 l 286 162 q 272 169 273 170 q 260 137 260 146 l 254 137 q 250 134 253 137 q 248 138 248 136 l 245 137 q 235 142 235 136 l 233 142 q 224 134 229 142 q 212 138 223 139 q 203 137 208 138 q 195 132 204 135 q 182 137 189 138 l 181 144 q 172 140 178 144 l 171 142 l 170 146 l 161 144 q 136 127 147 129 q 132 134 134 130 q 126 130 125 132 l 125 130 q 123 132 124 130 q 99 119 105 120 q 96 121 98 120 q 95 112 96 118 l 94 112 l 93 119 l 90 125 l 90 125 q 85 107 91 118 l 83 107 l 83 108 l 84 120 l 83 123 l 80 121 l 79 120 q 75 138 75 132 l 74 141 l 71 138 l 68 141 l 67 138 l 65 138 l 65 139 q 71 186 64 146 q 71 197 71 189 q 66 199 66 197 q 62 236 65 202 q 50 256 56 258 l 55 275 l 53 275 q 54 290 55 283 l 54 294 q 50 295 51 293 q 56 312 54 296 q 64 341 64 326 l 93 345 l 96 349 l 99 350 q 100 348 100 350 l 100 347 q 99 346 101 346 l 99 343 l 100 343 q 120 363 113 345 q 123 361 122 363 l 123 361 q 129 372 125 361 l 131 373 l 130 378 q 132 380 130 380 q 134 377 134 380 l 136 377 q 144 384 135 381 l 144 384 q 158 379 148 385 q 165 387 163 381 l 162 393 l 163 393 q 169 391 165 394 q 178 399 170 398 q 212 420 189 402 l 212 416 q 213 413 212 414 l 213 410 l 219 410 q 221 407 220 410 l 230 408 q 229 414 230 412 l 231 415 q 235 409 233 409 l 236 409 l 235 410 l 237 411 l 237 410 l 239 410 l 242 412 l 243 412 q 250 406 243 410 l 250 405 q 276 418 262 412 q 283 412 283 412 q 323 425 311 423 l 323 425 q 328 433 322 430 q 345 448 345 446 q 359 458 345 450 q 366 475 365 465 q 392 490 376 480 q 395 489 393 488 l 393 494 l 394 494 q 406 491 398 492 q 408 488 408 490 q 418 495 409 489 q 414 498 416 496 q 391 513 405 498 l 389 513 q 382 507 388 506 l 381 507 q 378 513 378 509 l 377 513 q 374 507 376 507 l 372 507 q 369 522 371 507 l 366 530 l 363 528 l 363 528 q 353 532 361 528 q 346 528 350 528 q 345 532 344 528 l 342 531 q 341 536 341 533 l 340 536 q 338 531 340 531 q 336 540 336 540 q 326 543 328 540 q 323 535 326 535 q 320 540 321 540 q 311 553 311 551 l 309 553 l 309 549 l 308 549 q 294 558 300 557 l 292 558 q 285 545 290 558 l 284 545 q 280 557 281 545 q 256 566 255 557 q 253 579 256 579 q 245 576 252 579 l 244 568 l 243 568 l 240 570 l 237 570 q 235 562 236 565 l 233 563 q 233 566 234 566 l 214 566 q 211 571 212 571 q 197 580 205 573 q 185 558 189 567 l 184 558 l 183 575 l 182 575 q 172 564 180 564 q 157 574 163 574 q 154 570 156 570 q 153 572 153 570 l 154 582 l 148 582 l 144 578 q 139 585 142 578 q 123 579 139 582 l 123 579 q 119 587 123 583 l 118 587 q 111 583 115 587 l 111 583 q 106 587 111 587 l 106 591 l 98 583 l 97 583 l 98 593 q 92 594 95 594 q 90 592 92 592 l 85 593 q 83 594 83 593 l 85 612 l 84 612 l 80 612 q 73 619 75 612 q 70 623 69 619 l 71 625 l 71 626 q 64 669 67 626 l 64 670 l 64 670 l 60 656 l 58 657 l 66 717 l 58 717 q 106 808 58 718 q 104 811 105 808 q 159 862 130 863 l 174 862 q 192 855 189 862 l 195 854 l 201 855 q 207 839 199 845 q 209 842 208 841 l 210 842 l 209 834 q 225 824 218 834 q 229 831 228 831 l 230 831 l 230 827 l 231 827 q 233 839 233 836 l 235 839 q 241 822 235 822 q 252 810 248 822 q 275 801 260 810 l 275 802 q 277 804 275 803 l 278 804 l 278 798 l 280 798 q 282 800 281 800 l 283 800 q 317 772 300 772 l 317 783 q 330 760 324 772 q 337 763 334 763 q 338 757 337 757 q 350 760 346 760 l 352 760 q 371 751 361 760 q 374 746 374 751 q 385 749 382 749 l 387 749 q 399 741 393 749 q 401 744 399 744 l 402 744 l 401 741 l 405 741 q 412 745 408 741 q 412 741 412 743 l 414 741 q 421 743 415 741 l 420 737 l 423 737 q 428 744 426 744 l 429 744 q 430 742 431 744 l 429 737 l 431 737 l 432 743 l 434 743 q 446 736 433 738 l 450 736 q 452 734 452 736 l 450 723 l 452 723 q 487 699 460 723 q 488 701 488 699 q 491 707 490 707 l 493 707 q 502 703 496 705 l 501 700 l 499 698 q 520 682 515 682 l 520 683 l 522 688 l 524 688 l 523 684 q 524 673 522 679 q 535 677 531 674 l 536 675 q 533 669 535 669 q 541 651 540 653 q 560 661 549 661 l 561 659 l 559 650 l 568 648 q 606 660 574 648 l 606 658 q 616 646 604 646 l 618 646 q 621 652 620 652 l 627 650 q 634 652 631 652 l 633 641 q 637 635 633 640 q 650 643 639 635 l 652 643 q 654 637 654 642 l 654 637 q 661 647 655 644 l 661 647 q 666 629 663 647 q 677 617 667 627 q 680 612 678 612 q 683 615 680 614 l 684 615 q 698 605 692 605 q 701 606 699 606 l 701 604 l 700 597 q 747 566 718 587 q 749 549 751 561 q 753 547 753 549 l 752 540 q 762 534 760 534 l 762 531 q 749 522 761 531 l 751 522 l 749 517 z "},"?":{"ha":925,"x_min":-18,"x_max":865,"o":"m 458 301 q 455 321 458 314 q 447 331 452 328 q 432 336 441 334 q 410 342 422 338 q 383 354 401 350 q 358 361 365 358 l 358 367 q 365 389 368 368 q 363 406 363 400 q 362 415 362 412 q 357 416 359 415 q 355 418 355 418 q 365 424 361 419 q 363 434 358 432 q 368 444 368 436 q 360 443 362 444 q 358 441 358 441 q 365 472 359 456 q 365 498 370 489 q 366 500 365 498 q 370 501 368 501 q 362 518 362 510 q 370 521 365 521 q 358 541 370 541 q 369 563 368 550 q 387 586 370 575 q 386 597 387 591 q 385 610 385 603 l 379 610 l 379 608 q 373 612 373 610 q 382 614 376 612 q 393 615 387 615 q 389 625 393 624 q 385 632 385 627 l 395 632 l 401 637 q 385 657 390 654 q 365 667 379 660 q 358 681 362 667 q 379 685 368 681 q 407 694 390 689 q 406 694 407 694 q 404 697 404 694 q 417 703 410 700 q 436 708 425 705 l 436 720 l 430 720 q 426 718 425 714 q 419 720 427 722 q 451 744 427 729 q 498 762 475 760 q 501 771 498 768 q 469 782 481 782 q 426 790 463 789 q 398 791 408 791 q 387 791 389 791 q 385 790 387 791 q 376 786 382 789 q 378 785 376 786 q 382 783 379 783 q 369 783 373 783 q 344 779 365 782 q 333 765 342 775 l 325 765 q 322 751 322 757 q 293 743 301 749 q 273 729 284 737 q 268 732 271 729 q 247 702 260 717 q 216 665 233 686 q 154 663 189 665 q 100 660 119 660 l 97 663 l 89 663 q 94 648 94 661 q 73 661 86 657 q 44 666 60 665 q 14 667 29 667 q -14 667 -1 667 q -16 691 -18 679 q -8 716 -13 704 q 1 740 -3 728 q 5 765 5 753 q 14 779 12 771 q 18 794 15 786 q 5 806 5 796 l 20 806 q 26 815 23 814 q 32 825 29 817 q 40 827 35 825 q 51 828 45 828 l 51 836 q 60 839 54 839 l 60 851 q 62 853 60 851 q 68 854 65 854 q 68 871 69 863 q 83 883 75 871 q 94 900 92 896 q 123 909 108 890 q 140 939 140 930 q 170 977 162 945 l 174 974 q 184 981 178 979 q 197 983 190 982 q 211 987 204 985 q 224 996 218 989 q 228 997 224 996 q 233 999 231 999 l 233 1004 q 245 1004 241 1002 l 245 1010 q 256 1007 254 1010 q 259 1009 256 1007 q 268 1017 262 1011 q 292 1018 281 1014 q 319 1028 302 1022 q 317 1039 317 1031 q 358 1059 347 1040 q 360 1051 358 1055 q 365 1047 362 1047 l 368 1053 q 380 1047 373 1044 q 404 1042 387 1050 q 402 1046 404 1042 q 401 1053 401 1050 q 404 1048 401 1050 q 407 1047 407 1047 q 412 1050 410 1047 q 422 1042 412 1043 q 427 1044 425 1044 q 427 1043 427 1044 q 430 1042 427 1042 q 477 1043 452 1042 q 526 1044 501 1044 q 517 1042 524 1042 l 555 1042 q 577 1038 564 1034 q 607 1034 591 1042 l 652 1034 q 656 1022 655 1028 q 664 1017 658 1017 q 672 1019 667 1019 q 673 1015 672 1017 q 675 1013 675 1013 q 686 1014 676 1014 q 691 1010 686 1010 l 688 1004 q 697 1007 691 1007 q 700 999 697 1002 q 703 997 700 999 q 707 996 705 996 q 708 999 707 996 q 709 1004 709 1002 q 720 990 719 997 l 729 990 q 732 993 729 993 q 732 991 732 993 q 734 990 732 990 q 743 996 740 996 q 751 990 745 996 q 751 981 748 982 q 757 971 754 979 q 779 969 766 971 q 805 960 791 968 q 811 962 808 962 q 809 953 810 957 q 808 945 808 949 q 819 925 812 943 q 829 922 822 922 q 831 901 819 914 q 851 876 843 888 q 847 851 850 864 q 840 825 844 839 q 851 777 831 800 q 846 774 848 777 q 854 768 846 768 l 846 760 q 848 758 846 760 q 854 757 851 757 q 857 743 854 751 l 854 743 q 854 734 855 736 q 857 733 854 734 q 865 729 859 732 q 854 732 857 732 q 833 712 847 717 q 826 684 819 708 q 800 657 810 676 q 802 656 800 657 q 811 652 805 654 q 800 648 802 652 q 802 643 802 646 q 753 616 774 629 q 707 589 732 603 q 700 575 704 576 q 669 550 703 559 q 655 539 661 543 q 646 529 650 534 q 648 522 646 526 q 652 518 650 518 q 646 510 648 513 q 643 507 643 507 l 646 504 q 637 496 639 501 q 642 494 637 496 q 648 493 646 493 q 640 487 644 490 q 629 481 635 484 q 637 478 631 478 q 631 450 631 476 q 627 449 629 450 q 626 447 626 447 q 640 429 626 435 q 631 427 635 429 q 633 424 631 427 q 637 421 635 421 q 631 418 635 421 q 634 416 631 418 q 643 412 637 415 l 629 399 q 623 385 629 390 q 618 355 626 371 q 616 357 618 355 q 615 361 615 358 q 604 347 606 351 q 600 350 601 347 q 598 353 598 353 q 595 347 595 350 q 568 342 578 347 q 544 336 558 336 q 541 322 544 330 q 540 328 541 325 q 538 336 538 330 q 533 325 533 330 q 529 334 529 330 q 501 322 512 323 q 496 307 496 315 l 490 307 l 487 301 q 469 310 477 301 q 467 301 467 307 l 458 301 m 407 0 q 395 7 398 5 q 390 17 393 8 q 338 40 341 17 q 338 82 336 65 q 344 79 344 82 q 355 100 355 94 q 338 106 344 100 q 344 127 344 121 q 350 125 347 127 q 353 131 350 127 l 344 131 q 350 163 344 155 q 338 184 338 180 q 325 187 330 187 q 358 203 332 203 q 398 220 379 216 q 427 232 407 228 q 464 244 447 236 q 484 233 464 236 q 521 236 504 231 l 515 231 q 541 231 526 220 l 536 236 q 550 231 544 233 q 561 225 557 228 q 573 228 568 227 q 583 231 579 229 q 574 222 583 228 q 598 214 583 214 l 598 211 q 630 203 610 211 q 629 179 652 197 l 631 174 q 618 165 625 172 q 631 151 631 160 q 623 160 623 151 l 618 160 q 623 151 623 154 q 607 139 607 144 q 621 134 604 142 l 607 134 q 610 122 607 125 l 618 122 q 611 117 615 119 q 607 114 607 114 q 608 87 610 103 q 623 52 607 71 q 615 25 622 50 q 614 26 615 25 q 610 29 612 26 q 574 22 586 22 q 569 25 572 25 q 565 20 566 22 q 564 17 564 17 l 555 17 q 564 3 566 5 q 531 15 553 14 q 501 11 509 17 q 484 17 490 11 q 436 14 459 8 q 427 3 430 12 l 419 3 l 419 8 q 416 9 418 8 q 415 11 415 11 q 411 4 412 8 q 407 0 410 0 z "},"@":{"ha":1017,"x_min":68,"x_max":949,"o":"m 808 35 q 800 52 800 43 q 771 44 785 52 q 745 35 757 37 q 737 17 740 17 q 736 18 737 17 q 734 22 734 20 q 629 0 679 22 q 626 3 626 0 q 626 5 626 5 q 616 1 621 3 q 611 0 611 0 l 611 17 q 600 20 608 20 q 606 29 600 25 q 558 22 581 22 q 524 20 537 22 q 521 11 521 17 q 515 8 521 8 l 515 14 l 507 14 q 509 29 509 22 q 500 26 504 28 q 494 25 497 25 l 492 29 q 486 28 486 29 q 480 35 480 28 q 429 46 448 25 q 418 43 420 46 q 415 49 418 46 l 410 43 l 407 49 q 380 43 393 49 q 358 52 366 57 q 361 62 362 56 q 347 57 363 65 q 336 77 338 74 q 326 74 333 74 l 315 85 q 309 82 309 85 l 309 94 l 290 94 l 288 100 q 275 98 279 100 q 267 97 271 97 q 268 98 267 97 q 269 103 269 100 l 264 103 q 258 109 261 106 q 255 117 255 111 l 252 117 q 251 118 252 117 q 250 122 250 119 q 233 119 236 117 l 233 131 q 229 127 231 127 q 228 127 228 127 l 228 134 q 223 131 224 131 q 222 131 222 131 q 189 172 199 151 q 153 193 178 193 q 154 195 153 193 q 155 199 155 196 l 150 199 q 133 231 143 221 q 138 236 138 231 q 127 256 133 253 q 125 273 122 258 q 117 271 122 271 q 122 277 117 275 q 119 285 119 279 l 114 285 q 111 307 114 298 l 105 307 q 100 318 102 315 q 97 323 98 321 q 95 328 96 325 q 97 339 94 330 q 93 342 97 342 q 100 347 97 347 q 85 358 85 355 q 90 361 87 358 q 85 385 90 372 q 68 387 71 387 l 68 429 l 76 429 q 73 458 76 447 q 75 460 73 458 q 79 461 76 461 q 79 489 72 472 q 75 494 71 486 q 81 507 79 501 q 76 518 79 513 q 73 532 73 524 l 90 549 q 87 558 87 554 q 96 575 96 567 q 105 591 97 583 q 116 624 105 608 q 127 665 127 640 q 136 669 133 669 l 136 692 l 142 692 q 147 726 142 714 q 149 724 147 726 q 153 717 150 722 q 157 728 154 720 q 162 749 159 736 q 171 783 171 774 q 179 796 174 787 q 194 815 184 804 q 216 846 215 840 q 231 848 224 848 q 241 851 236 848 q 278 883 261 868 q 321 911 296 897 l 321 922 q 323 914 323 920 q 333 936 333 924 q 334 937 333 936 q 338 939 336 939 l 338 933 q 347 936 345 933 q 350 930 347 933 q 365 940 358 936 q 378 947 372 945 q 378 960 366 949 l 383 960 l 383 968 q 387 960 383 960 q 395 962 390 962 q 398 968 395 968 q 443 982 411 962 q 444 985 443 982 q 444 990 444 987 q 452 985 444 985 q 486 999 469 996 q 526 1010 503 1002 q 529 1014 526 1014 q 539 1019 533 1017 q 554 1025 546 1022 q 573 1026 559 1025 q 597 1036 586 1028 l 600 1034 q 626 1047 611 1035 q 629 1059 626 1050 q 640 1055 631 1059 q 631 1050 637 1055 l 646 1050 l 646 1042 l 648 1044 q 651 1053 648 1053 l 651 1042 q 651 1019 633 1031 q 648 1014 648 1017 q 663 1010 648 1010 l 663 996 q 677 999 672 996 l 677 993 q 686 990 680 990 q 686 987 686 990 q 688 985 686 985 q 691 983 688 985 q 700 982 694 982 l 700 977 q 708 979 703 979 q 713 987 709 987 q 716 974 713 982 q 722 971 720 974 q 730 971 725 968 q 768 962 730 956 l 768 957 q 776 960 770 960 q 776 957 776 960 q 779 956 776 956 q 791 960 785 960 l 791 956 q 794 954 791 956 q 800 953 797 953 l 800 947 q 802 949 800 947 q 808 950 805 950 q 817 942 808 942 q 822 945 819 945 q 825 928 819 933 l 827 928 q 839 905 831 924 l 868 905 q 869 903 868 905 q 873 896 871 901 q 875 897 873 896 q 879 900 876 897 q 883 893 879 896 q 890 888 887 890 q 887 876 887 885 l 890 871 l 890 865 q 904 851 899 860 q 907 857 904 854 q 911 815 916 838 q 922 777 907 791 q 924 769 922 774 q 928 765 925 765 q 929 740 922 757 q 944 711 936 722 l 939 711 q 941 694 939 703 q 947 692 947 694 l 941 692 q 944 684 944 689 q 949 684 949 685 q 944 681 947 681 q 949 663 944 669 q 942 639 943 650 q 942 616 941 628 q 943 593 943 604 q 939 570 943 582 q 937 576 939 572 q 936 586 936 581 q 908 538 904 570 q 899 534 903 534 q 886 505 899 518 q 865 481 873 492 q 867 472 865 475 q 868 467 868 469 q 859 461 865 467 l 859 453 q 850 447 854 450 q 842 441 846 444 l 842 432 q 819 404 825 421 q 805 385 814 387 q 765 349 794 370 q 725 328 737 328 q 720 330 725 330 q 659 372 713 301 q 605 330 627 370 q 578 290 583 290 q 565 281 569 285 q 559 277 561 277 q 556 281 558 278 q 551 290 554 285 q 521 285 541 290 l 524 290 l 518 290 q 498 297 504 301 q 483 293 492 293 q 471 303 479 300 q 455 307 464 306 q 438 309 446 309 q 426 313 431 310 q 418 325 419 322 l 410 325 l 404 330 l 395 330 l 395 336 q 369 345 380 336 q 350 355 358 353 q 345 379 345 366 l 338 379 q 341 401 341 390 q 338 403 338 401 q 338 404 338 404 q 345 407 338 407 q 339 417 345 410 q 333 432 333 424 q 329 432 329 429 q 329 432 329 432 q 330 435 330 432 q 321 453 330 453 q 319 456 321 453 q 318 461 318 458 q 322 464 318 461 q 329 469 326 467 q 328 487 329 478 q 326 504 326 496 q 330 507 329 507 l 330 513 q 353 526 349 522 l 353 541 q 358 543 355 543 q 355 550 355 546 q 363 564 362 557 q 371 565 366 564 q 380 567 375 567 l 380 581 q 401 591 385 585 q 410 620 401 610 q 420 646 418 629 q 437 660 420 648 q 435 665 435 660 q 444 670 443 665 q 452 684 444 675 q 464 684 461 684 q 475 689 467 684 q 472 700 472 692 q 497 714 489 707 l 497 708 q 506 717 503 711 q 518 726 509 722 q 529 729 524 724 l 529 734 q 543 741 538 741 q 543 737 543 741 q 546 734 543 734 q 565 733 554 734 q 586 732 575 732 q 587 726 586 729 q 589 724 589 724 q 594 726 591 724 q 597 722 597 724 q 598 722 597 722 q 602 724 600 722 l 602 717 q 613 718 608 717 q 626 720 618 720 l 629 717 q 643 722 633 717 q 646 717 643 720 q 671 720 659 717 q 673 711 671 714 q 680 700 676 708 q 683 701 680 700 q 688 703 686 703 l 688 692 l 692 692 q 697 667 692 676 q 683 654 696 664 q 697 663 690 656 l 697 648 q 686 612 686 637 l 692 578 l 692 583 q 703 591 699 590 l 703 595 l 705 597 l 705 603 q 707 603 705 603 q 711 606 708 603 q 711 632 712 618 q 731 640 716 635 q 749 663 745 646 l 751 663 q 744 684 750 669 q 736 706 741 689 q 722 751 732 724 q 718 753 720 751 q 716 754 716 754 q 697 765 709 765 q 696 772 697 768 q 694 782 694 777 q 664 784 683 782 q 646 791 646 786 q 604 785 626 789 q 554 774 582 781 q 475 737 501 764 q 438 724 444 726 q 423 717 432 722 l 423 711 q 412 705 427 711 q 393 681 403 696 l 393 669 q 387 665 387 668 q 393 665 393 667 q 382 655 389 661 q 370 644 376 650 q 360 631 363 637 q 358 618 357 624 q 345 612 361 621 l 345 608 q 330 595 332 602 l 330 589 l 326 589 q 328 585 326 586 q 329 583 329 583 q 325 582 326 583 q 323 581 323 581 q 307 558 322 574 q 307 549 307 553 q 309 538 307 546 q 305 536 307 538 q 304 534 304 534 q 307 515 304 524 q 302 513 304 513 q 301 513 301 513 q 297 484 293 496 q 304 456 301 472 q 298 453 301 453 q 289 420 293 436 q 309 399 284 404 q 308 380 308 392 q 309 358 308 370 q 314 335 311 346 q 323 319 318 325 q 333 322 326 322 q 334 316 333 319 q 336 313 336 313 q 338 314 336 313 q 345 315 341 315 q 347 310 345 313 q 361 313 350 313 q 362 307 361 310 q 363 304 363 304 q 365 304 363 304 q 369 307 366 304 q 369 313 368 313 q 372 307 369 310 q 375 313 372 310 q 380 301 375 307 q 382 301 380 301 q 386 304 383 301 q 388 297 386 301 q 393 293 390 293 q 394 293 393 293 q 398 296 395 293 q 397 289 398 290 q 395 288 395 288 q 423 285 412 288 l 423 279 q 437 285 427 279 q 446 274 440 277 q 461 258 452 271 q 467 263 464 258 q 472 271 469 268 l 472 253 q 492 258 481 253 q 497 250 492 250 q 503 253 500 250 l 503 241 q 515 231 511 233 q 524 228 519 228 q 535 229 528 228 q 557 231 543 231 l 559 225 q 583 219 564 222 q 618 228 602 216 q 621 222 618 225 l 631 222 q 635 214 635 222 q 640 216 637 216 l 640 211 q 644 214 640 211 q 651 220 648 216 q 652 214 651 216 q 654 211 654 211 q 663 214 659 211 q 659 214 663 214 q 656 216 656 214 q 658 216 656 216 q 663 220 659 216 q 659 222 659 220 q 659 225 659 225 q 692 253 680 241 q 703 250 700 250 l 703 258 q 708 256 711 258 l 708 261 q 712 262 708 261 q 722 262 716 262 q 724 264 722 262 q 725 268 725 265 q 751 278 740 273 q 779 298 762 282 q 819 304 783 293 l 819 296 q 822 294 819 296 q 827 293 825 293 q 844 261 827 279 q 857 253 850 261 l 871 253 q 868 239 868 244 q 862 237 865 239 q 859 236 859 236 q 871 228 867 229 l 871 220 q 873 218 871 220 q 882 216 876 216 q 883 207 882 211 q 884 201 884 203 q 887 202 884 201 q 893 203 890 203 q 904 194 897 200 q 922 179 911 187 q 916 174 916 178 q 918 175 916 174 q 922 176 919 176 q 925 165 922 174 l 933 165 q 925 156 928 160 q 919 149 922 151 q 922 144 922 146 q 911 142 913 144 l 911 131 l 908 127 l 911 125 q 899 119 904 119 l 899 114 q 891 113 896 114 q 887 111 887 111 l 887 103 q 878 96 882 100 q 868 92 873 92 q 869 88 868 89 q 871 87 871 87 q 850 72 857 79 q 839 62 844 65 q 839 61 839 62 q 842 60 839 60 q 839 54 839 57 l 836 60 q 817 49 811 49 q 814 35 814 40 l 808 35 m 519 547 q 520 542 520 545 q 496 513 517 542 l 498 506 q 481 492 484 498 l 481 476 q 486 473 486 476 l 486 472 q 479 456 483 468 q 481 432 481 433 q 481 427 481 430 q 496 416 484 426 l 512 416 q 532 425 519 425 q 532 427 532 427 q 534 422 534 424 l 535 422 q 553 441 547 441 q 555 438 553 438 l 557 438 q 566 455 564 438 q 569 461 569 455 l 572 461 q 574 456 572 456 l 577 456 q 610 496 583 472 q 611 511 610 499 q 605 519 610 511 q 611 527 611 521 q 605 545 605 545 l 606 554 q 605 555 605 554 q 611 564 610 564 l 610 567 l 610 568 q 616 579 615 579 l 616 581 q 598 583 611 581 q 535 566 535 582 q 519 547 532 566 z "},"A":{"ha":1017,"x_min":21,"x_max":1002,"o":"m 222 3 l 218 3 l 218 5 q 211 3 211 5 l 211 -1 q 197 3 207 -1 q 190 2 197 -1 q 183 4 183 4 q 166 10 182 8 q 151 12 151 12 l 150 18 l 138 18 q 97 45 137 33 q 57 57 60 55 l 57 64 q 51 65 54 64 q 47 66 47 66 l 45 79 q 37 83 43 83 l 37 88 q 25 96 27 88 q 23 106 23 103 q 30 112 30 107 l 24 112 q 21 134 22 121 q 30 143 28 134 q 33 159 31 153 q 42 157 38 157 q 45 197 47 191 q 55 195 53 197 q 59 208 60 203 l 73 208 l 73 212 q 74 211 73 212 q 77 210 75 210 q 82 205 78 205 l 81 214 l 87 214 q 91 228 86 222 q 95 243 96 235 l 104 243 l 104 250 q 106 252 106 250 l 102 252 l 106 252 q 102 269 106 260 l 119 269 l 119 273 l 109 273 q 138 268 107 269 l 137 275 l 139 277 q 140 326 150 311 q 151 321 149 326 l 151 332 l 160 332 l 158 355 l 165 355 q 157 364 158 355 l 164 364 l 163 381 l 168 381 l 168 385 q 187 404 179 385 q 188 402 187 404 q 191 399 189 400 q 200 419 191 415 q 214 435 210 423 l 221 435 l 220 457 l 224 457 l 222 483 l 218 483 q 220 511 221 498 q 242 519 227 511 l 241 530 q 243 528 241 528 q 246 528 246 528 q 247 533 246 530 q 248 543 248 536 q 252 545 248 543 q 258 549 256 547 l 258 555 l 260 555 q 265 573 264 564 q 269 591 265 583 l 278 591 q 273 600 273 593 q 283 612 284 608 l 295 612 l 295 618 q 297 618 295 618 q 301 621 299 618 l 301 623 q 312 645 305 631 q 296 665 319 659 l 302 665 l 302 676 q 307 680 302 676 q 319 689 313 684 q 331 700 326 694 q 338 707 336 705 l 346 707 l 346 709 l 350 709 q 356 722 349 715 l 358 722 q 369 736 360 730 q 366 758 378 743 l 369 758 q 339 781 368 765 l 346 781 l 346 787 l 350 787 l 350 789 l 352 789 q 369 824 357 814 q 386 859 380 833 l 388 859 l 388 863 q 397 865 390 863 q 390 867 390 865 q 389 869 389 869 q 420 916 414 878 l 418 918 q 424 933 425 920 q 419 935 421 933 q 425 935 421 933 q 435 937 428 937 l 435 939 l 432 943 q 441 952 441 947 q 435 953 436 952 q 434 954 434 954 q 464 974 444 956 q 488 1000 484 991 l 490 1000 l 490 1004 q 503 1025 505 1004 l 507 1025 q 578 1060 505 1047 l 577 1071 l 589 1071 l 588 1077 q 600 1079 597 1079 q 599 1074 600 1077 q 598 1070 598 1070 q 608 1065 602 1066 q 622 1056 620 1059 q 623 1046 623 1053 l 633 1046 q 634 1024 631 1038 q 640 1002 637 1011 l 647 1002 q 644 967 644 989 q 660 931 645 945 l 663 903 q 663 901 663 901 q 660 901 660 901 q 662 874 659 886 q 689 844 665 862 q 701 818 684 825 q 686 818 688 823 q 684 793 681 807 q 694 778 684 791 q 705 756 705 764 q 711 753 708 756 l 711 758 q 712 757 711 758 q 719 755 713 755 q 713 745 719 755 l 721 743 q 726 723 722 734 l 732 723 q 723 682 706 692 l 716 677 l 718 677 q 734 662 720 662 q 732 627 731 642 q 745 597 733 614 l 751 597 q 752 587 751 590 q 754 579 753 584 l 756 577 q 760 557 759 568 l 765 557 l 766 549 l 770 549 l 771 540 l 775 540 l 775 538 l 783 533 q 787 519 783 527 q 792 503 791 511 q 802 500 800 503 q 805 491 802 494 q 814 479 807 488 l 822 478 q 820 474 820 476 q 826 448 825 463 l 831 444 q 827 439 827 441 l 831 439 l 833 418 q 838 420 838 418 q 841 416 838 418 l 847 415 l 848 407 l 846 407 q 855 398 846 400 q 855 398 855 398 q 857 400 858 398 l 859 385 l 850 385 q 853 370 853 374 q 858 366 854 366 q 861 366 861 366 l 858 363 l 859 359 l 861 359 l 862 344 l 869 344 q 872 335 871 341 l 876 335 l 880 332 l 877 333 q 880 319 878 322 q 895 298 881 315 l 903 298 q 905 289 903 293 l 910 289 l 911 284 l 917 284 q 936 254 920 260 q 935 239 937 247 l 930 239 l 931 230 q 933 229 931 230 q 939 228 935 228 l 939 214 l 943 214 q 946 181 941 197 q 954 150 952 165 l 956 150 q 960 137 959 141 q 978 130 962 132 l 979 125 l 969 125 q 968 119 970 121 q 967 117 967 117 l 990 95 l 983 95 q 984 91 983 93 q 985 88 985 88 q 989 87 985 88 q 1002 86 993 86 q 995 84 995 84 q 993 84 993 84 q 996 77 996 79 l 991 77 q 989 61 989 71 q 989 41 989 52 q 961 21 977 22 q 926 17 945 21 l 927 13 q 910 10 918 13 q 893 5 902 7 l 894 -3 l 889 -3 l 889 3 q 886 -3 886 -1 q 870 10 876 10 q 855 13 865 10 l 856 4 l 850 4 l 850 6 q 805 24 825 14 q 766 39 785 34 l 765 54 l 758 54 q 746 68 757 63 q 735 81 735 74 q 733 87 735 83 q 734 100 732 92 q 732 100 732 100 q 731 102 731 102 q 730 130 729 119 q 730 148 730 141 q 723 149 727 148 q 718 152 718 150 l 720 157 q 701 175 703 170 q 688 187 699 180 l 687 196 l 677 197 l 682 196 q 686 214 686 214 q 680 227 681 218 l 673 227 l 673 233 q 659 229 664 229 q 650 229 652 229 l 649 236 q 644 225 645 236 q 640 236 640 234 q 622 235 633 237 q 621 243 621 241 l 614 239 l 612 243 q 610 239 609 243 l 609 245 q 584 249 593 246 l 584 251 q 559 256 572 256 l 559 260 q 555 261 559 260 q 543 264 550 262 l 515 266 q 514 255 514 257 q 514 253 514 253 q 505 257 507 253 q 489 252 494 251 l 489 247 q 458 233 463 235 q 454 231 454 231 l 461 224 l 438 224 l 434 220 l 422 221 q 424 213 423 216 q 425 210 425 210 l 418 210 q 382 201 413 193 q 356 186 356 212 l 358 186 l 359 176 l 357 176 q 355 158 352 169 q 349 150 359 147 q 340 127 351 135 q 342 116 340 118 q 334 19 323 75 l 341 12 q 329 0 335 10 q 280 9 302 12 q 241 2 257 6 l 241 -4 l 222 -3 l 222 3 m 503 406 q 507 414 507 410 l 506 418 l 517 418 q 528 433 517 429 l 526 450 q 531 451 526 450 q 538 456 536 452 q 545 444 545 446 q 555 443 548 444 q 574 440 562 443 q 595 437 585 438 q 608 437 606 437 q 606 446 608 437 l 612 446 q 610 451 612 448 q 606 459 607 454 q 600 469 606 459 q 595 481 593 479 q 593 485 593 481 q 594 487 593 485 q 602 489 595 489 q 594 490 595 489 q 593 492 593 492 q 598 505 599 496 q 592 525 597 515 q 583 544 587 534 q 576 557 578 554 q 580 580 587 565 q 572 604 573 595 l 574 608 q 569 626 569 612 q 569 641 569 639 q 528 640 549 639 q 509 640 512 640 l 512 612 l 505 612 q 499 600 505 604 q 505 587 492 595 l 500 583 l 494 583 q 490 571 491 576 q 486 559 490 566 q 488 558 486 559 q 493 557 490 557 q 481 531 487 546 q 469 510 475 516 q 450 489 460 495 q 441 477 456 476 q 453 447 438 459 q 476 417 468 435 q 497 410 480 417 q 501 414 497 414 l 503 406 z "},"B":{"ha":916,"x_min":33,"x_max":891,"o":"m 449 -9 q 430 -4 437 -9 l 430 0 l 421 0 q 420 0 421 0 q 418 3 418 0 q 370 14 388 3 q 363 9 368 11 q 359 8 359 8 l 353 14 l 296 14 q 296 20 299 17 q 262 5 287 12 l 262 8 q 214 8 237 8 q 178 5 194 8 q 151 8 153 11 q 148 11 148 8 q 148 14 148 14 q 128 19 134 14 q 116 28 123 25 q 113 62 111 52 l 102 62 q 113 68 102 65 l 113 74 q 119 77 116 77 l 119 89 q 121 90 119 89 q 125 94 123 92 q 113 111 115 104 q 85 117 88 111 q 108 122 83 122 l 108 136 q 88 139 94 139 q 91 154 91 142 l 83 154 l 88 160 q 85 171 80 176 l 88 171 l 88 179 q 76 182 80 179 q 66 187 71 184 q 74 196 67 193 q 68 199 74 199 q 73 209 71 201 q 74 216 74 216 q 60 229 59 216 q 66 248 62 241 q 66 258 62 253 q 60 263 63 261 q 54 268 58 265 q 59 271 56 268 l 51 271 q 58 281 51 277 q 56 296 66 285 l 63 296 q 56 304 63 297 q 58 309 60 307 q 50 311 55 310 q 41 313 45 311 q 37 315 37 314 q 45 325 42 322 q 39 339 47 328 q 43 353 39 347 q 47 364 47 358 q 51 370 47 370 q 47 371 47 370 q 47 372 47 372 q 54 393 54 383 q 43 395 45 393 q 42 398 41 396 q 45 402 43 400 q 45 407 46 404 q 46 407 45 407 q 47 410 47 407 q 34 407 45 407 l 34 410 q 37 410 33 408 q 47 415 41 411 q 42 416 45 415 q 39 418 39 418 q 51 435 54 424 q 43 432 45 432 q 42 432 42 432 q 43 434 42 432 q 45 439 45 436 l 42 444 q 45 447 42 447 q 39 436 45 436 q 39 444 41 441 l 37 444 q 41 455 38 446 q 48 472 45 465 q 51 481 51 479 q 56 493 62 488 l 62 498 q 59 524 56 521 q 61 522 59 524 q 66 521 63 521 q 56 543 66 533 l 59 546 q 56 561 56 554 q 56 574 56 568 q 54 585 56 579 q 42 600 51 591 q 43 602 42 600 q 47 603 45 603 q 45 610 45 606 l 39 612 l 39 618 q 54 621 47 621 l 54 632 q 43 643 42 640 q 45 654 45 646 q 46 653 45 654 q 51 652 47 652 q 52 667 51 657 q 54 677 54 677 q 48 679 54 675 q 42 684 42 684 q 45 710 45 705 q 45 720 45 714 q 47 754 71 739 q 56 761 54 754 q 63 774 59 768 q 56 782 56 782 q 56 783 56 783 l 62 786 q 71 828 62 807 q 64 840 66 833 q 63 848 63 846 q 56 846 60 846 q 59 860 62 860 q 51 863 56 863 q 51 864 51 863 q 54 868 51 865 q 62 871 59 868 q 62 879 62 873 q 66 890 63 885 q 67 892 66 890 q 71 893 68 893 q 68 905 71 903 q 85 920 81 918 q 63 925 79 925 q 74 933 74 925 q 68 936 74 936 l 74 942 l 74 956 l 71 957 l 77 962 l 77 965 l 68 965 q 77 975 77 974 q 91 982 77 977 q 96 996 91 986 q 91 999 94 996 q 98 1001 92 999 q 111 1006 104 1003 q 123 1013 117 1010 q 128 1019 128 1017 l 128 1022 q 144 1037 137 1031 q 156 1047 151 1043 q 171 1038 156 1039 q 199 1039 185 1036 l 199 1036 l 205 1036 q 267 1034 230 1017 q 293 1036 278 1035 q 327 1036 307 1036 q 349 1048 338 1042 q 369 1056 359 1054 q 390 1055 380 1059 q 413 1039 401 1051 q 444 1039 430 1040 q 435 1036 438 1039 q 446 1021 441 1028 q 460 1010 452 1014 l 466 1010 q 490 1002 466 1004 q 505 982 492 993 q 532 968 517 971 l 532 971 q 535 958 532 962 q 541 947 538 953 q 555 939 548 947 q 584 942 566 942 q 577 939 584 939 q 578 935 577 936 q 580 933 580 933 q 584 936 580 936 l 584 925 l 589 925 q 604 914 600 916 q 604 916 604 914 q 606 917 604 917 q 629 897 608 904 q 625 885 629 888 q 637 882 634 885 q 625 871 633 880 q 639 873 631 871 q 654 865 646 876 l 677 865 l 677 863 l 669 863 q 671 857 669 857 l 674 857 q 677 846 674 848 l 686 846 q 699 839 686 839 q 731 803 715 828 q 728 787 731 791 q 726 771 726 782 q 728 739 726 749 q 734 720 731 729 q 751 703 719 704 l 751 700 q 741 699 745 700 q 736 697 736 697 q 741 696 736 697 q 751 694 745 694 q 731 690 734 694 q 720 684 728 686 q 711 672 720 673 q 720 669 720 672 q 720 652 715 665 q 703 634 706 648 q 718 621 701 621 q 713 615 715 618 q 711 612 711 612 q 715 610 715 612 q 708 602 715 606 q 701 589 701 597 l 706 583 l 694 583 q 688 564 688 576 q 663 558 684 559 q 644 546 654 550 q 648 537 646 541 q 649 534 649 534 q 644 533 646 534 q 642 532 642 532 q 645 527 644 530 q 649 518 646 524 q 665 515 661 515 q 686 510 669 515 l 688 515 q 694 514 688 515 q 715 510 701 513 q 701 493 701 504 q 715 496 709 496 l 715 492 q 720 490 718 492 q 726 489 723 489 q 739 493 731 493 q 742 489 742 490 q 760 481 753 489 q 768 478 762 481 q 781 473 774 476 q 796 469 788 471 q 808 467 804 467 q 802 453 808 463 q 804 450 802 453 q 808 447 805 447 q 823 444 823 447 l 813 444 q 816 439 813 441 l 817 439 q 814 434 816 436 q 813 432 813 432 q 817 431 813 432 q 823 429 820 429 l 823 421 l 837 421 q 836 415 837 418 q 834 412 834 412 q 842 410 840 412 l 842 393 l 850 393 l 845 387 q 846 386 845 387 q 850 385 848 385 l 850 379 q 865 375 854 375 l 856 375 q 874 342 856 355 q 882 347 878 346 q 878 327 882 336 q 870 307 873 318 q 880 290 874 296 l 882 290 q 888 282 882 288 l 885 279 q 885 262 885 271 q 891 248 885 256 q 881 218 882 222 q 880 211 880 214 q 867 205 870 205 q 802 149 842 160 q 808 144 805 146 q 813 142 810 143 l 813 136 l 805 136 q 805 125 804 131 q 778 132 791 136 q 758 127 766 127 q 740 114 751 119 q 728 97 728 109 q 736 92 732 93 q 716 90 720 92 q 709 89 711 89 q 710 88 709 89 q 715 87 711 87 q 697 77 706 79 q 686 60 688 74 q 669 60 678 61 q 646 57 659 60 q 604 40 637 39 q 572 22 572 43 q 538 14 555 14 q 536 9 538 11 q 535 8 535 8 l 523 8 q 473 -4 506 -11 q 459 -9 466 -7 q 444 -16 452 -12 l 449 -9 m 284 236 q 292 237 290 236 q 304 241 295 239 q 306 243 304 241 q 307 248 307 244 q 313 239 312 243 q 365 239 335 236 q 421 253 395 241 q 421 252 421 253 q 424 250 421 250 q 460 258 434 258 q 456 257 458 258 q 455 256 455 256 q 474 256 463 250 q 495 265 484 261 q 512 272 503 273 q 532 282 520 271 q 541 279 538 282 l 549 288 q 535 332 549 328 q 500 355 526 335 q 498 350 500 353 l 495 355 q 465 357 478 355 q 449 358 452 358 q 444 368 446 367 q 441 375 441 370 q 381 384 401 375 q 344 418 361 393 q 302 415 316 421 q 263 400 260 432 q 296 361 264 370 q 294 359 295 361 q 292 358 292 358 q 299 353 292 353 l 290 353 q 291 351 290 353 q 295 350 292 350 q 290 317 299 334 q 284 285 281 301 q 273 262 275 273 q 274 262 273 262 q 278 261 275 261 q 278 244 270 253 l 278 239 q 284 236 281 236 m 401 689 q 413 703 410 694 q 433 711 416 711 q 438 720 433 714 l 430 720 q 438 722 433 722 q 434 767 438 746 q 427 814 430 789 q 438 851 438 832 q 410 857 420 851 q 409 851 409 856 q 392 857 398 851 q 391 859 392 857 q 389 863 389 860 q 361 851 361 863 q 347 846 353 848 q 335 843 341 843 q 306 838 316 843 q 284 831 296 833 q 286 817 284 822 q 287 803 287 811 q 298 762 302 786 q 290 717 295 737 l 299 717 q 284 714 294 714 l 284 708 q 293 703 290 705 q 304 700 296 700 q 302 714 304 711 q 313 711 302 714 q 324 700 324 708 q 344 694 334 700 q 345 696 344 694 q 349 697 347 697 q 351 696 349 697 q 353 694 352 694 q 369 700 361 697 q 384 705 377 703 q 387 694 381 692 q 401 689 392 697 z "},"C":{"ha":925,"x_min":33,"x_max":916,"o":"m 395 0 q 355 5 378 0 q 327 5 330 12 q 326 8 327 5 q 324 14 324 11 l 311 14 q 260 39 302 24 q 208 54 217 54 l 208 62 q 194 64 199 62 q 180 68 188 65 l 180 74 l 173 74 q 170 89 173 83 l 165 89 q 145 106 156 106 q 125 111 134 106 q 128 127 128 111 q 119 134 123 127 q 119 168 121 144 q 113 201 116 191 q 96 201 102 203 q 86 221 90 215 q 83 228 83 228 q 74 231 80 231 q 77 250 77 239 l 71 250 q 74 256 74 253 q 66 265 66 256 q 54 268 63 268 l 54 277 l 45 277 l 51 277 l 51 288 q 52 289 51 288 q 56 290 54 290 q 58 299 56 293 q 59 310 59 304 l 54 310 l 54 315 q 45 318 45 315 l 51 318 l 51 330 q 41 356 37 339 q 45 382 45 372 q 36 419 33 396 q 42 458 39 441 l 47 458 q 49 463 47 458 q 54 469 51 467 q 49 471 51 469 q 47 472 47 472 q 58 537 51 504 q 66 603 66 570 q 62 606 66 606 l 62 610 q 90 624 85 621 q 102 629 94 627 l 102 635 l 108 635 l 108 640 l 121 640 l 121 648 l 125 648 q 127 651 125 648 q 128 657 128 654 l 134 657 q 135 665 134 660 q 137 675 137 669 q 142 673 140 675 q 151 672 145 672 l 156 677 q 151 686 151 677 l 156 689 l 156 694 q 153 696 156 694 q 145 700 151 697 q 165 694 155 694 q 169 703 168 700 q 170 705 170 705 q 178 703 176 705 q 180 720 182 713 q 191 724 188 722 q 202 729 194 726 l 199 734 q 213 741 203 734 l 213 743 l 218 743 q 217 746 218 743 q 216 751 216 749 l 224 751 q 223 757 224 754 q 221 762 221 760 q 237 774 226 766 q 233 782 233 775 q 236 783 233 782 q 242 783 239 783 q 271 824 245 808 q 324 846 296 839 l 324 851 q 319 854 319 851 l 332 854 q 330 865 332 863 l 338 865 q 332 876 338 871 l 338 879 q 340 885 338 882 q 341 890 341 888 q 335 893 338 893 q 356 914 352 897 l 364 914 q 367 932 366 926 q 373 943 369 939 q 384 950 377 947 q 404 957 391 953 q 431 965 409 965 q 463 999 455 965 q 466 1000 463 999 q 470 1002 469 1002 q 473 1007 470 1004 l 481 1007 l 481 1013 l 487 1013 q 490 1017 487 1014 q 502 1021 490 1017 q 515 1028 515 1025 q 509 1031 509 1028 q 515 1034 512 1034 l 515 1044 q 517 1039 517 1044 l 530 1039 q 538 1055 538 1047 q 544 1053 544 1055 q 547 1039 544 1047 q 566 1047 559 1039 q 586 1044 574 1047 q 606 1050 597 1042 q 614 1042 606 1047 q 617 1048 614 1044 q 623 1059 620 1053 l 631 1059 q 626 1044 629 1050 q 637 1031 623 1039 q 670 1035 652 1031 q 711 1031 688 1039 l 711 1039 l 744 1039 q 777 1017 768 1039 q 788 1019 780 1019 q 802 989 788 1008 q 840 979 816 968 l 840 965 q 848 968 840 968 q 850 945 848 956 l 862 945 q 856 942 859 945 l 856 936 l 862 936 q 867 922 862 932 q 880 920 871 922 l 874 914 q 880 912 877 914 q 885 911 882 911 q 877 900 877 896 l 882 900 q 885 893 882 896 q 873 865 873 885 q 877 833 874 846 q 887 828 885 831 q 894 825 888 825 q 888 811 894 821 l 894 811 l 894 798 l 899 798 l 891 798 q 885 762 891 775 l 877 762 q 878 757 877 760 q 880 754 880 754 l 882 754 q 877 734 882 745 q 871 733 874 734 q 867 732 867 732 l 867 726 q 831 733 850 730 q 793 738 812 736 q 758 738 774 739 q 731 734 741 737 q 681 734 706 734 q 634 737 658 734 q 631 732 634 734 q 603 728 614 732 q 582 718 591 724 q 563 704 573 711 q 541 689 553 696 q 517 667 526 675 q 500 652 509 660 q 502 649 500 652 q 506 640 503 646 q 486 627 498 636 q 459 604 474 618 q 434 582 444 590 q 418 570 424 574 q 424 553 418 562 q 409 550 409 553 l 421 550 q 408 543 413 546 q 378 532 404 541 l 378 524 q 372 522 376 524 q 368 521 368 521 q 364 472 359 490 l 378 472 q 375 461 378 465 q 367 453 372 457 q 361 445 363 449 q 361 435 359 440 l 356 435 l 356 429 l 352 429 l 352 370 q 359 367 356 370 q 353 350 355 363 q 387 336 373 338 q 388 332 387 334 q 389 330 389 330 q 395 328 392 328 q 406 319 398 328 q 418 319 414 319 q 429 318 422 318 q 443 319 434 318 q 469 319 452 319 l 469 325 q 472 326 469 325 q 478 328 475 328 l 478 334 l 487 334 q 488 335 487 334 q 490 339 490 336 q 510 338 498 339 q 538 345 523 336 l 538 330 q 544 335 538 330 q 560 350 549 340 q 584 370 584 370 l 584 372 q 594 377 588 375 q 609 382 601 379 q 612 375 612 379 q 640 372 629 375 l 640 376 l 646 376 l 646 385 q 666 396 659 385 q 667 395 666 396 q 671 393 669 393 q 673 386 671 390 q 674 379 674 382 l 691 379 q 696 390 691 389 q 716 378 696 382 q 751 372 736 375 q 753 385 751 376 q 763 370 762 374 q 802 375 781 370 l 802 370 q 820 372 810 372 q 867 361 838 350 l 867 370 q 874 370 873 370 q 891 361 877 370 q 916 375 910 371 q 902 340 907 353 q 897 304 897 328 q 892 303 894 304 q 891 301 891 301 q 886 278 890 290 q 877 256 882 267 q 880 252 877 253 q 882 250 882 250 q 880 236 880 248 l 888 236 q 880 225 888 241 l 885 225 q 882 208 880 216 q 856 193 873 201 q 837 179 840 184 q 842 176 840 176 q 840 165 840 174 q 810 160 824 160 q 817 149 814 154 q 763 117 770 144 q 748 111 753 111 q 751 100 748 109 q 742 98 745 100 q 734 97 739 97 l 734 89 l 726 89 l 726 85 q 715 79 720 79 q 713 75 715 77 q 711 74 711 74 l 706 74 l 706 68 q 686 54 692 61 q 633 45 653 49 q 606 40 613 41 q 593 37 600 39 q 580 35 587 36 l 580 25 l 574 25 l 574 35 l 566 35 l 566 29 q 563 28 563 29 q 560 35 560 31 q 541 22 551 32 l 538 22 q 535 28 535 25 l 517 28 q 515 20 515 25 q 464 15 490 17 q 413 14 438 14 q 410 3 410 11 q 395 0 404 3 z "},"D":{"ha":951,"x_min":47,"x_max":931,"o":"m 332 -7 q 300 -1 326 -1 q 279 -3 292 -7 q 264 1 267 1 q 261 7 261 4 q 236 12 250 9 q 208 18 222 16 q 180 22 193 21 q 159 18 167 22 q 114 47 132 18 q 102 93 95 78 q 106 132 92 110 q 96 170 121 156 q 102 207 104 184 q 87 235 99 229 q 86 240 87 237 q 85 246 85 243 l 77 246 q 73 259 73 250 q 76 277 74 269 q 79 295 78 286 q 75 309 79 304 q 79 311 77 309 q 67 315 64 317 q 70 318 67 318 q 66 319 67 318 q 64 321 64 321 q 60 339 64 330 q 56 357 56 349 l 64 357 q 60 366 61 363 q 58 368 58 368 l 67 368 q 68 378 67 372 q 70 392 70 383 q 79 400 73 392 q 91 416 86 408 q 96 425 95 424 q 98 443 96 432 q 99 465 99 454 l 90 465 q 92 465 90 465 q 102 468 94 465 q 103 483 102 477 q 104 497 104 489 q 71 528 75 514 q 73 563 67 542 l 70 566 q 73 568 70 566 q 79 574 77 571 q 67 582 68 579 q 79 588 73 588 q 81 606 79 599 q 82 623 82 614 q 90 625 85 625 q 80 652 87 636 q 73 677 73 668 l 77 677 q 73 681 74 680 q 73 682 73 682 q 75 694 73 690 q 79 715 77 699 q 71 738 73 734 q 70 747 70 742 l 77 747 q 64 782 82 764 q 47 804 47 800 q 52 801 49 803 q 61 796 56 799 q 57 829 58 815 q 56 853 56 843 q 70 856 61 853 q 67 881 70 878 l 70 884 l 64 889 l 67 893 q 61 896 67 896 l 67 899 q 71 948 67 924 q 75 1000 75 972 l 103 1028 q 151 1027 115 1040 q 176 1029 164 1029 q 204 1029 189 1029 l 208 1032 q 216 1034 210 1032 q 224 1035 221 1035 q 227 1038 227 1035 q 241 1038 235 1038 q 261 1035 246 1038 q 270 1037 261 1035 q 293 1043 278 1039 q 330 1052 327 1052 q 331 1043 330 1046 q 332 1038 332 1040 l 360 1038 q 370 1029 360 1029 q 384 1035 379 1035 l 397 1035 q 381 1010 381 1035 q 400 1007 389 1007 q 406 1010 400 1010 l 412 1010 q 420 1015 414 1010 q 435 1013 424 1013 q 454 1006 446 1013 q 474 1007 458 1007 l 474 1003 q 475 1002 474 1003 q 479 1000 477 1000 q 493 999 498 1006 q 514 1000 489 992 q 534 986 515 995 q 570 960 549 967 q 625 941 591 953 q 639 922 631 932 q 656 904 648 913 q 665 907 659 907 l 663 901 q 682 868 688 893 q 731 833 675 844 l 725 832 q 727 831 725 832 q 731 829 728 829 q 732 829 731 829 q 736 832 734 829 q 750 810 742 824 q 767 782 759 796 q 770 781 767 782 q 779 779 774 779 q 804 739 771 770 q 864 705 839 711 l 859 701 q 861 685 859 690 q 888 668 864 680 q 876 663 878 663 q 878 643 876 648 q 896 625 881 639 q 884 617 888 623 q 899 576 900 603 q 929 536 896 550 l 929 503 q 925 453 918 484 q 913 406 931 422 q 916 383 916 403 q 916 357 916 366 q 900 347 899 351 q 899 335 902 343 q 867 299 869 318 q 848 261 865 281 q 849 257 848 258 q 850 256 850 256 l 839 256 q 840 255 839 256 q 845 254 842 254 q 832 248 839 252 q 819 237 825 243 q 824 235 821 235 q 792 228 799 229 q 774 216 785 227 q 779 210 774 210 q 777 201 774 208 q 759 207 764 201 q 741 195 750 199 q 734 184 731 192 q 728 182 731 184 q 722 180 725 180 l 722 175 q 679 160 690 170 q 663 135 668 150 q 656 132 660 132 q 645 110 648 121 q 636 107 639 110 l 633 102 q 593 73 597 93 q 534 60 557 67 q 482 45 511 53 l 482 42 q 456 38 465 39 q 442 35 448 36 q 432 33 436 33 q 422 31 428 32 q 392 22 407 24 l 392 21 q 363 8 375 16 q 338 1 352 1 q 339 -3 338 -1 q 340 -4 340 -4 q 332 -7 338 -7 m 410 241 q 447 251 429 246 q 487 260 465 255 q 508 273 513 259 q 537 292 502 289 q 538 299 537 295 q 539 309 539 302 q 564 334 557 319 q 578 363 572 349 q 606 397 600 371 q 627 425 614 425 q 633 434 632 429 q 634 445 634 440 q 634 454 634 450 q 637 460 634 458 q 616 470 637 464 q 631 474 618 471 q 646 498 643 488 q 629 519 650 508 l 645 519 q 628 550 637 536 q 600 573 619 565 l 600 578 l 605 578 q 590 587 592 585 q 576 593 587 590 q 608 601 598 594 q 591 616 596 611 q 585 622 585 622 q 588 623 585 622 q 592 627 590 625 q 570 644 572 635 q 556 661 568 654 q 572 663 564 661 q 542 681 556 671 q 513 696 528 692 q 448 746 496 739 q 442 752 447 749 q 429 764 437 756 l 415 764 l 415 768 q 388 777 399 774 q 369 781 376 780 q 365 798 365 791 l 352 798 q 376 758 346 779 q 370 750 374 755 q 357 737 365 745 q 367 717 342 722 q 355 702 362 705 q 367 687 350 700 q 358 656 355 673 q 365 625 362 639 l 372 625 q 341 574 319 604 q 350 519 365 545 q 353 518 350 519 q 361 517 357 517 q 347 511 353 511 q 349 494 347 503 q 350 474 350 484 q 352 473 350 474 q 359 473 355 473 l 357 470 q 372 465 361 465 q 357 460 365 465 q 359 458 357 460 q 362 456 361 456 q 359 453 361 454 q 357 452 357 452 q 361 418 367 442 q 366 417 362 418 q 374 416 369 416 q 367 411 372 416 q 372 403 367 412 q 361 400 363 403 q 362 328 361 363 q 365 255 362 292 q 358 252 360 252 q 357 251 357 251 q 361 246 357 246 q 386 247 374 246 q 410 241 398 248 z "},"E":{"ha":923,"x_min":34,"x_max":931,"o":"m 810 0 q 771 8 793 8 q 758 3 768 3 q 740 6 748 4 q 731 8 732 8 q 685 7 706 3 q 646 11 663 11 q 644 14 644 11 q 644 17 644 17 q 634 20 642 17 l 631 17 q 580 32 623 32 q 544 33 559 32 q 523 35 530 33 l 520 32 q 446 46 481 54 q 444 52 444 49 q 433 49 438 52 q 421 46 427 46 q 421 45 421 46 q 424 43 421 43 q 413 40 413 43 q 406 37 413 37 q 410 43 410 37 l 409 46 q 401 35 402 39 q 381 46 388 36 q 356 50 368 49 q 341 60 344 52 l 332 60 l 330 65 q 316 68 321 65 q 304 74 311 71 q 223 57 264 60 q 151 43 182 54 q 145 28 145 33 q 110 24 125 25 q 83 22 95 22 l 83 32 q 67 56 60 43 q 68 77 74 69 q 68 101 74 87 q 62 122 62 114 q 62 123 62 122 q 66 127 63 125 q 62 131 62 127 q 60 158 62 155 q 34 179 58 163 l 39 179 q 54 174 46 174 q 56 208 62 199 l 62 208 q 59 210 59 208 q 59 211 59 211 q 62 220 62 220 q 54 231 54 228 q 47 239 54 233 q 59 241 56 239 q 65 289 62 265 q 77 336 68 313 q 71 345 71 342 l 71 355 q 77 386 77 355 l 77 427 q 84 445 85 429 q 80 467 83 461 q 81 502 81 485 q 77 538 80 519 q 96 600 71 575 q 96 610 91 606 q 91 618 91 615 q 94 639 99 627 q 88 660 88 652 q 74 732 91 699 q 77 737 77 734 q 80 746 77 741 l 74 746 l 74 754 q 62 778 62 768 q 62 803 62 789 q 51 838 51 811 q 54 876 51 863 q 42 882 50 880 q 49 889 47 882 q 54 903 51 897 l 62 903 q 81 970 77 936 q 88 1036 85 1004 q 96 1039 91 1039 q 113 1059 98 1051 q 123 1044 120 1050 q 145 1050 130 1044 l 145 1053 q 148 1047 148 1050 q 170 1044 159 1044 q 194 1028 177 1029 q 224 1017 194 1018 l 230 1019 l 233 1014 q 256 1017 242 1014 q 284 1019 270 1019 l 284 1025 q 295 1022 287 1022 q 299 1031 295 1023 l 302 1028 l 304 1031 q 303 1032 304 1031 q 302 1036 302 1034 q 309 1034 302 1036 q 327 1031 316 1031 l 324 1034 q 333 1029 327 1034 q 352 1025 338 1025 q 361 1014 352 1015 q 357 1013 359 1013 q 356 1013 356 1013 q 421 1007 378 982 q 448 1010 435 1007 q 475 1013 460 1013 l 478 1007 q 481 1008 478 1007 q 487 1013 484 1010 q 490 1004 490 1010 l 498 1004 q 500 1014 498 1011 l 503 1014 q 505 1008 503 1010 q 509 1004 506 1007 l 530 1004 l 530 996 q 535 999 532 999 q 538 993 535 996 q 570 992 556 993 q 595 990 584 991 q 606 1007 597 990 q 609 996 606 999 q 625 993 610 1002 q 635 991 629 993 q 649 989 642 989 q 665 991 658 989 q 677 1002 673 993 l 691 1002 q 696 1010 692 1006 l 696 1007 q 731 1019 711 1007 q 771 1031 751 1031 q 780 1036 777 1036 l 783 1034 q 785 1035 783 1034 q 791 1039 788 1036 q 792 1038 791 1039 q 796 1036 793 1036 l 796 1044 q 801 1046 796 1044 q 808 1047 805 1047 l 808 1053 q 822 1050 813 1053 q 840 1059 831 1047 q 852 1054 848 1055 q 867 1053 856 1053 l 873 1059 q 880 1050 873 1053 q 873 1047 876 1050 q 873 1043 873 1044 q 874 1042 874 1042 q 881 1038 877 1042 q 894 1034 885 1034 l 894 1028 q 903 1025 898 1026 q 916 1022 909 1023 q 915 1018 916 1022 q 913 1007 914 1014 q 907 979 931 996 q 902 952 907 965 q 897 928 897 939 q 899 926 897 928 q 905 925 902 925 q 910 888 894 908 q 899 873 906 886 l 902 871 q 899 865 901 868 q 897 857 898 861 q 899 856 897 857 q 907 854 902 854 q 895 848 899 851 q 885 846 891 846 l 894 846 q 885 843 891 843 q 885 806 877 819 q 878 802 882 803 q 874 800 874 800 l 874 789 q 850 777 865 789 q 826 775 834 774 q 810 774 817 777 q 787 773 800 774 q 758 771 774 772 q 718 777 726 768 q 696 768 701 774 q 668 770 684 770 q 632 770 652 771 q 600 767 613 768 q 580 762 587 765 l 580 757 l 574 757 l 574 765 q 529 767 549 765 q 498 754 509 768 q 461 758 475 757 q 438 760 446 760 q 430 751 430 757 l 430 757 q 426 758 427 757 q 424 760 424 760 l 424 762 l 418 762 q 410 755 416 760 q 404 751 404 751 q 395 724 398 734 l 398 722 q 396 708 397 714 q 395 697 395 701 q 398 699 395 697 q 404 700 401 700 q 385 675 389 684 q 389 648 381 667 q 384 643 384 648 l 392 643 q 393 639 392 640 q 395 637 395 637 l 387 637 q 387 636 387 637 q 389 635 387 635 q 385 633 387 635 q 384 632 384 632 q 387 621 388 627 q 397 615 391 618 q 410 610 404 612 q 412 611 410 610 q 416 612 413 612 l 427 612 q 430 618 427 615 q 453 610 435 618 q 478 610 470 603 q 525 602 502 604 q 568 600 548 600 q 583 595 566 603 q 585 596 583 595 q 589 600 587 597 q 597 597 597 600 l 592 597 q 595 596 592 597 q 601 595 597 595 q 604 581 601 581 q 616 564 625 572 q 606 546 606 555 q 608 543 606 543 q 609 543 609 543 q 601 525 609 534 q 589 507 592 515 q 595 489 595 494 q 592 458 604 478 q 595 450 595 450 q 589 453 592 450 q 587 446 587 450 q 587 441 587 441 q 597 436 591 437 q 583 427 584 432 q 583 425 583 427 q 587 424 584 424 l 587 418 q 572 412 577 418 q 530 410 552 415 q 492 399 509 404 q 459 407 490 400 q 427 415 429 414 q 380 410 404 412 q 335 407 356 407 q 330 403 332 404 q 327 401 327 401 q 327 367 327 390 q 335 334 327 345 l 327 334 q 341 328 327 329 q 332 322 335 322 q 332 313 338 318 q 334 309 332 310 q 335 307 335 307 l 347 307 q 338 304 347 304 q 332 290 335 293 q 338 288 335 290 l 335 288 q 368 271 335 260 l 368 265 q 397 262 378 262 q 430 271 416 262 q 442 264 438 267 q 451 261 446 262 q 460 258 455 260 q 478 256 466 257 q 505 262 487 262 q 541 262 523 261 q 543 264 541 262 q 544 268 544 265 q 568 264 549 265 q 601 268 587 262 l 604 262 l 614 262 q 616 265 614 262 q 620 271 617 268 q 646 265 621 265 q 687 258 666 250 q 739 271 709 265 q 748 268 742 268 l 748 273 q 755 269 751 273 q 777 262 760 265 q 808 258 799 262 q 812 262 810 261 q 817 265 814 264 q 837 263 824 264 q 870 262 850 262 q 869 260 870 261 q 867 258 867 258 q 869 254 867 256 q 870 253 870 253 q 877 250 874 253 q 880 241 865 250 l 877 239 q 878 233 877 236 q 880 231 880 231 l 880 228 l 882 225 l 880 225 q 885 208 880 218 q 894 205 897 208 l 891 203 q 899 199 897 199 q 891 180 897 184 q 888 160 885 176 l 902 160 q 884 135 891 146 q 867 114 877 125 q 870 106 869 110 q 873 100 871 103 q 862 92 873 98 l 862 87 l 865 87 q 858 78 861 85 q 854 62 854 71 q 860 49 854 56 q 877 43 865 43 q 862 43 870 40 q 853 46 853 46 q 845 35 846 39 q 865 29 849 35 q 848 20 848 22 q 840 8 848 17 q 810 0 831 5 z "},"F":{"ha":881,"x_min":20,"x_max":902,"o":"m 281 3 q 268 5 273 5 q 250 18 256 21 q 245 37 243 16 q 165 -12 193 5 q 150 -9 154 -7 q 142 -9 145 -12 q 140 -4 140 -9 l 132 -4 l 132 -9 q 122 -1 126 -4 q 115 11 117 3 l 60 2 q 66 5 60 -3 q 47 22 43 -3 q 55 94 54 90 q 67 105 60 97 q 78 122 73 113 q 85 142 83 132 q 88 157 88 151 q 97 160 91 160 q 97 176 98 170 q 88 179 94 179 q 97 182 91 182 l 97 191 q 97 192 97 191 q 100 193 97 193 q 85 199 98 199 q 88 202 85 199 q 94 208 91 205 q 87 217 90 214 q 83 222 84 221 q 85 260 83 239 q 97 296 88 282 q 93 298 94 296 q 91 301 91 301 q 94 318 97 310 q 96 320 94 318 q 100 325 97 322 q 94 328 97 325 q 89 338 94 332 q 77 351 83 345 q 65 365 71 358 q 60 375 60 371 l 60 387 q 55 389 55 387 q 55 390 55 390 q 66 410 66 390 l 72 412 q 66 425 72 421 q 60 436 60 429 q 66 435 62 435 q 63 453 69 443 q 58 453 60 450 l 60 456 q 58 461 60 458 q 57 474 66 467 q 48 481 48 481 l 48 486 l 52 486 q 43 492 45 488 l 43 498 q 34 507 34 498 q 40 521 43 524 l 43 524 l 43 529 l 40 529 q 45 532 43 532 q 33 554 37 541 q 26 572 28 567 q 28 575 28 572 q 22 588 20 575 q 23 603 23 600 l 20 603 q 26 606 20 606 l 26 612 l 31 615 l 31 627 q 44 645 41 635 q 45 665 47 654 q 40 685 43 675 q 37 705 37 696 q 45 751 45 726 q 52 798 45 777 q 45 800 48 798 q 60 822 54 807 l 58 825 q 69 828 60 828 q 72 840 72 836 q 75 839 75 840 q 75 849 77 843 q 72 857 72 854 q 75 859 72 857 q 80 860 77 860 q 76 869 72 863 q 80 879 80 876 q 75 889 72 882 q 77 900 77 896 q 66 936 51 908 q 63 942 66 939 q 65 943 63 942 q 69 945 66 945 q 60 950 60 945 l 83 950 q 113 981 97 962 q 151 999 129 999 l 151 993 q 159 994 151 993 q 169 1002 166 996 q 166 1007 169 1004 l 162 1007 l 165 1010 q 167 1008 165 1010 q 172 1007 169 1007 l 172 1013 q 189 1014 182 1010 q 190 1015 189 1014 q 191 1019 191 1017 q 194 1014 191 1014 q 202 1013 197 1014 q 220 1013 211 1017 q 243 1014 229 1010 q 266 1011 243 1008 q 287 1013 279 1013 q 300 1014 296 1014 l 300 1019 q 305 1018 302 1019 q 311 1017 308 1017 l 313 1019 q 319 1013 313 1013 l 330 1013 q 338 1002 337 1006 q 366 1003 348 1002 q 397 1013 385 1004 q 405 1010 402 1013 l 405 1007 q 420 1010 414 1007 q 438 1004 427 1013 l 450 1004 q 451 1007 450 1004 q 452 1013 452 1010 l 452 1004 q 466 1008 452 1004 q 479 1014 479 1013 q 490 1013 480 1013 q 495 1007 490 1007 q 501 1013 495 1013 l 504 1007 q 514 1010 509 1007 q 528 1014 519 1013 l 530 1017 q 538 1013 532 1014 q 551 1013 544 1013 q 564 1017 558 1014 q 570 1028 570 1021 q 584 1025 581 1025 q 587 1031 584 1031 q 626 1025 602 1025 q 641 1028 629 1031 q 647 1019 641 1019 l 650 1022 q 652 1014 650 1017 l 658 1014 l 658 1019 l 663 1019 q 676 1015 666 1013 q 695 1017 687 1017 q 696 1021 695 1017 q 698 1028 698 1025 q 692 1031 695 1031 l 695 1034 q 707 1025 699 1032 q 707 1026 707 1025 q 709 1028 707 1028 q 711 1026 709 1028 q 715 1025 712 1025 l 715 1028 q 726 1036 722 1035 l 726 1039 q 726 1038 726 1039 q 728 1036 726 1036 q 739 1040 732 1036 q 752 1044 747 1044 q 780 1047 764 1047 q 806 1059 797 1047 q 826 1049 818 1059 q 851 1039 834 1039 q 863 1031 859 1031 q 863 1006 861 1017 q 866 979 866 996 q 875 974 869 979 q 875 950 875 957 q 883 928 875 945 q 880 911 880 920 q 888 908 880 911 q 887 905 888 905 q 886 905 886 905 l 886 896 q 897 893 888 893 q 891 878 897 885 q 886 863 886 871 l 891 863 l 891 857 q 888 863 888 860 q 886 848 888 857 q 894 843 888 848 q 890 834 891 840 q 886 822 888 828 q 902 800 892 815 q 899 799 902 800 q 891 794 897 798 q 894 787 891 791 q 899 783 897 783 l 894 783 q 892 781 894 782 q 891 779 891 779 q 883 782 886 779 q 880 777 883 779 q 870 778 875 777 q 866 779 866 779 q 851 757 855 761 q 845 758 848 757 q 842 760 842 760 q 836 758 840 760 q 831 757 831 757 q 830 757 831 757 q 829 760 829 757 q 794 751 818 751 q 793 745 794 749 q 791 734 791 741 q 785 737 789 737 q 780 751 780 743 q 758 751 761 754 q 755 757 758 754 l 747 757 l 747 751 q 726 762 737 751 q 693 760 712 762 q 669 754 675 757 q 646 754 661 754 q 609 755 631 754 q 558 749 566 757 q 528 754 537 749 l 524 751 l 524 749 q 495 741 496 749 q 476 740 487 743 q 456 737 465 737 q 441 729 452 729 l 441 732 q 422 737 427 739 q 402 744 412 745 q 382 738 391 743 q 367 724 373 732 q 359 708 361 717 q 351 703 357 708 l 351 694 q 347 693 348 694 q 345 692 345 692 l 345 675 q 341 673 342 675 q 340 672 340 672 q 341 671 340 672 q 345 669 342 669 q 340 646 340 663 q 340 615 340 629 q 340 589 321 603 l 340 595 q 344 590 340 591 q 351 589 348 589 q 359 595 358 589 l 359 581 q 393 583 378 578 q 399 578 393 587 l 402 581 l 405 578 q 477 587 420 593 q 552 555 533 582 q 575 557 564 555 q 604 550 587 558 l 650 550 l 650 546 q 658 550 658 546 q 666 532 661 543 q 680 513 672 521 q 677 510 677 513 q 679 504 677 507 q 680 501 680 501 l 677 498 q 680 497 677 498 q 686 496 683 496 q 682 494 683 496 q 680 493 680 493 q 687 489 684 492 q 686 488 686 489 q 686 486 686 486 q 687 481 686 481 q 684 479 686 481 q 683 478 683 478 q 679 467 683 472 q 680 456 675 461 l 686 456 q 675 432 675 447 q 677 433 675 432 q 683 436 680 435 q 675 419 675 424 q 680 399 675 415 q 686 396 683 399 l 683 390 q 698 379 683 386 q 692 358 694 375 q 691 359 692 358 q 690 364 690 361 q 686 355 687 358 q 686 353 686 353 q 690 340 690 345 q 698 330 690 336 q 694 329 695 330 q 692 328 692 328 l 692 322 q 629 321 658 304 q 570 334 601 339 l 570 342 q 516 347 548 342 q 473 345 481 353 q 459 350 466 350 q 420 350 452 342 q 381 358 389 358 l 385 353 q 378 355 381 353 l 378 358 q 370 336 376 358 q 381 334 378 334 q 385 334 385 334 q 370 328 374 328 q 372 309 370 319 q 365 298 373 298 q 376 285 368 298 q 370 281 373 282 q 368 279 368 279 q 370 253 368 261 q 378 250 373 250 q 369 240 368 244 q 365 233 370 236 q 366 231 365 233 q 370 222 368 228 q 351 190 354 205 q 348 149 348 174 q 349 146 348 149 q 354 139 351 144 l 351 139 q 349 122 351 131 q 357 100 348 114 l 351 100 q 352 97 351 100 q 357 89 354 94 q 352 88 354 89 q 351 87 351 87 q 347 74 351 79 q 338 64 342 68 q 332 54 334 60 q 330 40 329 49 q 329 41 330 40 q 328 46 328 43 q 333 22 328 33 q 318 8 333 11 q 297 5 302 5 q 281 5 288 8 l 281 0 l 281 3 z "},"G":{"ha":925,"x_min":20,"x_max":902,"o":"m 484 0 q 476 11 476 1 q 473 5 473 8 q 458 8 465 11 q 450 5 452 5 q 401 8 410 5 q 387 11 393 11 q 386 8 387 8 q 385 8 385 8 q 373 14 378 14 q 369 12 370 14 q 368 11 368 11 l 368 25 l 368 28 q 357 32 361 32 q 354 29 354 32 q 348 52 348 35 q 319 60 333 60 q 316 58 316 60 q 316 57 316 57 q 273 62 291 62 q 234 65 256 62 q 221 72 226 71 q 214 77 216 74 l 219 77 q 211 79 216 79 q 183 119 203 111 l 183 125 q 162 131 168 125 q 141 148 148 136 q 134 160 134 160 l 132 157 q 133 161 132 160 q 137 168 134 163 l 129 168 l 129 176 l 126 176 q 117 189 120 184 q 115 193 115 193 q 105 191 108 193 q 100 205 105 205 q 85 211 94 205 q 69 244 83 221 l 66 244 q 61 268 66 256 q 55 288 55 279 q 43 308 45 290 q 45 334 40 325 q 37 350 37 339 l 28 350 l 28 355 l 34 355 l 34 358 l 28 358 q 23 364 23 358 q 27 381 31 372 q 26 390 23 390 q 31 385 27 385 q 27 435 26 412 q 28 484 28 458 q 23 492 24 488 q 26 492 31 492 q 20 496 20 493 q 28 496 26 497 q 37 535 34 518 q 48 570 40 553 q 44 594 40 583 q 50 618 48 606 q 47 619 48 618 q 45 621 45 621 q 50 646 47 623 q 43 648 47 648 q 50 660 47 653 q 43 663 43 660 q 46 664 43 663 q 55 665 50 665 q 50 669 50 667 l 58 669 l 58 677 q 66 700 66 677 l 75 700 q 77 717 76 711 q 77 724 77 722 l 83 726 q 89 744 83 737 q 94 760 94 751 l 100 760 q 102 765 100 762 q 100 766 100 765 q 100 768 100 768 q 109 771 102 771 q 132 789 111 775 q 133 796 132 791 q 134 806 134 800 q 140 803 140 806 q 145 810 142 806 q 151 819 148 814 q 148 828 151 825 q 161 838 154 832 q 174 851 168 844 q 173 854 174 851 q 172 860 172 857 q 183 860 177 859 l 183 868 l 189 868 q 194 871 189 872 l 197 873 q 202 871 202 873 q 208 876 205 871 q 216 885 211 882 q 219 900 216 897 l 223 900 q 222 901 223 900 q 222 905 222 903 q 231 908 229 905 q 251 928 231 920 q 248 933 248 930 l 254 933 l 254 947 l 259 942 q 262 950 259 947 l 264 950 l 264 945 q 264 946 264 945 q 268 947 264 947 l 271 945 q 273 956 271 953 q 302 966 288 956 q 333 982 316 977 q 363 1008 342 1004 q 395 1036 386 1015 q 396 1031 395 1034 q 397 1028 397 1028 q 417 1034 408 1028 q 444 1039 427 1039 q 455 1043 447 1040 q 477 1050 463 1046 q 519 1059 507 1059 l 519 1053 q 530 1047 524 1053 q 547 1042 536 1042 l 547 1044 q 548 1039 547 1042 q 549 1036 549 1036 l 544 1036 q 558 1031 541 1039 q 559 1031 558 1031 q 561 1034 561 1031 q 568 1023 566 1026 q 570 1019 570 1019 q 581 1017 578 1017 q 590 1002 581 1010 l 595 1002 q 595 1003 595 1002 q 598 1004 595 1004 q 600 999 598 1002 q 601 993 601 996 l 606 993 l 606 985 q 612 987 609 987 q 629 977 622 974 q 644 971 630 970 q 662 958 652 962 q 680 939 672 953 q 687 932 684 937 q 694 920 690 926 q 704 907 698 913 q 718 900 709 901 l 718 890 q 749 851 740 885 q 758 844 752 846 q 772 836 764 843 l 774 836 q 777 828 774 833 q 789 831 780 822 q 821 808 797 808 l 821 803 l 814 800 l 814 794 q 800 791 805 794 l 797 789 l 804 789 q 801 783 802 783 q 800 779 800 782 l 809 779 q 815 760 809 768 q 818 734 821 751 q 797 729 806 732 q 780 724 787 726 q 707 699 769 696 q 655 701 675 700 q 626 705 635 703 q 587 699 601 705 q 558 692 573 692 q 536 717 557 701 q 522 749 536 749 l 528 754 q 519 760 526 760 l 519 768 q 513 771 516 771 l 513 782 q 495 790 503 787 q 486 794 488 793 q 456 798 480 798 l 456 791 q 455 793 455 791 q 455 794 455 794 q 395 779 429 794 q 387 764 393 772 q 375 747 381 755 q 364 733 369 739 q 359 722 359 726 l 357 720 q 351 705 351 714 q 352 703 351 703 q 354 703 354 703 l 351 700 q 349 694 351 697 q 348 692 348 692 q 342 690 345 692 q 340 689 340 689 q 316 632 340 659 q 312 633 313 632 q 311 635 311 635 q 308 622 311 631 q 301 602 305 612 q 293 583 297 591 q 288 570 290 574 q 284 530 286 553 q 273 493 283 507 q 271 464 273 478 q 276 429 268 450 q 271 425 273 427 q 268 424 268 424 q 271 407 271 412 q 272 406 271 407 q 276 404 273 404 q 276 387 273 396 l 286 387 q 284 382 286 385 q 283 379 283 379 q 294 367 283 374 q 286 361 291 367 q 291 346 288 353 q 305 330 294 339 l 308 334 q 316 318 315 326 q 353 296 336 301 q 393 315 370 290 l 390 318 l 395 318 q 396 328 395 325 q 397 336 397 330 l 414 336 l 416 334 q 427 330 425 330 q 429 336 427 334 q 430 342 430 339 q 431 340 430 342 q 435 339 433 339 q 442 349 437 343 q 454 366 447 355 q 471 393 471 383 q 446 401 484 401 q 422 401 426 401 q 427 399 418 400 q 428 412 427 403 q 430 431 429 421 q 432 451 431 441 q 433 464 433 460 q 438 476 441 467 q 435 492 435 486 q 444 493 443 492 l 444 498 q 448 497 444 498 q 455 496 452 496 q 456 498 455 496 q 456 504 456 501 q 456 501 456 504 q 459 498 456 498 q 479 501 462 496 q 504 496 480 484 l 519 496 q 544 507 529 505 l 544 510 q 591 505 561 511 q 626 498 626 498 l 629 496 q 629 497 629 496 q 630 501 630 498 q 633 496 630 498 l 655 496 q 658 501 655 501 q 674 494 666 498 q 698 493 683 489 l 701 492 q 718 501 711 494 q 726 496 718 496 q 737 492 732 505 l 758 492 q 766 489 764 492 l 766 484 q 768 482 766 484 q 772 481 769 481 q 780 478 780 486 q 794 484 789 478 q 804 475 801 476 q 818 486 818 489 q 826 493 836 486 q 830 494 829 493 q 837 498 831 496 q 859 496 840 496 l 859 492 q 866 502 863 496 q 875 515 869 507 l 875 498 q 880 496 878 498 q 883 492 880 492 l 880 489 q 888 478 887 482 l 891 478 q 894 472 894 478 q 895 473 894 472 q 899 475 897 475 q 897 439 897 458 q 897 401 897 421 l 902 401 q 891 361 897 396 q 886 342 891 350 q 888 318 880 334 q 894 315 891 318 q 894 313 894 315 q 897 310 894 310 q 888 307 899 307 q 890 300 888 304 q 894 296 891 296 l 899 296 q 894 282 891 290 q 888 265 897 273 q 897 265 894 262 q 886 244 886 250 q 891 228 886 233 l 888 228 q 887 214 888 225 q 894 201 886 203 q 888 191 890 197 q 891 160 891 179 q 899 125 891 142 q 894 106 897 125 q 895 92 894 97 q 897 82 897 87 q 837 62 861 54 q 821 46 822 52 q 784 47 813 57 q 762 39 769 41 q 755 37 755 37 l 737 37 q 683 25 713 18 q 673 39 677 32 q 666 54 669 46 q 677 81 677 62 q 669 109 677 100 q 666 122 669 114 q 669 131 672 127 l 666 131 q 661 144 663 138 q 655 154 658 150 q 658 160 658 157 q 663 163 658 163 q 657 190 659 176 q 652 213 655 203 q 642 230 648 224 q 623 236 635 236 q 615 216 618 228 q 609 214 612 214 q 616 203 609 205 q 621 196 623 201 l 615 196 q 612 191 615 193 q 618 187 615 191 q 606 181 612 187 q 597 166 601 175 q 593 149 594 158 q 593 136 591 140 q 581 117 574 127 q 561 90 573 100 q 547 57 549 79 q 509 22 522 49 q 495 9 501 14 q 484 0 490 5 z "},"H":{"ha":925,"x_min":41,"x_max":922,"o":"m 111 0 q 100 24 98 17 q 103 43 103 32 q 92 54 98 43 q 87 65 87 65 q 85 72 87 74 q 87 82 83 71 q 78 94 78 87 q 81 96 78 94 q 87 100 83 97 q 82 101 83 100 q 81 103 81 103 q 82 104 81 103 q 87 106 83 106 q 74 117 73 114 q 68 122 75 119 q 72 131 71 127 q 73 134 73 134 q 68 157 66 146 q 70 179 70 168 q 68 182 70 182 l 66 179 q 63 201 60 193 l 54 201 q 53 197 54 199 q 52 196 52 196 l 52 201 q 66 216 66 201 l 60 216 q 63 218 60 216 q 68 222 66 220 q 62 239 60 231 q 63 256 63 248 q 58 258 60 258 q 63 268 60 261 q 42 306 41 293 q 52 345 43 319 l 60 345 q 68 375 60 368 l 68 390 l 66 393 q 73 396 70 393 q 78 456 73 440 q 73 474 78 467 q 68 486 68 481 q 71 485 68 486 q 75 484 73 484 q 77 490 75 486 q 78 498 78 493 q 66 513 66 504 q 60 514 63 513 q 58 515 58 515 q 59 515 58 515 q 60 518 60 515 q 41 534 52 532 l 41 541 q 45 547 46 541 q 43 555 43 553 q 58 572 52 571 q 54 578 58 575 q 70 600 62 591 q 69 603 70 600 q 68 608 68 606 q 78 612 70 612 q 77 625 78 624 q 81 637 75 627 q 74 646 77 643 q 70 652 71 650 q 78 657 73 652 q 73 675 78 665 q 78 679 75 675 q 90 684 81 684 q 78 694 81 686 q 87 697 83 694 l 87 700 q 92 703 90 700 q 90 717 92 714 q 90 726 87 720 q 81 732 81 734 q 85 739 81 732 q 92 749 90 746 q 74 774 78 765 q 60 791 70 783 q 66 803 63 798 q 75 817 70 808 q 71 826 73 822 q 68 831 70 829 q 71 832 68 831 q 75 836 73 833 q 78 843 75 840 q 70 854 70 851 q 75 851 73 851 q 74 856 75 851 q 73 863 73 860 q 77 882 87 868 q 66 897 68 897 q 83 900 71 900 q 83 905 81 903 q 78 914 78 911 q 79 916 78 914 q 83 917 81 917 l 83 928 q 117 965 110 945 l 128 965 q 125 971 128 968 q 132 983 130 977 q 138 996 135 990 l 146 996 q 159 1013 146 1004 q 172 1031 172 1022 q 177 1028 174 1031 q 194 1038 185 1036 q 212 1050 203 1039 q 230 1047 220 1047 q 271 1047 239 1047 q 310 1054 288 1055 q 356 1053 331 1053 q 359 1055 356 1055 l 360 1050 l 382 1050 q 368 1025 382 1031 l 368 1013 l 371 1013 q 396 993 371 999 q 397 966 396 978 q 399 945 397 954 q 389 912 391 936 q 393 871 388 888 q 382 822 382 846 q 388 819 388 822 q 376 799 377 814 q 374 774 374 783 q 366 771 368 774 q 368 770 366 771 q 374 768 371 768 l 374 765 q 368 762 371 762 q 366 762 366 762 l 366 754 q 367 753 366 754 q 371 751 368 751 q 366 743 366 746 q 371 729 366 739 q 368 726 368 729 q 370 722 368 724 q 371 720 371 720 l 366 720 q 367 710 366 714 q 368 697 368 705 q 377 694 374 697 l 371 692 q 377 672 377 686 q 385 665 381 669 q 393 654 389 660 q 392 640 393 646 q 405 632 391 635 q 405 631 405 632 q 408 629 405 629 q 435 618 424 628 q 470 624 446 610 q 485 621 477 624 q 489 629 488 627 q 491 632 491 632 q 494 627 494 629 q 529 626 510 621 q 564 632 548 632 q 572 654 572 640 l 570 657 l 572 657 q 574 663 572 660 q 575 667 575 665 q 584 677 584 669 q 584 689 584 686 q 580 690 581 689 q 578 692 578 692 q 581 708 581 692 q 583 710 581 708 q 587 711 584 711 q 581 720 581 713 q 585 732 589 724 q 589 749 581 741 q 581 754 581 757 q 585 755 581 754 q 593 757 589 757 q 596 777 599 770 q 589 782 589 777 l 593 786 l 581 786 q 591 796 581 794 q 602 814 602 798 q 596 815 599 814 q 593 817 593 817 q 596 824 593 819 q 602 833 599 828 q 593 840 593 835 q 596 846 593 843 q 587 851 588 850 q 586 854 585 852 q 589 857 587 856 q 591 863 591 859 q 588 864 589 863 q 587 865 587 865 q 581 893 587 888 q 583 895 581 893 q 584 897 584 896 q 571 914 572 905 q 570 930 570 922 q 581 933 572 933 q 578 945 578 942 q 583 946 578 945 q 589 950 587 947 l 589 968 q 599 971 596 968 q 597 975 599 971 q 596 985 596 979 l 608 985 q 591 996 591 993 l 596 996 q 587 1010 591 1002 q 599 1002 596 1002 q 599 1003 599 1002 q 602 1004 599 1004 q 613 1002 604 1004 q 604 1013 612 1006 q 596 1010 599 1013 q 591 1014 593 1013 q 587 1017 589 1015 l 584 1014 q 548 1031 571 1015 q 562 1047 560 1040 q 580 1050 567 1047 q 602 1044 593 1053 l 604 1053 q 638 1044 621 1047 q 678 1050 656 1042 q 691 1050 682 1050 q 710 1051 701 1051 q 730 1050 722 1051 q 743 1047 739 1050 q 768 1053 760 1051 q 781 1057 777 1055 q 787 1059 785 1059 q 792 1059 789 1059 q 781 1053 792 1055 q 809 1042 799 1042 q 835 1017 820 1042 q 844 1014 837 1017 q 860 1008 850 1011 q 877 1001 869 1004 q 889 996 885 997 q 886 990 886 993 q 899 982 895 985 q 920 979 903 979 q 922 968 920 977 l 917 962 q 914 944 920 953 q 917 925 909 936 q 913 924 914 925 q 911 922 911 922 q 917 920 911 920 q 906 898 914 905 q 892 882 898 890 q 891 876 892 882 q 888 860 890 871 q 880 833 884 840 q 880 797 880 814 q 889 760 881 779 q 892 765 889 765 q 892 749 893 757 q 890 750 892 749 q 889 754 889 751 l 889 746 l 901 746 q 897 745 898 746 q 895 743 895 743 q 897 740 895 743 q 901 732 898 737 l 909 732 q 888 692 899 732 q 884 637 880 652 q 880 635 880 637 l 880 624 q 874 622 877 624 q 871 621 871 621 q 863 603 864 604 q 871 547 866 593 q 875 510 874 524 q 874 492 876 497 l 869 492 q 873 472 869 484 q 871 450 877 461 q 871 449 871 450 q 874 447 871 447 q 877 415 863 425 q 881 387 869 393 q 878 386 880 387 q 877 385 877 385 q 874 375 877 378 q 880 372 877 375 q 884 345 869 353 q 881 336 881 342 q 892 334 889 336 q 881 330 884 334 q 876 301 871 315 q 871 271 880 288 q 866 277 866 271 q 864 271 866 273 q 863 268 863 268 q 869 261 863 265 q 869 212 866 239 q 863 165 871 184 q 860 167 860 165 q 860 168 860 168 q 857 144 852 150 q 850 138 852 142 q 846 131 849 134 q 857 125 850 126 q 856 121 857 122 q 854 119 854 119 q 859 118 854 119 q 866 117 863 117 q 859 109 863 111 q 854 103 854 106 q 863 87 854 90 l 857 82 q 863 35 871 66 l 857 35 q 871 29 859 29 q 842 31 849 29 q 820 28 835 32 q 758 24 788 28 q 696 15 727 20 q 637 6 666 9 q 578 5 608 3 l 572 11 l 564 11 q 563 8 564 5 q 562 8 562 11 q 549 24 551 8 q 545 49 548 40 l 545 127 q 539 136 539 134 q 542 139 539 139 q 536 159 534 144 q 539 176 539 174 q 542 182 542 179 q 548 207 551 183 q 545 227 546 218 q 545 239 545 235 q 549 290 548 271 q 552 314 551 309 q 496 339 553 323 q 448 346 479 334 q 423 356 433 353 q 408 361 413 359 l 388 361 l 388 355 q 385 354 388 355 q 377 350 382 353 q 377 342 378 347 q 378 340 377 342 q 382 339 380 339 l 377 336 q 374 325 377 334 l 366 325 q 348 301 356 309 q 356 290 351 292 q 343 245 339 277 q 331 199 348 216 q 336 184 328 201 q 342 182 339 184 q 340 165 342 174 q 348 151 339 157 q 343 122 345 136 q 356 92 342 109 q 353 87 353 89 q 353 87 353 87 l 348 87 q 345 70 347 81 q 340 48 343 58 q 334 28 338 37 q 323 17 330 20 q 321 12 323 14 q 320 11 320 11 q 260 22 313 16 q 220 26 234 25 q 203 28 206 28 q 156 8 177 17 q 111 0 135 0 z "}}}
